<svg xmlns="http://www.w3.org/2000/svg" width="1053" height="526.5"><defs><clipPath id="rablfilter15"><rect x="68.5" y="83.5" width="792" height="391"/></clipPath></defs><g><rect x="0" y="0" width="1053" height="526.5" fill="#ffffff" fill-opacity="1" stroke="#ffffff" stroke-opacity="0" stroke-width="0"/><text x="0" y="14.800000190734863" style="cursor: default; user-select: none; -webkit-font-smoothing: antialiased; font-family: Roboto; font-size: 16px;" fill="#757575" dx="0px">Results per 100,000 citations in PubMed</text><text x="0" y="35.60000038146973" style="cursor: default; user-select: none; -webkit-font-smoothing: antialiased; font-family: Roboto; font-size: 14px;" fill="#BDBDBD" dx="0px">proportion for each search by year, 1955 to 2022</text><rect x="901.1750030517578" y="83.5" width="12" height="12" rx="2" ry="2" fill="#4285f4"/><text x="921.1750030517578" y="96.29999542236328" style="cursor: default; user-select: none; -webkit-font-smoothing: antialiased; font-family: Roboto;" fill="#757575" dx="0px">single cell</text><rect x="901.1750030517578" y="115.89999961853027" width="12" height="12" rx="2" ry="2" fill="#db4437"/><text x="921.1750030517578" y="128.70000076293945" style="cursor: default; user-select: none; -webkit-font-smoothing: antialiased; font-family: Roboto;" fill="#757575" dx="0px">climate change</text><rect x="901.1750030517578" y="148.29999923706055" width="12" height="12" rx="2" ry="2" fill="#f4b400"/><text x="921.1750030517578" y="161.0999984741211" style="cursor: default; user-select: none; -webkit-font-smoothing: antialiased; font-family: Roboto;" fill="#757575" dx="0px">RT PCR</text><rect x="901.1750030517578" y="180.69999885559082" width="12" height="12" rx="2" ry="2" fill="#0f9d58"/><text x="921.1750030517578" y="193.4999885559082" style="cursor: default; user-select: none; -webkit-font-smoothing: antialiased; font-family: Roboto;" fill="#757575" dx="0px">Immunotherapy</text><rect x="901.1750030517578" y="213.0999984741211" width="12" height="12" rx="2" ry="2" fill="#ab47bc"/><text x="921.1750030517578" y="225.89999389648438" style="cursor: default; user-select: none; -webkit-font-smoothing: antialiased; font-family: Roboto;" fill="#757575" dx="0px">Sanger sequencing</text><rect x="901.1750030517578" y="245.49999809265137" width="12" height="12" rx="2" ry="2" fill="#00acc1"/><text x="921.1750030517578" y="258.29999923706055" style="cursor: default; user-select: none; -webkit-font-smoothing: antialiased; font-family: Roboto;" fill="#757575" dx="0px">species conservation</text><rect x="901.1750030517578" y="277.89999771118164" width="12" height="12" rx="2" ry="2" fill="#ff7043"/><text x="921.1750030517578" y="290.69998931884766" style="cursor: default; user-select: none; -webkit-font-smoothing: antialiased; font-family: Roboto;" fill="#757575" dx="0px">Stem cell</text><rect x="901.1750030517578" y="310.2999973297119" width="12" height="12" rx="2" ry="2" fill="#9e9d24"/><text x="921.1750030517578" y="323.0999946594238" style="cursor: default; user-select: none; -webkit-font-smoothing: antialiased; font-family: Roboto;" fill="#757575" dx="0px">Restriction Enzymes</text><rect x="68.5" y="83.5" width="792" height="391" fill="#ffffff" fill-opacity="1" stroke="#ffffff" stroke-opacity="0" stroke-width="1"/></g><g><line x1="68.5" x2="860.5" y1="474.5" y2="474.5" stroke="#9E9E9E" stroke-width="1"/><line x1="68.5" x2="860.5" y1="409.33333333333337" y2="409.33333333333337" stroke="#E0E0E0" stroke-width="1"/><line x1="68.5" x2="860.5" y1="344.16666666666663" y2="344.16666666666663" stroke="#E0E0E0" stroke-width="1"/><line x1="68.5" x2="860.5" y1="279" y2="279" stroke="#E0E0E0" stroke-width="1"/><line x1="68.5" x2="860.5" y1="213.83333333333331" y2="213.83333333333331" stroke="#E0E0E0" stroke-width="1"/><line x1="68.5" x2="860.5" y1="148.66666666666666" y2="148.66666666666666" stroke="#E0E0E0" stroke-width="1"/><line x1="68.5" x2="860.5" y1="83.5" y2="83.5" stroke="#E0E0E0" stroke-width="1"/></g><g><path d="M 80.5 470.05799143960746 L 91.96268656716418 467.3144701103885 L 103.42537313432835 467.0209287868327 L 114.88805970149254 464.7371143124233 L 126.3507462686567 465.9690909090909 L 137.8134328358209 464.39592058598134 L 149.27611940298507 462.679120208576 L 160.73880597014926 462.8865184749085 L 172.2014925373134 463.2658760718483 L 183.66417910447763 460.02834495095925 L 195.12686567164178 460.7098296715835 L 206.58955223880596 455.04240549065315 L 218.05223880597015 454.2789740759638 L 229.51492537313433 452.8984127289149 L 240.97761194029852 447.44632823456203 L 252.4402985074627 447.8899659414411 L 263.9029850746268 445.1300272291947 L 275.36567164179104 436.1301704230523 L 286.82835820895525 432.9965199357349 L 298.2910447761194 433.42263195950835 L 309.75373134328356 351.27511092562196 L 321.2164179104478 354.7865106258367 L 332.67910447761193 368.3213217794593 L 344.14179104477614 365.62191363686395 L 355.6044776119403 362.562644737464 L 367.0671641791045 341.1977895617136 L 378.52985074626866 325.2017970658854 L 389.9925373134328 315.1146421837616 L 401.45522388059703 287.4204734890092 L 412.9179104477612 269.65502292717974 L 424.3805970149254 273.3809074400422 L 435.84328358208955 264.6173357885116 L 447.3059701492537 260.26050812560743 L 458.7686567164179 254.54063286680463 L 470.2313432835821 237.401470711143 L 481.69402985074623 227.59516913973548 L 493.15671641791045 216.6140603925061 L 504.61940298507466 199.85181056452365 L 516.0820895522388 196.82927819846617 L 527.544776119403 186.35140622650025 L 539.0074626865671 187.62270579147827 L 550.4701492537313 184.02118325394832 L 561.9328358208955 177.33091690159756 L 573.3955223880597 187.94330067734325 L 584.8582089552239 195.82853376200146 L 596.3208955223881 203.79246466766676 L 607.7835820895523 205.53912348778817 L 619.2462686567164 212.57024369539843 L 630.7089552238806 207.84034108109924 L 642.1716417910447 198.45810538469394 L 653.634328358209 207.17266606986743 L 665.0970149253731 211.3002069165041 L 676.5597014925373 206.36259617670197 L 688.0223880597015 211.7851695947786 L 699.4850746268656 207.394343534016 L 710.9477611940299 201.92856637387328 L 722.4104477611941 202.4906494130896 L 733.8731343283582 205.06698529256613 L 745.3358208955224 205.88083706154558 L 756.7985074626865 207.525261962959 L 768.2611940298508 210.54626849177401 L 779.7238805970148 216.46420302746603 L 791.1865671641791 216.18468935531436 L 802.6492537313434 214.82332173909182 L 814.1119402985074 211.03395487079177 L 825.5746268656717 219.16245597922298 L 837.0373134328358 214.87596015812073 L 848.5 218.12935745039775" fill="none" stroke="#4285f4" stroke-width="2" clip-path="url(#rablfilter15)"/><circle cx="80.5" cy="470.05799143960746" r="4" fill="#4285f4" fill-opacity="0" clip-path="url(#rablfilter15)"/><circle cx="91.96268656716418" cy="467.3144701103885" r="4" fill="#4285f4" fill-opacity="0" clip-path="url(#rablfilter15)"/><circle cx="103.42537313432835" cy="467.0209287868327" r="4" fill="#4285f4" fill-opacity="0" clip-path="url(#rablfilter15)"/><circle cx="114.88805970149254" cy="464.7371143124233" r="4" fill="#4285f4" fill-opacity="0" clip-path="url(#rablfilter15)"/><circle cx="126.3507462686567" cy="465.9690909090909" r="4" fill="#4285f4" fill-opacity="0" clip-path="url(#rablfilter15)"/><circle cx="137.8134328358209" cy="464.39592058598134" r="4" fill="#4285f4" fill-opacity="0" clip-path="url(#rablfilter15)"/><circle cx="149.27611940298507" cy="462.679120208576" r="4" fill="#4285f4" fill-opacity="0" clip-path="url(#rablfilter15)"/><circle cx="160.73880597014926" cy="462.8865184749085" r="4" fill="#4285f4" fill-opacity="0" clip-path="url(#rablfilter15)"/><circle cx="172.2014925373134" cy="463.2658760718483" r="4" fill="#4285f4" fill-opacity="0" clip-path="url(#rablfilter15)"/><circle cx="183.66417910447763" cy="460.02834495095925" r="4" fill="#4285f4" fill-opacity="0" clip-path="url(#rablfilter15)"/><circle cx="195.12686567164178" cy="460.7098296715835" r="4" fill="#4285f4" fill-opacity="0" clip-path="url(#rablfilter15)"/><circle cx="206.58955223880596" cy="455.04240549065315" r="4" fill="#4285f4" fill-opacity="0" clip-path="url(#rablfilter15)"/><circle cx="218.05223880597015" cy="454.2789740759638" r="4" fill="#4285f4" fill-opacity="0" clip-path="url(#rablfilter15)"/><circle cx="229.51492537313433" cy="452.8984127289149" r="4" fill="#4285f4" fill-opacity="0" clip-path="url(#rablfilter15)"/><circle cx="240.97761194029852" cy="447.44632823456203" r="4" fill="#4285f4" fill-opacity="0" clip-path="url(#rablfilter15)"/><circle cx="252.4402985074627" cy="447.8899659414411" r="4" fill="#4285f4" fill-opacity="0" clip-path="url(#rablfilter15)"/><circle cx="263.9029850746268" cy="445.1300272291947" r="4" fill="#4285f4" fill-opacity="0" clip-path="url(#rablfilter15)"/><circle cx="275.36567164179104" cy="436.1301704230523" r="4" fill="#4285f4" fill-opacity="0" clip-path="url(#rablfilter15)"/><circle cx="286.82835820895525" cy="432.9965199357349" r="4" fill="#4285f4" fill-opacity="0" clip-path="url(#rablfilter15)"/><circle cx="298.2910447761194" cy="433.42263195950835" r="4" fill="#4285f4" fill-opacity="0" clip-path="url(#rablfilter15)"/><circle cx="309.75373134328356" cy="351.27511092562196" r="4" fill="#4285f4" fill-opacity="0" clip-path="url(#rablfilter15)"/><circle cx="321.2164179104478" cy="354.7865106258367" r="4" fill="#4285f4" fill-opacity="0" clip-path="url(#rablfilter15)"/><circle cx="332.67910447761193" cy="368.3213217794593" r="4" fill="#4285f4" fill-opacity="0" clip-path="url(#rablfilter15)"/><circle cx="344.14179104477614" cy="365.62191363686395" r="4" fill="#4285f4" fill-opacity="0" clip-path="url(#rablfilter15)"/><circle cx="355.6044776119403" cy="362.562644737464" r="4" fill="#4285f4" fill-opacity="0" clip-path="url(#rablfilter15)"/><circle cx="367.0671641791045" cy="341.1977895617136" r="4" fill="#4285f4" fill-opacity="0" clip-path="url(#rablfilter15)"/><circle cx="378.52985074626866" cy="325.2017970658854" r="4" fill="#4285f4" fill-opacity="0" clip-path="url(#rablfilter15)"/><circle cx="389.9925373134328" cy="315.1146421837616" r="4" fill="#4285f4" fill-opacity="0" clip-path="url(#rablfilter15)"/><circle cx="401.45522388059703" cy="287.4204734890092" r="4" fill="#4285f4" fill-opacity="0" clip-path="url(#rablfilter15)"/><circle cx="412.9179104477612" cy="269.65502292717974" r="4" fill="#4285f4" fill-opacity="0" clip-path="url(#rablfilter15)"/><circle cx="424.3805970149254" cy="273.3809074400422" r="4" fill="#4285f4" fill-opacity="0" clip-path="url(#rablfilter15)"/><circle cx="435.84328358208955" cy="264.6173357885116" r="4" fill="#4285f4" fill-opacity="0" clip-path="url(#rablfilter15)"/><circle cx="447.3059701492537" cy="260.26050812560743" r="4" fill="#4285f4" fill-opacity="0" clip-path="url(#rablfilter15)"/><circle cx="458.7686567164179" cy="254.54063286680463" r="4" fill="#4285f4" fill-opacity="0" clip-path="url(#rablfilter15)"/><circle cx="470.2313432835821" cy="237.401470711143" r="4" fill="#4285f4" fill-opacity="0" clip-path="url(#rablfilter15)"/><circle cx="481.69402985074623" cy="227.59516913973548" r="4" fill="#4285f4" fill-opacity="0" clip-path="url(#rablfilter15)"/><circle cx="493.15671641791045" cy="216.6140603925061" r="4" fill="#4285f4" fill-opacity="0" clip-path="url(#rablfilter15)"/><circle cx="504.61940298507466" cy="199.85181056452365" r="4" fill="#4285f4" fill-opacity="0" clip-path="url(#rablfilter15)"/><circle cx="516.0820895522388" cy="196.82927819846617" r="4" fill="#4285f4" fill-opacity="0" clip-path="url(#rablfilter15)"/><circle cx="527.544776119403" cy="186.35140622650025" r="4" fill="#4285f4" fill-opacity="0" clip-path="url(#rablfilter15)"/><circle cx="539.0074626865671" cy="187.62270579147827" r="4" fill="#4285f4" fill-opacity="0" clip-path="url(#rablfilter15)"/><circle cx="550.4701492537313" cy="184.02118325394832" r="4" fill="#4285f4" fill-opacity="0" clip-path="url(#rablfilter15)"/><circle cx="561.9328358208955" cy="177.33091690159756" r="4" fill="#4285f4" fill-opacity="0" clip-path="url(#rablfilter15)"/><circle cx="573.3955223880597" cy="187.94330067734325" r="4" fill="#4285f4" fill-opacity="0" clip-path="url(#rablfilter15)"/><circle cx="584.8582089552239" cy="195.82853376200146" r="4" fill="#4285f4" fill-opacity="0" clip-path="url(#rablfilter15)"/><circle cx="596.3208955223881" cy="203.79246466766676" r="4" fill="#4285f4" fill-opacity="0" clip-path="url(#rablfilter15)"/><circle cx="607.7835820895523" cy="205.53912348778817" r="4" fill="#4285f4" fill-opacity="0" clip-path="url(#rablfilter15)"/><circle cx="619.2462686567164" cy="212.57024369539843" r="4" fill="#4285f4" fill-opacity="0" clip-path="url(#rablfilter15)"/><circle cx="630.7089552238806" cy="207.84034108109924" r="4" fill="#4285f4" fill-opacity="0" clip-path="url(#rablfilter15)"/><circle cx="642.1716417910447" cy="198.45810538469394" r="4" fill="#4285f4" fill-opacity="0" clip-path="url(#rablfilter15)"/><circle cx="653.634328358209" cy="207.17266606986743" r="4" fill="#4285f4" fill-opacity="0" clip-path="url(#rablfilter15)"/><circle cx="665.0970149253731" cy="211.3002069165041" r="4" fill="#4285f4" fill-opacity="0" clip-path="url(#rablfilter15)"/><circle cx="676.5597014925373" cy="206.36259617670197" r="4" fill="#4285f4" fill-opacity="0" clip-path="url(#rablfilter15)"/><circle cx="688.0223880597015" cy="211.7851695947786" r="4" fill="#4285f4" fill-opacity="0" clip-path="url(#rablfilter15)"/><circle cx="699.4850746268656" cy="207.394343534016" r="4" fill="#4285f4" fill-opacity="0" clip-path="url(#rablfilter15)"/><circle cx="710.9477611940299" cy="201.92856637387328" r="4" fill="#4285f4" fill-opacity="0" clip-path="url(#rablfilter15)"/><circle cx="722.4104477611941" cy="202.4906494130896" r="4" fill="#4285f4" fill-opacity="0" clip-path="url(#rablfilter15)"/><circle cx="733.8731343283582" cy="205.06698529256613" r="4" fill="#4285f4" fill-opacity="0" clip-path="url(#rablfilter15)"/><circle cx="745.3358208955224" cy="205.88083706154558" r="4" fill="#4285f4" fill-opacity="0" clip-path="url(#rablfilter15)"/><circle cx="756.7985074626865" cy="207.525261962959" r="4" fill="#4285f4" fill-opacity="0" clip-path="url(#rablfilter15)"/><circle cx="768.2611940298508" cy="210.54626849177401" r="4" fill="#4285f4" fill-opacity="0" clip-path="url(#rablfilter15)"/><circle cx="779.7238805970148" cy="216.46420302746603" r="4" fill="#4285f4" fill-opacity="0" clip-path="url(#rablfilter15)"/><circle cx="791.1865671641791" cy="216.18468935531436" r="4" fill="#4285f4" fill-opacity="0" clip-path="url(#rablfilter15)"/><circle cx="802.6492537313434" cy="214.82332173909182" r="4" fill="#4285f4" fill-opacity="0" clip-path="url(#rablfilter15)"/><circle cx="814.1119402985074" cy="211.03395487079177" r="4" fill="#4285f4" fill-opacity="0" clip-path="url(#rablfilter15)"/><circle cx="825.5746268656717" cy="219.16245597922298" r="4" fill="#4285f4" fill-opacity="0" clip-path="url(#rablfilter15)"/><circle cx="837.0373134328358" cy="214.87596015812073" r="4" fill="#4285f4" fill-opacity="0" clip-path="url(#rablfilter15)"/><circle cx="848.5" cy="218.12935745039775" r="4" fill="#4285f4" fill-opacity="0" clip-path="url(#rablfilter15)"/><path d="M 80.5 474.5 L 91.96268656716418 474.25642271560645 L 103.42537313432835 474.5 L 114.88805970149254 474.3809404184442 L 126.3507462686567 474.5 L 137.8134328358209 474.26772231232144 L 149.27611940298507 474.2831031230931 L 160.73880597014926 474.39630820066884 L 172.2014925373134 474.22375105094704 L 183.66417910447763 474.17840766557686 L 195.12686567164178 474.4262557736448 L 206.58955223880596 474.2830008047285 L 218.05223880597015 474.160721041543 L 229.51492537313433 473.99909362849655 L 240.97761194029852 474.2579089774905 L 252.4402985074627 474.2030130127393 L 263.9029850746268 474.1503574670142 L 275.36567164179104 474.0997186184223 L 286.82835820895525 474.2744376083464 L 298.2910447761194 474.16738973246567 L 309.75373134328356 473.71546123254853 L 321.2164179104478 473.78437709170015 L 332.67910447761193 473.9531996908118 L 344.14179104477614 473.8783859803598 L 355.6044776119403 473.76083463301666 L 367.0671641791045 473.8497453149352 L 378.52985074626866 473.99452747544626 L 389.9925373134328 474.05934377158906 L 401.45522388059703 473.91050790656 L 412.9179104477612 474.0904738563118 L 424.3805970149254 473.6450009591654 L 435.84328358208955 473.60561364682604 L 447.3059701492537 473.7562358523124 L 458.7686567164179 473.5907986967856 L 470.2313432835821 473.36756979733764 L 481.69402985074623 472.69198672160394 L 493.15671641791045 472.6705743031758 L 504.61940298507466 472.6604900469187 L 516.0820895522388 472.45785528422584 L 527.544776119403 471.61910806060297 L 539.0074626865671 472.09194827879173 L 550.4701492537313 471.80091083813824 L 561.9328358208955 472.27486910994764 L 573.3955223880597 471.61741201102905 L 584.8582089552239 471.2544181093387 L 596.3208955223881 468.8230454490553 L 607.7835820895523 467.9788708818382 L 619.2462686567164 467.33173581390963 L 630.7089552238806 467.4855247962147 L 642.1716417910447 466.4937664513789 L 653.634328358209 465.51217441958414 L 665.0970149253731 463.67452491641797 L 676.5597014925373 459.65593983159255 L 688.0223880597015 456.8922682555079 L 699.4850746268656 450.5308834907095 L 710.9477611940299 444.6446983166591 L 722.4104477611941 445.5992459562337 L 733.8731343283582 441.7012266745444 L 745.3358208955224 435.6271737035314 L 756.7985074626865 430.2654521582552 L 768.2611940298508 426.00537967814955 L 779.7238805970148 416.6245181790378 L 791.1865671641791 412.6274707700111 L 802.6492537313434 407.37249861206993 L 814.1119402985074 402.77270967421737 L 825.5746268656717 398.26166279611544 L 837.0373134328358 389.76276789273203 L 848.5 377.83614241894486" fill="none" stroke="#db4437" stroke-width="2" clip-path="url(#rablfilter15)"/><circle cx="80.5" cy="474.5" r="4" fill="#db4437" fill-opacity="0" clip-path="url(#rablfilter15)"/><circle cx="91.96268656716418" cy="474.25642271560645" r="4" fill="#db4437" fill-opacity="0" clip-path="url(#rablfilter15)"/><circle cx="103.42537313432835" cy="474.5" r="4" fill="#db4437" fill-opacity="0" clip-path="url(#rablfilter15)"/><circle cx="114.88805970149254" cy="474.3809404184442" r="4" fill="#db4437" fill-opacity="0" clip-path="url(#rablfilter15)"/><circle cx="126.3507462686567" cy="474.5" r="4" fill="#db4437" fill-opacity="0" clip-path="url(#rablfilter15)"/><circle cx="137.8134328358209" cy="474.26772231232144" r="4" fill="#db4437" fill-opacity="0" clip-path="url(#rablfilter15)"/><circle cx="149.27611940298507" cy="474.2831031230931" r="4" fill="#db4437" fill-opacity="0" clip-path="url(#rablfilter15)"/><circle cx="160.73880597014926" cy="474.39630820066884" r="4" fill="#db4437" fill-opacity="0" clip-path="url(#rablfilter15)"/><circle cx="172.2014925373134" cy="474.22375105094704" r="4" fill="#db4437" fill-opacity="0" clip-path="url(#rablfilter15)"/><circle cx="183.66417910447763" cy="474.17840766557686" r="4" fill="#db4437" fill-opacity="0" clip-path="url(#rablfilter15)"/><circle cx="195.12686567164178" cy="474.4262557736448" r="4" fill="#db4437" fill-opacity="0" clip-path="url(#rablfilter15)"/><circle cx="206.58955223880596" cy="474.2830008047285" r="4" fill="#db4437" fill-opacity="0" clip-path="url(#rablfilter15)"/><circle cx="218.05223880597015" cy="474.160721041543" r="4" fill="#db4437" fill-opacity="0" clip-path="url(#rablfilter15)"/><circle cx="229.51492537313433" cy="473.99909362849655" r="4" fill="#db4437" fill-opacity="0" clip-path="url(#rablfilter15)"/><circle cx="240.97761194029852" cy="474.2579089774905" r="4" fill="#db4437" fill-opacity="0" clip-path="url(#rablfilter15)"/><circle cx="252.4402985074627" cy="474.2030130127393" r="4" fill="#db4437" fill-opacity="0" clip-path="url(#rablfilter15)"/><circle cx="263.9029850746268" cy="474.1503574670142" r="4" fill="#db4437" fill-opacity="0" clip-path="url(#rablfilter15)"/><circle cx="275.36567164179104" cy="474.0997186184223" r="4" fill="#db4437" fill-opacity="0" clip-path="url(#rablfilter15)"/><circle cx="286.82835820895525" cy="474.2744376083464" r="4" fill="#db4437" fill-opacity="0" clip-path="url(#rablfilter15)"/><circle cx="298.2910447761194" cy="474.16738973246567" r="4" fill="#db4437" fill-opacity="0" clip-path="url(#rablfilter15)"/><circle cx="309.75373134328356" cy="473.71546123254853" r="4" fill="#db4437" fill-opacity="0" clip-path="url(#rablfilter15)"/><circle cx="321.2164179104478" cy="473.78437709170015" r="4" fill="#db4437" fill-opacity="0" clip-path="url(#rablfilter15)"/><circle cx="332.67910447761193" cy="473.9531996908118" r="4" fill="#db4437" fill-opacity="0" clip-path="url(#rablfilter15)"/><circle cx="344.14179104477614" cy="473.8783859803598" r="4" fill="#db4437" fill-opacity="0" clip-path="url(#rablfilter15)"/><circle cx="355.6044776119403" cy="473.76083463301666" r="4" fill="#db4437" fill-opacity="0" clip-path="url(#rablfilter15)"/><circle cx="367.0671641791045" cy="473.8497453149352" r="4" fill="#db4437" fill-opacity="0" clip-path="url(#rablfilter15)"/><circle cx="378.52985074626866" cy="473.99452747544626" r="4" fill="#db4437" fill-opacity="0" clip-path="url(#rablfilter15)"/><circle cx="389.9925373134328" cy="474.05934377158906" r="4" fill="#db4437" fill-opacity="0" clip-path="url(#rablfilter15)"/><circle cx="401.45522388059703" cy="473.91050790656" r="4" fill="#db4437" fill-opacity="0" clip-path="url(#rablfilter15)"/><circle cx="412.9179104477612" cy="474.0904738563118" r="4" fill="#db4437" fill-opacity="0" clip-path="url(#rablfilter15)"/><circle cx="424.3805970149254" cy="473.6450009591654" r="4" fill="#db4437" fill-opacity="0" clip-path="url(#rablfilter15)"/><circle cx="435.84328358208955" cy="473.60561364682604" r="4" fill="#db4437" fill-opacity="0" clip-path="url(#rablfilter15)"/><circle cx="447.3059701492537" cy="473.7562358523124" r="4" fill="#db4437" fill-opacity="0" clip-path="url(#rablfilter15)"/><circle cx="458.7686567164179" cy="473.5907986967856" r="4" fill="#db4437" fill-opacity="0" clip-path="url(#rablfilter15)"/><circle cx="470.2313432835821" cy="473.36756979733764" r="4" fill="#db4437" fill-opacity="0" clip-path="url(#rablfilter15)"/><circle cx="481.69402985074623" cy="472.69198672160394" r="4" fill="#db4437" fill-opacity="0" clip-path="url(#rablfilter15)"/><circle cx="493.15671641791045" cy="472.6705743031758" r="4" fill="#db4437" fill-opacity="0" clip-path="url(#rablfilter15)"/><circle cx="504.61940298507466" cy="472.6604900469187" r="4" fill="#db4437" fill-opacity="0" clip-path="url(#rablfilter15)"/><circle cx="516.0820895522388" cy="472.45785528422584" r="4" fill="#db4437" fill-opacity="0" clip-path="url(#rablfilter15)"/><circle cx="527.544776119403" cy="471.61910806060297" r="4" fill="#db4437" fill-opacity="0" clip-path="url(#rablfilter15)"/><circle cx="539.0074626865671" cy="472.09194827879173" r="4" fill="#db4437" fill-opacity="0" clip-path="url(#rablfilter15)"/><circle cx="550.4701492537313" cy="471.80091083813824" r="4" fill="#db4437" fill-opacity="0" clip-path="url(#rablfilter15)"/><circle cx="561.9328358208955" cy="472.27486910994764" r="4" fill="#db4437" fill-opacity="0" clip-path="url(#rablfilter15)"/><circle cx="573.3955223880597" cy="471.61741201102905" r="4" fill="#db4437" fill-opacity="0" clip-path="url(#rablfilter15)"/><circle cx="584.8582089552239" cy="471.2544181093387" r="4" fill="#db4437" fill-opacity="0" clip-path="url(#rablfilter15)"/><circle cx="596.3208955223881" cy="468.8230454490553" r="4" fill="#db4437" fill-opacity="0" clip-path="url(#rablfilter15)"/><circle cx="607.7835820895523" cy="467.9788708818382" r="4" fill="#db4437" fill-opacity="0" clip-path="url(#rablfilter15)"/><circle cx="619.2462686567164" cy="467.33173581390963" r="4" fill="#db4437" fill-opacity="0" clip-path="url(#rablfilter15)"/><circle cx="630.7089552238806" cy="467.4855247962147" r="4" fill="#db4437" fill-opacity="0" clip-path="url(#rablfilter15)"/><circle cx="642.1716417910447" cy="466.4937664513789" r="4" fill="#db4437" fill-opacity="0" clip-path="url(#rablfilter15)"/><circle cx="653.634328358209" cy="465.51217441958414" r="4" fill="#db4437" fill-opacity="0" clip-path="url(#rablfilter15)"/><circle cx="665.0970149253731" cy="463.67452491641797" r="4" fill="#db4437" fill-opacity="0" clip-path="url(#rablfilter15)"/><circle cx="676.5597014925373" cy="459.65593983159255" r="4" fill="#db4437" fill-opacity="0" clip-path="url(#rablfilter15)"/><circle cx="688.0223880597015" cy="456.8922682555079" r="4" fill="#db4437" fill-opacity="0" clip-path="url(#rablfilter15)"/><circle cx="699.4850746268656" cy="450.5308834907095" r="4" fill="#db4437" fill-opacity="0" clip-path="url(#rablfilter15)"/><circle cx="710.9477611940299" cy="444.6446983166591" r="4" fill="#db4437" fill-opacity="0" clip-path="url(#rablfilter15)"/><circle cx="722.4104477611941" cy="445.5992459562337" r="4" fill="#db4437" fill-opacity="0" clip-path="url(#rablfilter15)"/><circle cx="733.8731343283582" cy="441.7012266745444" r="4" fill="#db4437" fill-opacity="0" clip-path="url(#rablfilter15)"/><circle cx="745.3358208955224" cy="435.6271737035314" r="4" fill="#db4437" fill-opacity="0" clip-path="url(#rablfilter15)"/><circle cx="756.7985074626865" cy="430.2654521582552" r="4" fill="#db4437" fill-opacity="0" clip-path="url(#rablfilter15)"/><circle cx="768.2611940298508" cy="426.00537967814955" r="4" fill="#db4437" fill-opacity="0" clip-path="url(#rablfilter15)"/><circle cx="779.7238805970148" cy="416.6245181790378" r="4" fill="#db4437" fill-opacity="0" clip-path="url(#rablfilter15)"/><circle cx="791.1865671641791" cy="412.6274707700111" r="4" fill="#db4437" fill-opacity="0" clip-path="url(#rablfilter15)"/><circle cx="802.6492537313434" cy="407.37249861206993" r="4" fill="#db4437" fill-opacity="0" clip-path="url(#rablfilter15)"/><circle cx="814.1119402985074" cy="402.77270967421737" r="4" fill="#db4437" fill-opacity="0" clip-path="url(#rablfilter15)"/><circle cx="825.5746268656717" cy="398.26166279611544" r="4" fill="#db4437" fill-opacity="0" clip-path="url(#rablfilter15)"/><circle cx="837.0373134328358" cy="389.76276789273203" r="4" fill="#db4437" fill-opacity="0" clip-path="url(#rablfilter15)"/><circle cx="848.5" cy="377.83614241894486" r="4" fill="#db4437" fill-opacity="0" clip-path="url(#rablfilter15)"/><path d="M 80.5 474.5 L 91.96268656716418 474.5 L 103.42537313432835 474.5 L 114.88805970149254 474.5 L 126.3507462686567 474.5 L 137.8134328358209 474.5 L 149.27611940298507 474.5 L 160.73880597014926 474.5 L 172.2014925373134 474.5 L 183.66417910447763 474.5 L 195.12686567164178 474.5 L 206.58955223880596 474.5 L 218.05223880597015 474.5 L 229.51492537313433 474.5 L 240.97761194029852 474.5 L 252.4402985074627 474.5 L 263.9029850746268 474.5 L 275.36567164179104 474.5 L 286.82835820895525 474.5 L 298.2910447761194 474.5 L 309.75373134328356 474.4476974155032 L 321.2164179104478 474.44888407797856 L 332.67910447761193 474.5 L 344.14179104477614 474.45218353695077 L 355.6044776119403 474.45380216456357 L 367.0671641791045 474.5 L 378.52985074626866 474.5 L 389.9925373134328 474.4559343771589 L 401.45522388059703 474.5 L 412.9179104477612 474.45904738563115 L 424.3805970149254 474.4611364072348 L 435.84328358208955 474.4627339019511 L 447.3059701492537 474.3583306385357 L 458.7686567164179 474.3316293882936 L 470.2313432835821 473.88525217569753 L 481.69402985074623 472.9774625024032 L 493.15671641791045 470.1787703368118 L 504.61940298507466 463.49411841631024 L 516.0820895522388 453.4689574047137 L 527.544776119403 438.4740007990873 L 539.0074626865671 419.25987376890924 L 550.4701492537313 399.2380295813487 L 561.9328358208955 380.3598469593235 L 573.3955223880597 347.4739559526794 L 584.8582089552239 290.8475613089224 L 596.3208955223881 274.6809876594203 L 607.7835820895523 256.97036445256026 L 619.2462686567164 249.49487143210837 L 630.7089552238806 213.01351654389092 L 642.1716417910447 191.89829061966597 L 653.634328358209 182.36775613468248 L 665.0970149253731 194.27136970637497 L 676.5597014925373 202.23740534865127 L 688.0223880597015 206.0871768286565 L 699.4850746268656 206.23598474360418 L 710.9477611940299 193.2680386381127 L 722.4104477611941 243.38336459123354 L 733.8731343283582 294.35187060834335 L 745.3358208955224 301.21559356472164 L 756.7985074626865 322.4248242820953 L 768.2611940298508 344.7458043439718 L 779.7238805970148 371.9145420369415 L 791.1865671641791 389.18787770953867 L 802.6492537313434 403.65980100621545 L 814.1119402985074 409.1002357344992 L 825.5746268656717 395.22932053965036 L 837.0373134328358 391.85007222726716 L 848.5 406.469918856802" fill="none" stroke="#f4b400" stroke-width="2" clip-path="url(#rablfilter15)"/><circle cx="80.5" cy="474.5" r="4" fill="#f4b400" fill-opacity="0" clip-path="url(#rablfilter15)"/><circle cx="91.96268656716418" cy="474.5" r="4" fill="#f4b400" fill-opacity="0" clip-path="url(#rablfilter15)"/><circle cx="103.42537313432835" cy="474.5" r="4" fill="#f4b400" fill-opacity="0" clip-path="url(#rablfilter15)"/><circle cx="114.88805970149254" cy="474.5" r="4" fill="#f4b400" fill-opacity="0" clip-path="url(#rablfilter15)"/><circle cx="126.3507462686567" cy="474.5" r="4" fill="#f4b400" fill-opacity="0" clip-path="url(#rablfilter15)"/><circle cx="137.8134328358209" cy="474.5" r="4" fill="#f4b400" fill-opacity="0" clip-path="url(#rablfilter15)"/><circle cx="149.27611940298507" cy="474.5" r="4" fill="#f4b400" fill-opacity="0" clip-path="url(#rablfilter15)"/><circle cx="160.73880597014926" cy="474.5" r="4" fill="#f4b400" fill-opacity="0" clip-path="url(#rablfilter15)"/><circle cx="172.2014925373134" cy="474.5" r="4" fill="#f4b400" fill-opacity="0" clip-path="url(#rablfilter15)"/><circle cx="183.66417910447763" cy="474.5" r="4" fill="#f4b400" fill-opacity="0" clip-path="url(#rablfilter15)"/><circle cx="195.12686567164178" cy="474.5" r="4" fill="#f4b400" fill-opacity="0" clip-path="url(#rablfilter15)"/><circle cx="206.58955223880596" cy="474.5" r="4" fill="#f4b400" fill-opacity="0" clip-path="url(#rablfilter15)"/><circle cx="218.05223880597015" cy="474.5" r="4" fill="#f4b400" fill-opacity="0" clip-path="url(#rablfilter15)"/><circle cx="229.51492537313433" cy="474.5" r="4" fill="#f4b400" fill-opacity="0" clip-path="url(#rablfilter15)"/><circle cx="240.97761194029852" cy="474.5" r="4" fill="#f4b400" fill-opacity="0" clip-path="url(#rablfilter15)"/><circle cx="252.4402985074627" cy="474.5" r="4" fill="#f4b400" fill-opacity="0" clip-path="url(#rablfilter15)"/><circle cx="263.9029850746268" cy="474.5" r="4" fill="#f4b400" fill-opacity="0" clip-path="url(#rablfilter15)"/><circle cx="275.36567164179104" cy="474.5" r="4" fill="#f4b400" fill-opacity="0" clip-path="url(#rablfilter15)"/><circle cx="286.82835820895525" cy="474.5" r="4" fill="#f4b400" fill-opacity="0" clip-path="url(#rablfilter15)"/><circle cx="298.2910447761194" cy="474.5" r="4" fill="#f4b400" fill-opacity="0" clip-path="url(#rablfilter15)"/><circle cx="309.75373134328356" cy="474.4476974155032" r="4" fill="#f4b400" fill-opacity="0" clip-path="url(#rablfilter15)"/><circle cx="321.2164179104478" cy="474.44888407797856" r="4" fill="#f4b400" fill-opacity="0" clip-path="url(#rablfilter15)"/><circle cx="332.67910447761193" cy="474.5" r="4" fill="#f4b400" fill-opacity="0" clip-path="url(#rablfilter15)"/><circle cx="344.14179104477614" cy="474.45218353695077" r="4" fill="#f4b400" fill-opacity="0" clip-path="url(#rablfilter15)"/><circle cx="355.6044776119403" cy="474.45380216456357" r="4" fill="#f4b400" fill-opacity="0" clip-path="url(#rablfilter15)"/><circle cx="367.0671641791045" cy="474.5" r="4" fill="#f4b400" fill-opacity="0" clip-path="url(#rablfilter15)"/><circle cx="378.52985074626866" cy="474.5" r="4" fill="#f4b400" fill-opacity="0" clip-path="url(#rablfilter15)"/><circle cx="389.9925373134328" cy="474.4559343771589" r="4" fill="#f4b400" fill-opacity="0" clip-path="url(#rablfilter15)"/><circle cx="401.45522388059703" cy="474.5" r="4" fill="#f4b400" fill-opacity="0" clip-path="url(#rablfilter15)"/><circle cx="412.9179104477612" cy="474.45904738563115" r="4" fill="#f4b400" fill-opacity="0" clip-path="url(#rablfilter15)"/><circle cx="424.3805970149254" cy="474.4611364072348" r="4" fill="#f4b400" fill-opacity="0" clip-path="url(#rablfilter15)"/><circle cx="435.84328358208955" cy="474.4627339019511" r="4" fill="#f4b400" fill-opacity="0" clip-path="url(#rablfilter15)"/><circle cx="447.3059701492537" cy="474.3583306385357" r="4" fill="#f4b400" fill-opacity="0" clip-path="url(#rablfilter15)"/><circle cx="458.7686567164179" cy="474.3316293882936" r="4" fill="#f4b400" fill-opacity="0" clip-path="url(#rablfilter15)"/><circle cx="470.2313432835821" cy="473.88525217569753" r="4" fill="#f4b400" fill-opacity="0" clip-path="url(#rablfilter15)"/><circle cx="481.69402985074623" cy="472.9774625024032" r="4" fill="#f4b400" fill-opacity="0" clip-path="url(#rablfilter15)"/><circle cx="493.15671641791045" cy="470.1787703368118" r="4" fill="#f4b400" fill-opacity="0" clip-path="url(#rablfilter15)"/><circle cx="504.61940298507466" cy="463.49411841631024" r="4" fill="#f4b400" fill-opacity="0" clip-path="url(#rablfilter15)"/><circle cx="516.0820895522388" cy="453.4689574047137" r="4" fill="#f4b400" fill-opacity="0" clip-path="url(#rablfilter15)"/><circle cx="527.544776119403" cy="438.4740007990873" r="4" fill="#f4b400" fill-opacity="0" clip-path="url(#rablfilter15)"/><circle cx="539.0074626865671" cy="419.25987376890924" r="4" fill="#f4b400" fill-opacity="0" clip-path="url(#rablfilter15)"/><circle cx="550.4701492537313" cy="399.2380295813487" r="4" fill="#f4b400" fill-opacity="0" clip-path="url(#rablfilter15)"/><circle cx="561.9328358208955" cy="380.3598469593235" r="4" fill="#f4b400" fill-opacity="0" clip-path="url(#rablfilter15)"/><circle cx="573.3955223880597" cy="347.4739559526794" r="4" fill="#f4b400" fill-opacity="0" clip-path="url(#rablfilter15)"/><circle cx="584.8582089552239" cy="290.8475613089224" r="4" fill="#f4b400" fill-opacity="0" clip-path="url(#rablfilter15)"/><circle cx="596.3208955223881" cy="274.6809876594203" r="4" fill="#f4b400" fill-opacity="0" clip-path="url(#rablfilter15)"/><circle cx="607.7835820895523" cy="256.97036445256026" r="4" fill="#f4b400" fill-opacity="0" clip-path="url(#rablfilter15)"/><circle cx="619.2462686567164" cy="249.49487143210837" r="4" fill="#f4b400" fill-opacity="0" clip-path="url(#rablfilter15)"/><circle cx="630.7089552238806" cy="213.01351654389092" r="4" fill="#f4b400" fill-opacity="0" clip-path="url(#rablfilter15)"/><circle cx="642.1716417910447" cy="191.89829061966597" r="4" fill="#f4b400" fill-opacity="0" clip-path="url(#rablfilter15)"/><circle cx="653.634328358209" cy="182.36775613468248" r="4" fill="#f4b400" fill-opacity="0" clip-path="url(#rablfilter15)"/><circle cx="665.0970149253731" cy="194.27136970637497" r="4" fill="#f4b400" fill-opacity="0" clip-path="url(#rablfilter15)"/><circle cx="676.5597014925373" cy="202.23740534865127" r="4" fill="#f4b400" fill-opacity="0" clip-path="url(#rablfilter15)"/><circle cx="688.0223880597015" cy="206.0871768286565" r="4" fill="#f4b400" fill-opacity="0" clip-path="url(#rablfilter15)"/><circle cx="699.4850746268656" cy="206.23598474360418" r="4" fill="#f4b400" fill-opacity="0" clip-path="url(#rablfilter15)"/><circle cx="710.9477611940299" cy="193.2680386381127" r="4" fill="#f4b400" fill-opacity="0" clip-path="url(#rablfilter15)"/><circle cx="722.4104477611941" cy="243.38336459123354" r="4" fill="#f4b400" fill-opacity="0" clip-path="url(#rablfilter15)"/><circle cx="733.8731343283582" cy="294.35187060834335" r="4" fill="#f4b400" fill-opacity="0" clip-path="url(#rablfilter15)"/><circle cx="745.3358208955224" cy="301.21559356472164" r="4" fill="#f4b400" fill-opacity="0" clip-path="url(#rablfilter15)"/><circle cx="756.7985074626865" cy="322.4248242820953" r="4" fill="#f4b400" fill-opacity="0" clip-path="url(#rablfilter15)"/><circle cx="768.2611940298508" cy="344.7458043439718" r="4" fill="#f4b400" fill-opacity="0" clip-path="url(#rablfilter15)"/><circle cx="779.7238805970148" cy="371.9145420369415" r="4" fill="#f4b400" fill-opacity="0" clip-path="url(#rablfilter15)"/><circle cx="791.1865671641791" cy="389.18787770953867" r="4" fill="#f4b400" fill-opacity="0" clip-path="url(#rablfilter15)"/><circle cx="802.6492537313434" cy="403.65980100621545" r="4" fill="#f4b400" fill-opacity="0" clip-path="url(#rablfilter15)"/><circle cx="814.1119402985074" cy="409.1002357344992" r="4" fill="#f4b400" fill-opacity="0" clip-path="url(#rablfilter15)"/><circle cx="825.5746268656717" cy="395.22932053965036" r="4" fill="#f4b400" fill-opacity="0" clip-path="url(#rablfilter15)"/><circle cx="837.0373134328358" cy="391.85007222726716" r="4" fill="#f4b400" fill-opacity="0" clip-path="url(#rablfilter15)"/><circle cx="848.5" cy="406.469918856802" r="4" fill="#f4b400" fill-opacity="0" clip-path="url(#rablfilter15)"/><path d="M 80.5 361.28880885269865 L 91.96268656716418 365.86453116044953 L 103.42537313432835 383.9331220280525 L 114.88805970149254 392.229829144933 L 126.3507462686567 399.61757575757576 L 137.8134328358209 392.8543927809758 L 149.27611940298507 392.9467742830199 L 160.73880597014926 389.47272454843676 L 172.2014925373134 374.8662123749167 L 183.66417910447763 347.7926202372874 L 195.12686567164178 383.64711313043296 L 206.58955223880596 396.9589542229745 L 218.05223880597015 390.90166463619926 L 229.51492537313433 387.27967806196637 L 240.97761194029852 366.8300177388946 L 252.4402985074627 362.8922901874284 L 263.9029850746268 320.77383299725324 L 275.36567164179104 303.92294839339013 L 286.82835820895525 289.82079183360304 L 298.2910447761194 288.792600626657 L 309.75373134328356 301.1692349777212 L 321.2164179104478 310.36677438922356 L 332.67910447761193 324.77613352047354 L 344.14179104477614 325.40826821244696 L 355.6044776119403 322.6477149203648 L 367.0671641791045 341.89449100999735 L 378.52985074626866 353.6920666316444 L 389.9925373134328 348.2519905602645 L 401.45522388059703 336.76938302555686 L 412.9179104477612 332.76300166952603 L 424.3805970149254 335.29061071502053 L 435.84328358208955 345.5965668488035 L 447.3059701492537 329.9264166256786 L 458.7686567164179 344.85462898609893 L 470.2313432835821 339.96729192370805 L 481.69402985074623 337.5985033410969 L 493.15671641791045 334.1704323246404 L 504.61940298507466 330.3634828289014 L 516.0820895522388 328.5323724799621 L 527.544776119403 332.7125967146271 L 539.0074626865671 335.2681902400186 L 550.4701492537313 337.15897885852763 L 561.9328358208955 328.89656329708686 L 573.3955223880597 333.3904546351355 L 584.8582089552239 325.7309699223714 L 596.3208955223881 332.23356138279075 L 607.7835820895523 325.8944152780948 L 619.2462686567164 326.985881701034 L 630.7089552238806 324.23678899391166 L 642.1716417910447 328.8395168635101 L 653.634328358209 334.10011593325555 L 665.0970149253731 340.28496060098223 L 676.5597014925373 341.9306144334859 L 688.0223880597015 345.70356788489505 L 699.4850746268656 348.4171008897918 L 710.9477611940299 348.7978354518837 L 722.4104477611941 344.84889303918897 L 733.8731343283582 350.63470912198517 L 745.3358208955224 346.92233072322244 L 756.7985074626865 342.44495688300225 L 768.2611940298508 337.7306637546785 L 779.7238805970148 328.5535737956843 L 791.1865671641791 313.5014816950837 L 802.6492537313434 299.55961748621746 L 814.1119402985074 287.221783189651 L 825.5746268656717 272.7417947470015 L 837.0373134328358 234.29155240672642 L 848.5 217.17170606451631" fill="none" stroke="#0f9d58" stroke-width="2" clip-path="url(#rablfilter15)"/><circle cx="80.5" cy="361.28880885269865" r="4" fill="#0f9d58" fill-opacity="0" clip-path="url(#rablfilter15)"/><circle cx="91.96268656716418" cy="365.86453116044953" r="4" fill="#0f9d58" fill-opacity="0" clip-path="url(#rablfilter15)"/><circle cx="103.42537313432835" cy="383.9331220280525" r="4" fill="#0f9d58" fill-opacity="0" clip-path="url(#rablfilter15)"/><circle cx="114.88805970149254" cy="392.229829144933" r="4" fill="#0f9d58" fill-opacity="0" clip-path="url(#rablfilter15)"/><circle cx="126.3507462686567" cy="399.61757575757576" r="4" fill="#0f9d58" fill-opacity="0" clip-path="url(#rablfilter15)"/><circle cx="137.8134328358209" cy="392.8543927809758" r="4" fill="#0f9d58" fill-opacity="0" clip-path="url(#rablfilter15)"/><circle cx="149.27611940298507" cy="392.9467742830199" r="4" fill="#0f9d58" fill-opacity="0" clip-path="url(#rablfilter15)"/><circle cx="160.73880597014926" cy="389.47272454843676" r="4" fill="#0f9d58" fill-opacity="0" clip-path="url(#rablfilter15)"/><circle cx="172.2014925373134" cy="374.8662123749167" r="4" fill="#0f9d58" fill-opacity="0" clip-path="url(#rablfilter15)"/><circle cx="183.66417910447763" cy="347.7926202372874" r="4" fill="#0f9d58" fill-opacity="0" clip-path="url(#rablfilter15)"/><circle cx="195.12686567164178" cy="383.64711313043296" r="4" fill="#0f9d58" fill-opacity="0" clip-path="url(#rablfilter15)"/><circle cx="206.58955223880596" cy="396.9589542229745" r="4" fill="#0f9d58" fill-opacity="0" clip-path="url(#rablfilter15)"/><circle cx="218.05223880597015" cy="390.90166463619926" r="4" fill="#0f9d58" fill-opacity="0" clip-path="url(#rablfilter15)"/><circle cx="229.51492537313433" cy="387.27967806196637" r="4" fill="#0f9d58" fill-opacity="0" clip-path="url(#rablfilter15)"/><circle cx="240.97761194029852" cy="366.8300177388946" r="4" fill="#0f9d58" fill-opacity="0" clip-path="url(#rablfilter15)"/><circle cx="252.4402985074627" cy="362.8922901874284" r="4" fill="#0f9d58" fill-opacity="0" clip-path="url(#rablfilter15)"/><circle cx="263.9029850746268" cy="320.77383299725324" r="4" fill="#0f9d58" fill-opacity="0" clip-path="url(#rablfilter15)"/><circle cx="275.36567164179104" cy="303.92294839339013" r="4" fill="#0f9d58" fill-opacity="0" clip-path="url(#rablfilter15)"/><circle cx="286.82835820895525" cy="289.82079183360304" r="4" fill="#0f9d58" fill-opacity="0" clip-path="url(#rablfilter15)"/><circle cx="298.2910447761194" cy="288.792600626657" r="4" fill="#0f9d58" fill-opacity="0" clip-path="url(#rablfilter15)"/><circle cx="309.75373134328356" cy="301.1692349777212" r="4" fill="#0f9d58" fill-opacity="0" clip-path="url(#rablfilter15)"/><circle cx="321.2164179104478" cy="310.36677438922356" r="4" fill="#0f9d58" fill-opacity="0" clip-path="url(#rablfilter15)"/><circle cx="332.67910447761193" cy="324.77613352047354" r="4" fill="#0f9d58" fill-opacity="0" clip-path="url(#rablfilter15)"/><circle cx="344.14179104477614" cy="325.40826821244696" r="4" fill="#0f9d58" fill-opacity="0" clip-path="url(#rablfilter15)"/><circle cx="355.6044776119403" cy="322.6477149203648" r="4" fill="#0f9d58" fill-opacity="0" clip-path="url(#rablfilter15)"/><circle cx="367.0671641791045" cy="341.89449100999735" r="4" fill="#0f9d58" fill-opacity="0" clip-path="url(#rablfilter15)"/><circle cx="378.52985074626866" cy="353.6920666316444" r="4" fill="#0f9d58" fill-opacity="0" clip-path="url(#rablfilter15)"/><circle cx="389.9925373134328" cy="348.2519905602645" r="4" fill="#0f9d58" fill-opacity="0" clip-path="url(#rablfilter15)"/><circle cx="401.45522388059703" cy="336.76938302555686" r="4" fill="#0f9d58" fill-opacity="0" clip-path="url(#rablfilter15)"/><circle cx="412.9179104477612" cy="332.76300166952603" r="4" fill="#0f9d58" fill-opacity="0" clip-path="url(#rablfilter15)"/><circle cx="424.3805970149254" cy="335.29061071502053" r="4" fill="#0f9d58" fill-opacity="0" clip-path="url(#rablfilter15)"/><circle cx="435.84328358208955" cy="345.5965668488035" r="4" fill="#0f9d58" fill-opacity="0" clip-path="url(#rablfilter15)"/><circle cx="447.3059701492537" cy="329.9264166256786" r="4" fill="#0f9d58" fill-opacity="0" clip-path="url(#rablfilter15)"/><circle cx="458.7686567164179" cy="344.85462898609893" r="4" fill="#0f9d58" fill-opacity="0" clip-path="url(#rablfilter15)"/><circle cx="470.2313432835821" cy="339.96729192370805" r="4" fill="#0f9d58" fill-opacity="0" clip-path="url(#rablfilter15)"/><circle cx="481.69402985074623" cy="337.5985033410969" r="4" fill="#0f9d58" fill-opacity="0" clip-path="url(#rablfilter15)"/><circle cx="493.15671641791045" cy="334.1704323246404" r="4" fill="#0f9d58" fill-opacity="0" clip-path="url(#rablfilter15)"/><circle cx="504.61940298507466" cy="330.3634828289014" r="4" fill="#0f9d58" fill-opacity="0" clip-path="url(#rablfilter15)"/><circle cx="516.0820895522388" cy="328.5323724799621" r="4" fill="#0f9d58" fill-opacity="0" clip-path="url(#rablfilter15)"/><circle cx="527.544776119403" cy="332.7125967146271" r="4" fill="#0f9d58" fill-opacity="0" clip-path="url(#rablfilter15)"/><circle cx="539.0074626865671" cy="335.2681902400186" r="4" fill="#0f9d58" fill-opacity="0" clip-path="url(#rablfilter15)"/><circle cx="550.4701492537313" cy="337.15897885852763" r="4" fill="#0f9d58" fill-opacity="0" clip-path="url(#rablfilter15)"/><circle cx="561.9328358208955" cy="328.89656329708686" r="4" fill="#0f9d58" fill-opacity="0" clip-path="url(#rablfilter15)"/><circle cx="573.3955223880597" cy="333.3904546351355" r="4" fill="#0f9d58" fill-opacity="0" clip-path="url(#rablfilter15)"/><circle cx="584.8582089552239" cy="325.7309699223714" r="4" fill="#0f9d58" fill-opacity="0" clip-path="url(#rablfilter15)"/><circle cx="596.3208955223881" cy="332.23356138279075" r="4" fill="#0f9d58" fill-opacity="0" clip-path="url(#rablfilter15)"/><circle cx="607.7835820895523" cy="325.8944152780948" r="4" fill="#0f9d58" fill-opacity="0" clip-path="url(#rablfilter15)"/><circle cx="619.2462686567164" cy="326.985881701034" r="4" fill="#0f9d58" fill-opacity="0" clip-path="url(#rablfilter15)"/><circle cx="630.7089552238806" cy="324.23678899391166" r="4" fill="#0f9d58" fill-opacity="0" clip-path="url(#rablfilter15)"/><circle cx="642.1716417910447" cy="328.8395168635101" r="4" fill="#0f9d58" fill-opacity="0" clip-path="url(#rablfilter15)"/><circle cx="653.634328358209" cy="334.10011593325555" r="4" fill="#0f9d58" fill-opacity="0" clip-path="url(#rablfilter15)"/><circle cx="665.0970149253731" cy="340.28496060098223" r="4" fill="#0f9d58" fill-opacity="0" clip-path="url(#rablfilter15)"/><circle cx="676.5597014925373" cy="341.9306144334859" r="4" fill="#0f9d58" fill-opacity="0" clip-path="url(#rablfilter15)"/><circle cx="688.0223880597015" cy="345.70356788489505" r="4" fill="#0f9d58" fill-opacity="0" clip-path="url(#rablfilter15)"/><circle cx="699.4850746268656" cy="348.4171008897918" r="4" fill="#0f9d58" fill-opacity="0" clip-path="url(#rablfilter15)"/><circle cx="710.9477611940299" cy="348.7978354518837" r="4" fill="#0f9d58" fill-opacity="0" clip-path="url(#rablfilter15)"/><circle cx="722.4104477611941" cy="344.84889303918897" r="4" fill="#0f9d58" fill-opacity="0" clip-path="url(#rablfilter15)"/><circle cx="733.8731343283582" cy="350.63470912198517" r="4" fill="#0f9d58" fill-opacity="0" clip-path="url(#rablfilter15)"/><circle cx="745.3358208955224" cy="346.92233072322244" r="4" fill="#0f9d58" fill-opacity="0" clip-path="url(#rablfilter15)"/><circle cx="756.7985074626865" cy="342.44495688300225" r="4" fill="#0f9d58" fill-opacity="0" clip-path="url(#rablfilter15)"/><circle cx="768.2611940298508" cy="337.7306637546785" r="4" fill="#0f9d58" fill-opacity="0" clip-path="url(#rablfilter15)"/><circle cx="779.7238805970148" cy="328.5535737956843" r="4" fill="#0f9d58" fill-opacity="0" clip-path="url(#rablfilter15)"/><circle cx="791.1865671641791" cy="313.5014816950837" r="4" fill="#0f9d58" fill-opacity="0" clip-path="url(#rablfilter15)"/><circle cx="802.6492537313434" cy="299.55961748621746" r="4" fill="#0f9d58" fill-opacity="0" clip-path="url(#rablfilter15)"/><circle cx="814.1119402985074" cy="287.221783189651" r="4" fill="#0f9d58" fill-opacity="0" clip-path="url(#rablfilter15)"/><circle cx="825.5746268656717" cy="272.7417947470015" r="4" fill="#0f9d58" fill-opacity="0" clip-path="url(#rablfilter15)"/><circle cx="837.0373134328358" cy="234.29155240672642" r="4" fill="#0f9d58" fill-opacity="0" clip-path="url(#rablfilter15)"/><circle cx="848.5" cy="217.17170606451631" r="4" fill="#0f9d58" fill-opacity="0" clip-path="url(#rablfilter15)"/><path d="M 80.5 474.5 L 91.96268656716418 474.5 L 103.42537313432835 474.5 L 114.88805970149254 474.5 L 126.3507462686567 474.38151515151515 L 137.8134328358209 474.1515834684821 L 149.27611940298507 474.3915515615466 L 160.73880597014926 474.5 L 172.2014925373134 474.5 L 183.66417910447763 474.5 L 195.12686567164178 474.4262557736448 L 206.58955223880596 474.5 L 218.05223880597015 474.3642884166172 L 229.51492537313433 474.37477340712417 L 240.97761194029852 474.31843173311785 L 252.4402985074627 474.44060260254787 L 263.9029850746268 474.38345248900475 L 275.36567164179104 474.38563389097783 L 286.82835820895525 474.4436094020866 L 298.2910447761194 474.44456495541095 L 309.75373134328356 474.13388190852265 L 321.2164179104478 474.2955363119143 L 332.67910447761193 474.20174528589735 L 344.14179104477614 474.06965183255676 L 355.6044776119403 474.31520865825416 L 367.0671641791045 474.22131942068654 L 378.52985074626866 473.9026233800728 L 389.9925373134328 474.19154064011235 L 401.45522388059703 474.2894671094857 L 412.9179104477612 474.3361895425247 L 424.3805970149254 473.8393189229915 L 435.84328358208955 474.052806823413 L 447.3059701492537 474.28749595780357 L 458.7686567164179 473.89386579785713 L 470.2313432835821 473.91760732434506 L 481.69402985074623 473.9924875008011 L 493.15671641791045 473.83762173046017 L 504.61940298507466 474.12586238242415 L 516.0820895522388 474.0428034218416 L 527.544776119403 473.846601828178 L 539.0074626865671 473.7166578738238 L 550.4701492537313 473.5055987298404 L 561.9328358208955 473.47301651228355 L 573.3955223880597 473.20969870969867 L 584.8582089552239 473.338978835861 L 596.3208955223881 473.1052309939489 L 607.7835820895523 473.1434147454919 L 619.2462686567164 473.23230054586827 L 630.7089552238806 473.0094240191956 L 642.1716417910447 472.40167415901277 L 653.634328358209 472.862466560918 L 665.0970149253731 472.58859990498553 L 676.5597014925373 472.4125540388177 L 688.0223880597015 472.1958936355571 L 699.4850746268656 471.20313267344335 L 710.9477611940299 470.40492618245185 L 722.4104477611941 469.1489545097932 L 733.8731343283582 467.3615137895381 L 745.3358208955224 463.89213836341264 L 756.7985074626865 459.0633102839659 L 768.2611940298508 456.3663278711029 L 779.7238805970148 454.57931190039085 L 791.1865671641791 452.85960811261293 L 802.6492537313434 451.8862964007045 L 814.1119402985074 450.27514005409523 L 825.5746268656717 451.3555084467172 L 837.0373134328358 452.2793636807735 L 848.5 451.4942670914773" fill="none" stroke="#ab47bc" stroke-width="2" clip-path="url(#rablfilter15)"/><circle cx="80.5" cy="474.5" r="4" fill="#ab47bc" fill-opacity="0" clip-path="url(#rablfilter15)"/><circle cx="91.96268656716418" cy="474.5" r="4" fill="#ab47bc" fill-opacity="0" clip-path="url(#rablfilter15)"/><circle cx="103.42537313432835" cy="474.5" r="4" fill="#ab47bc" fill-opacity="0" clip-path="url(#rablfilter15)"/><circle cx="114.88805970149254" cy="474.5" r="4" fill="#ab47bc" fill-opacity="0" clip-path="url(#rablfilter15)"/><circle cx="126.3507462686567" cy="474.38151515151515" r="4" fill="#ab47bc" fill-opacity="0" clip-path="url(#rablfilter15)"/><circle cx="137.8134328358209" cy="474.1515834684821" r="4" fill="#ab47bc" fill-opacity="0" clip-path="url(#rablfilter15)"/><circle cx="149.27611940298507" cy="474.3915515615466" r="4" fill="#ab47bc" fill-opacity="0" clip-path="url(#rablfilter15)"/><circle cx="160.73880597014926" cy="474.5" r="4" fill="#ab47bc" fill-opacity="0" clip-path="url(#rablfilter15)"/><circle cx="172.2014925373134" cy="474.5" r="4" fill="#ab47bc" fill-opacity="0" clip-path="url(#rablfilter15)"/><circle cx="183.66417910447763" cy="474.5" r="4" fill="#ab47bc" fill-opacity="0" clip-path="url(#rablfilter15)"/><circle cx="195.12686567164178" cy="474.4262557736448" r="4" fill="#ab47bc" fill-opacity="0" clip-path="url(#rablfilter15)"/><circle cx="206.58955223880596" cy="474.5" r="4" fill="#ab47bc" fill-opacity="0" clip-path="url(#rablfilter15)"/><circle cx="218.05223880597015" cy="474.3642884166172" r="4" fill="#ab47bc" fill-opacity="0" clip-path="url(#rablfilter15)"/><circle cx="229.51492537313433" cy="474.37477340712417" r="4" fill="#ab47bc" fill-opacity="0" clip-path="url(#rablfilter15)"/><circle cx="240.97761194029852" cy="474.31843173311785" r="4" fill="#ab47bc" fill-opacity="0" clip-path="url(#rablfilter15)"/><circle cx="252.4402985074627" cy="474.44060260254787" r="4" fill="#ab47bc" fill-opacity="0" clip-path="url(#rablfilter15)"/><circle cx="263.9029850746268" cy="474.38345248900475" r="4" fill="#ab47bc" fill-opacity="0" clip-path="url(#rablfilter15)"/><circle cx="275.36567164179104" cy="474.38563389097783" r="4" fill="#ab47bc" fill-opacity="0" clip-path="url(#rablfilter15)"/><circle cx="286.82835820895525" cy="474.4436094020866" r="4" fill="#ab47bc" fill-opacity="0" clip-path="url(#rablfilter15)"/><circle cx="298.2910447761194" cy="474.44456495541095" r="4" fill="#ab47bc" fill-opacity="0" clip-path="url(#rablfilter15)"/><circle cx="309.75373134328356" cy="474.13388190852265" r="4" fill="#ab47bc" fill-opacity="0" clip-path="url(#rablfilter15)"/><circle cx="321.2164179104478" cy="474.2955363119143" r="4" fill="#ab47bc" fill-opacity="0" clip-path="url(#rablfilter15)"/><circle cx="332.67910447761193" cy="474.20174528589735" r="4" fill="#ab47bc" fill-opacity="0" clip-path="url(#rablfilter15)"/><circle cx="344.14179104477614" cy="474.06965183255676" r="4" fill="#ab47bc" fill-opacity="0" clip-path="url(#rablfilter15)"/><circle cx="355.6044776119403" cy="474.31520865825416" r="4" fill="#ab47bc" fill-opacity="0" clip-path="url(#rablfilter15)"/><circle cx="367.0671641791045" cy="474.22131942068654" r="4" fill="#ab47bc" fill-opacity="0" clip-path="url(#rablfilter15)"/><circle cx="378.52985074626866" cy="473.9026233800728" r="4" fill="#ab47bc" fill-opacity="0" clip-path="url(#rablfilter15)"/><circle cx="389.9925373134328" cy="474.19154064011235" r="4" fill="#ab47bc" fill-opacity="0" clip-path="url(#rablfilter15)"/><circle cx="401.45522388059703" cy="474.2894671094857" r="4" fill="#ab47bc" fill-opacity="0" clip-path="url(#rablfilter15)"/><circle cx="412.9179104477612" cy="474.3361895425247" r="4" fill="#ab47bc" fill-opacity="0" clip-path="url(#rablfilter15)"/><circle cx="424.3805970149254" cy="473.8393189229915" r="4" fill="#ab47bc" fill-opacity="0" clip-path="url(#rablfilter15)"/><circle cx="435.84328358208955" cy="474.052806823413" r="4" fill="#ab47bc" fill-opacity="0" clip-path="url(#rablfilter15)"/><circle cx="447.3059701492537" cy="474.28749595780357" r="4" fill="#ab47bc" fill-opacity="0" clip-path="url(#rablfilter15)"/><circle cx="458.7686567164179" cy="473.89386579785713" r="4" fill="#ab47bc" fill-opacity="0" clip-path="url(#rablfilter15)"/><circle cx="470.2313432835821" cy="473.91760732434506" r="4" fill="#ab47bc" fill-opacity="0" clip-path="url(#rablfilter15)"/><circle cx="481.69402985074623" cy="473.9924875008011" r="4" fill="#ab47bc" fill-opacity="0" clip-path="url(#rablfilter15)"/><circle cx="493.15671641791045" cy="473.83762173046017" r="4" fill="#ab47bc" fill-opacity="0" clip-path="url(#rablfilter15)"/><circle cx="504.61940298507466" cy="474.12586238242415" r="4" fill="#ab47bc" fill-opacity="0" clip-path="url(#rablfilter15)"/><circle cx="516.0820895522388" cy="474.0428034218416" r="4" fill="#ab47bc" fill-opacity="0" clip-path="url(#rablfilter15)"/><circle cx="527.544776119403" cy="473.846601828178" r="4" fill="#ab47bc" fill-opacity="0" clip-path="url(#rablfilter15)"/><circle cx="539.0074626865671" cy="473.7166578738238" r="4" fill="#ab47bc" fill-opacity="0" clip-path="url(#rablfilter15)"/><circle cx="550.4701492537313" cy="473.5055987298404" r="4" fill="#ab47bc" fill-opacity="0" clip-path="url(#rablfilter15)"/><circle cx="561.9328358208955" cy="473.47301651228355" r="4" fill="#ab47bc" fill-opacity="0" clip-path="url(#rablfilter15)"/><circle cx="573.3955223880597" cy="473.20969870969867" r="4" fill="#ab47bc" fill-opacity="0" clip-path="url(#rablfilter15)"/><circle cx="584.8582089552239" cy="473.338978835861" r="4" fill="#ab47bc" fill-opacity="0" clip-path="url(#rablfilter15)"/><circle cx="596.3208955223881" cy="473.1052309939489" r="4" fill="#ab47bc" fill-opacity="0" clip-path="url(#rablfilter15)"/><circle cx="607.7835820895523" cy="473.1434147454919" r="4" fill="#ab47bc" fill-opacity="0" clip-path="url(#rablfilter15)"/><circle cx="619.2462686567164" cy="473.23230054586827" r="4" fill="#ab47bc" fill-opacity="0" clip-path="url(#rablfilter15)"/><circle cx="630.7089552238806" cy="473.0094240191956" r="4" fill="#ab47bc" fill-opacity="0" clip-path="url(#rablfilter15)"/><circle cx="642.1716417910447" cy="472.40167415901277" r="4" fill="#ab47bc" fill-opacity="0" clip-path="url(#rablfilter15)"/><circle cx="653.634328358209" cy="472.862466560918" r="4" fill="#ab47bc" fill-opacity="0" clip-path="url(#rablfilter15)"/><circle cx="665.0970149253731" cy="472.58859990498553" r="4" fill="#ab47bc" fill-opacity="0" clip-path="url(#rablfilter15)"/><circle cx="676.5597014925373" cy="472.4125540388177" r="4" fill="#ab47bc" fill-opacity="0" clip-path="url(#rablfilter15)"/><circle cx="688.0223880597015" cy="472.1958936355571" r="4" fill="#ab47bc" fill-opacity="0" clip-path="url(#rablfilter15)"/><circle cx="699.4850746268656" cy="471.20313267344335" r="4" fill="#ab47bc" fill-opacity="0" clip-path="url(#rablfilter15)"/><circle cx="710.9477611940299" cy="470.40492618245185" r="4" fill="#ab47bc" fill-opacity="0" clip-path="url(#rablfilter15)"/><circle cx="722.4104477611941" cy="469.1489545097932" r="4" fill="#ab47bc" fill-opacity="0" clip-path="url(#rablfilter15)"/><circle cx="733.8731343283582" cy="467.3615137895381" r="4" fill="#ab47bc" fill-opacity="0" clip-path="url(#rablfilter15)"/><circle cx="745.3358208955224" cy="463.89213836341264" r="4" fill="#ab47bc" fill-opacity="0" clip-path="url(#rablfilter15)"/><circle cx="756.7985074626865" cy="459.0633102839659" r="4" fill="#ab47bc" fill-opacity="0" clip-path="url(#rablfilter15)"/><circle cx="768.2611940298508" cy="456.3663278711029" r="4" fill="#ab47bc" fill-opacity="0" clip-path="url(#rablfilter15)"/><circle cx="779.7238805970148" cy="454.57931190039085" r="4" fill="#ab47bc" fill-opacity="0" clip-path="url(#rablfilter15)"/><circle cx="791.1865671641791" cy="452.85960811261293" r="4" fill="#ab47bc" fill-opacity="0" clip-path="url(#rablfilter15)"/><circle cx="802.6492537313434" cy="451.8862964007045" r="4" fill="#ab47bc" fill-opacity="0" clip-path="url(#rablfilter15)"/><circle cx="814.1119402985074" cy="450.27514005409523" r="4" fill="#ab47bc" fill-opacity="0" clip-path="url(#rablfilter15)"/><circle cx="825.5746268656717" cy="451.3555084467172" r="4" fill="#ab47bc" fill-opacity="0" clip-path="url(#rablfilter15)"/><circle cx="837.0373134328358" cy="452.2793636807735" r="4" fill="#ab47bc" fill-opacity="0" clip-path="url(#rablfilter15)"/><circle cx="848.5" cy="451.4942670914773" r="4" fill="#ab47bc" fill-opacity="0" clip-path="url(#rablfilter15)"/><path d="M 80.5 474.13983714375195 L 91.96268656716418 474.3782113578032 L 103.42537313432835 474.5 L 114.88805970149254 474.5 L 126.3507462686567 474.5 L 137.8134328358209 474.5 L 149.27611940298507 474.5 L 160.73880597014926 474.5 L 172.2014925373134 474.31583403396473 L 183.66417910447763 474.5 L 195.12686567164178 474.2787673209345 L 206.58955223880596 474.42766693490944 L 218.05223880597015 474.2285768332344 L 229.51492537313433 474.3121601106862 L 240.97761194029852 474.1973862218631 L 252.4402985074627 474.14361561528716 L 263.9029850746268 473.97553620052133 L 275.36567164179104 474.15690167293343 L 286.82835820895525 473.99248461877943 L 298.2910447761194 473.7793444203422 L 309.75373134328356 471.62335785267794 L 321.2164179104478 471.53527652275767 L 332.67910447761193 472.4122170012815 L 344.14179104477614 472.34825916278385 L 355.6044776119403 470.8503710005199 L 367.0671641791045 469.9017704413274 L 378.52985074626866 468.8478981345349 L 389.9925373134328 467.75795970531254 L 401.45522388059703 464.31020809910876 L 412.9179104477612 462.58278921867435 L 424.3805970149254 461.4806964236549 L 435.84328358208955 461.6804622711733 L 447.3059701492537 460.5101505554001 L 458.7686567164179 458.06702829745876 L 470.2313432835821 456.67231309522924 L 481.69402985074623 454.29465862564376 L 493.15671641791045 453.9662736442663 L 504.61940298507466 449.0898201396398 L 516.0820895522388 444.8736617353358 L 527.544776119403 441.97859099340525 L 539.0074626865671 441.0774026164829 L 550.4701492537313 442.4234561711373 L 561.9328358208955 439.92488924687876 L 573.3955223880597 437.3283415517458 L 584.8582089552239 441.88586002555 L 596.3208955223881 438.35835400109767 L 607.7835820895523 437.56280149128816 L 619.2462686567164 433.81837206286326 L 630.7089552238806 431.8870631370043 L 642.1716417910447 430.2518084793768 L 653.634328358209 427.1045719392978 L 665.0970149253731 421.20669007809585 L 676.5597014925373 418.6028359283406 L 688.0223880597015 417.23984318634643 L 699.4850746268656 418.1265388666254 L 710.9477611940299 415.7716609611761 L 722.4104477611941 414.3358584621374 L 733.8731343283582 414.35496542944156 L 745.3358208955224 409.96884171076033 L 756.7985074626865 406.12670696504495 L 768.2611940298508 404.91850951683205 L 779.7238805970148 400.79142544813664 L 791.1865671641791 400.09303593085014 L 802.6492537313434 396.7358610555569 L 814.1119402985074 396.0865011773788 L 825.5746268656717 400.4185256609503 L 837.0373134328358 397.6212856153853 L 848.5 396.70924126993276" fill="none" stroke="#00acc1" stroke-width="2" clip-path="url(#rablfilter15)"/><circle cx="80.5" cy="474.13983714375195" r="4" fill="#00acc1" fill-opacity="0" clip-path="url(#rablfilter15)"/><circle cx="91.96268656716418" cy="474.3782113578032" r="4" fill="#00acc1" fill-opacity="0" clip-path="url(#rablfilter15)"/><circle cx="103.42537313432835" cy="474.5" r="4" fill="#00acc1" fill-opacity="0" clip-path="url(#rablfilter15)"/><circle cx="114.88805970149254" cy="474.5" r="4" fill="#00acc1" fill-opacity="0" clip-path="url(#rablfilter15)"/><circle cx="126.3507462686567" cy="474.5" r="4" fill="#00acc1" fill-opacity="0" clip-path="url(#rablfilter15)"/><circle cx="137.8134328358209" cy="474.5" r="4" fill="#00acc1" fill-opacity="0" clip-path="url(#rablfilter15)"/><circle cx="149.27611940298507" cy="474.5" r="4" fill="#00acc1" fill-opacity="0" clip-path="url(#rablfilter15)"/><circle cx="160.73880597014926" cy="474.5" r="4" fill="#00acc1" fill-opacity="0" clip-path="url(#rablfilter15)"/><circle cx="172.2014925373134" cy="474.31583403396473" r="4" fill="#00acc1" fill-opacity="0" clip-path="url(#rablfilter15)"/><circle cx="183.66417910447763" cy="474.5" r="4" fill="#00acc1" fill-opacity="0" clip-path="url(#rablfilter15)"/><circle cx="195.12686567164178" cy="474.2787673209345" r="4" fill="#00acc1" fill-opacity="0" clip-path="url(#rablfilter15)"/><circle cx="206.58955223880596" cy="474.42766693490944" r="4" fill="#00acc1" fill-opacity="0" clip-path="url(#rablfilter15)"/><circle cx="218.05223880597015" cy="474.2285768332344" r="4" fill="#00acc1" fill-opacity="0" clip-path="url(#rablfilter15)"/><circle cx="229.51492537313433" cy="474.3121601106862" r="4" fill="#00acc1" fill-opacity="0" clip-path="url(#rablfilter15)"/><circle cx="240.97761194029852" cy="474.1973862218631" r="4" fill="#00acc1" fill-opacity="0" clip-path="url(#rablfilter15)"/><circle cx="252.4402985074627" cy="474.14361561528716" r="4" fill="#00acc1" fill-opacity="0" clip-path="url(#rablfilter15)"/><circle cx="263.9029850746268" cy="473.97553620052133" r="4" fill="#00acc1" fill-opacity="0" clip-path="url(#rablfilter15)"/><circle cx="275.36567164179104" cy="474.15690167293343" r="4" fill="#00acc1" fill-opacity="0" clip-path="url(#rablfilter15)"/><circle cx="286.82835820895525" cy="473.99248461877943" r="4" fill="#00acc1" fill-opacity="0" clip-path="url(#rablfilter15)"/><circle cx="298.2910447761194" cy="473.7793444203422" r="4" fill="#00acc1" fill-opacity="0" clip-path="url(#rablfilter15)"/><circle cx="309.75373134328356" cy="471.62335785267794" r="4" fill="#00acc1" fill-opacity="0" clip-path="url(#rablfilter15)"/><circle cx="321.2164179104478" cy="471.53527652275767" r="4" fill="#00acc1" fill-opacity="0" clip-path="url(#rablfilter15)"/><circle cx="332.67910447761193" cy="472.4122170012815" r="4" fill="#00acc1" fill-opacity="0" clip-path="url(#rablfilter15)"/><circle cx="344.14179104477614" cy="472.34825916278385" r="4" fill="#00acc1" fill-opacity="0" clip-path="url(#rablfilter15)"/><circle cx="355.6044776119403" cy="470.8503710005199" r="4" fill="#00acc1" fill-opacity="0" clip-path="url(#rablfilter15)"/><circle cx="367.0671641791045" cy="469.9017704413274" r="4" fill="#00acc1" fill-opacity="0" clip-path="url(#rablfilter15)"/><circle cx="378.52985074626866" cy="468.8478981345349" r="4" fill="#00acc1" fill-opacity="0" clip-path="url(#rablfilter15)"/><circle cx="389.9925373134328" cy="467.75795970531254" r="4" fill="#00acc1" fill-opacity="0" clip-path="url(#rablfilter15)"/><circle cx="401.45522388059703" cy="464.31020809910876" r="4" fill="#00acc1" fill-opacity="0" clip-path="url(#rablfilter15)"/><circle cx="412.9179104477612" cy="462.58278921867435" r="4" fill="#00acc1" fill-opacity="0" clip-path="url(#rablfilter15)"/><circle cx="424.3805970149254" cy="461.4806964236549" r="4" fill="#00acc1" fill-opacity="0" clip-path="url(#rablfilter15)"/><circle cx="435.84328358208955" cy="461.6804622711733" r="4" fill="#00acc1" fill-opacity="0" clip-path="url(#rablfilter15)"/><circle cx="447.3059701492537" cy="460.5101505554001" r="4" fill="#00acc1" fill-opacity="0" clip-path="url(#rablfilter15)"/><circle cx="458.7686567164179" cy="458.06702829745876" r="4" fill="#00acc1" fill-opacity="0" clip-path="url(#rablfilter15)"/><circle cx="470.2313432835821" cy="456.67231309522924" r="4" fill="#00acc1" fill-opacity="0" clip-path="url(#rablfilter15)"/><circle cx="481.69402985074623" cy="454.29465862564376" r="4" fill="#00acc1" fill-opacity="0" clip-path="url(#rablfilter15)"/><circle cx="493.15671641791045" cy="453.9662736442663" r="4" fill="#00acc1" fill-opacity="0" clip-path="url(#rablfilter15)"/><circle cx="504.61940298507466" cy="449.0898201396398" r="4" fill="#00acc1" fill-opacity="0" clip-path="url(#rablfilter15)"/><circle cx="516.0820895522388" cy="444.8736617353358" r="4" fill="#00acc1" fill-opacity="0" clip-path="url(#rablfilter15)"/><circle cx="527.544776119403" cy="441.97859099340525" r="4" fill="#00acc1" fill-opacity="0" clip-path="url(#rablfilter15)"/><circle cx="539.0074626865671" cy="441.0774026164829" r="4" fill="#00acc1" fill-opacity="0" clip-path="url(#rablfilter15)"/><circle cx="550.4701492537313" cy="442.4234561711373" r="4" fill="#00acc1" fill-opacity="0" clip-path="url(#rablfilter15)"/><circle cx="561.9328358208955" cy="439.92488924687876" r="4" fill="#00acc1" fill-opacity="0" clip-path="url(#rablfilter15)"/><circle cx="573.3955223880597" cy="437.3283415517458" r="4" fill="#00acc1" fill-opacity="0" clip-path="url(#rablfilter15)"/><circle cx="584.8582089552239" cy="441.88586002555" r="4" fill="#00acc1" fill-opacity="0" clip-path="url(#rablfilter15)"/><circle cx="596.3208955223881" cy="438.35835400109767" r="4" fill="#00acc1" fill-opacity="0" clip-path="url(#rablfilter15)"/><circle cx="607.7835820895523" cy="437.56280149128816" r="4" fill="#00acc1" fill-opacity="0" clip-path="url(#rablfilter15)"/><circle cx="619.2462686567164" cy="433.81837206286326" r="4" fill="#00acc1" fill-opacity="0" clip-path="url(#rablfilter15)"/><circle cx="630.7089552238806" cy="431.8870631370043" r="4" fill="#00acc1" fill-opacity="0" clip-path="url(#rablfilter15)"/><circle cx="642.1716417910447" cy="430.2518084793768" r="4" fill="#00acc1" fill-opacity="0" clip-path="url(#rablfilter15)"/><circle cx="653.634328358209" cy="427.1045719392978" r="4" fill="#00acc1" fill-opacity="0" clip-path="url(#rablfilter15)"/><circle cx="665.0970149253731" cy="421.20669007809585" r="4" fill="#00acc1" fill-opacity="0" clip-path="url(#rablfilter15)"/><circle cx="676.5597014925373" cy="418.6028359283406" r="4" fill="#00acc1" fill-opacity="0" clip-path="url(#rablfilter15)"/><circle cx="688.0223880597015" cy="417.23984318634643" r="4" fill="#00acc1" fill-opacity="0" clip-path="url(#rablfilter15)"/><circle cx="699.4850746268656" cy="418.1265388666254" r="4" fill="#00acc1" fill-opacity="0" clip-path="url(#rablfilter15)"/><circle cx="710.9477611940299" cy="415.7716609611761" r="4" fill="#00acc1" fill-opacity="0" clip-path="url(#rablfilter15)"/><circle cx="722.4104477611941" cy="414.3358584621374" r="4" fill="#00acc1" fill-opacity="0" clip-path="url(#rablfilter15)"/><circle cx="733.8731343283582" cy="414.35496542944156" r="4" fill="#00acc1" fill-opacity="0" clip-path="url(#rablfilter15)"/><circle cx="745.3358208955224" cy="409.96884171076033" r="4" fill="#00acc1" fill-opacity="0" clip-path="url(#rablfilter15)"/><circle cx="756.7985074626865" cy="406.12670696504495" r="4" fill="#00acc1" fill-opacity="0" clip-path="url(#rablfilter15)"/><circle cx="768.2611940298508" cy="404.91850951683205" r="4" fill="#00acc1" fill-opacity="0" clip-path="url(#rablfilter15)"/><circle cx="779.7238805970148" cy="400.79142544813664" r="4" fill="#00acc1" fill-opacity="0" clip-path="url(#rablfilter15)"/><circle cx="791.1865671641791" cy="400.09303593085014" r="4" fill="#00acc1" fill-opacity="0" clip-path="url(#rablfilter15)"/><circle cx="802.6492537313434" cy="396.7358610555569" r="4" fill="#00acc1" fill-opacity="0" clip-path="url(#rablfilter15)"/><circle cx="814.1119402985074" cy="396.0865011773788" r="4" fill="#00acc1" fill-opacity="0" clip-path="url(#rablfilter15)"/><circle cx="825.5746268656717" cy="400.4185256609503" r="4" fill="#00acc1" fill-opacity="0" clip-path="url(#rablfilter15)"/><circle cx="837.0373134328358" cy="397.6212856153853" r="4" fill="#00acc1" fill-opacity="0" clip-path="url(#rablfilter15)"/><circle cx="848.5" cy="396.70924126993276" r="4" fill="#00acc1" fill-opacity="0" clip-path="url(#rablfilter15)"/><path d="M 80.5 471.4986428645996 L 91.96268656716418 471.8206498716703 L 103.42537313432835 470.99418536882786 L 114.88805970149254 470.3329146455465 L 126.3507462686567 469.8790909090909 L 137.8134328358209 470.0867239341068 L 149.27611940298507 470.0536140234093 L 160.73880597014926 469.0043346354478 L 172.2014925373134 469.3433529510123 L 183.66417910447763 468.952532231201 L 195.12686567164178 471.18150981401743 L 206.58955223880596 471.8236765916512 L 218.05223880597015 469.885806164985 L 229.51492537313433 469.303096395652 L 240.97761194029852 469.4766112829277 L 252.4402985074627 467.84749148536025 L 263.9029850746268 462.0876900790049 L 275.36567164179104 458.1456464098256 L 286.82835820895525 455.8911026885768 L 298.2910447761194 455.4857797059533 L 309.75373134328356 449.29015427255933 L 321.2164179104478 449.4020822874833 L 332.67910447761193 449.64544049144644 L 344.14179104477614 444.23217888982646 L 355.6044776119403 439.02006238480084 L 367.0671641791045 432.0476584179116 L 378.52985074626866 429.46699326702606 L 389.9925373134328 420.6077432653415 L 401.45522388059703 418.83510374802387 L 412.9179104477612 405.1672238735936 L 424.3805970149254 398.9103120716681 L 435.84328358208955 407.04836253146414 L 447.3059701492537 410.00502319337596 L 458.7686567164179 409.84568510475583 L 470.2313432835821 401.5067846512471 L 481.69402985074623 398.37312512016507 L 493.15671641791045 393.78447658322204 L 504.61940298507466 388.1365666095732 L 516.0820895522388 376.0808166084355 L 527.544776119403 371.8867871070458 L 539.0074626865671 359.49377080880055 L 550.4701492537313 349.77366925712374 L 561.9328358208955 346.12706403544104 L 573.3955223880597 341.5715138800245 L 584.8582089552239 333.8053443820653 L 596.3208955223881 327.7311491527312 L 607.7835820895523 314.66093738111545 L 619.2462686567164 296.9990273405723 L 630.7089552238806 286.79702759370764 L 642.1716417910447 275.70909168589253 L 653.634328358209 262.3091612971389 L 665.0970149253731 251.19633980880667 L 676.5597014925373 233.10178491756102 L 688.0223880597015 220.47227332017792 L 699.4850746268656 212.90397316533372 L 710.9477611940299 189.25597307362295 L 722.4104477611941 184.0493375088923 L 733.8731343283582 171.14422921370442 L 745.3358208955224 159.04078135212728 L 756.7985074626865 158.02624080769274 L 768.2611940298508 147.0887781389936 L 779.7238805970148 140.83861724809444 L 791.1865671641791 135.6204590493837 L 802.6492537313434 146.11430760477174 L 814.1119402985074 145.91929715742577 L 825.5746268656717 163.5615557071343 L 837.0373134328358 169.9220162796064 L 848.5 196.456969932987" fill="none" stroke="#ff7043" stroke-width="2" clip-path="url(#rablfilter15)"/><circle cx="80.5" cy="471.4986428645996" r="4" fill="#ff7043" fill-opacity="0" clip-path="url(#rablfilter15)"/><circle cx="91.96268656716418" cy="471.8206498716703" r="4" fill="#ff7043" fill-opacity="0" clip-path="url(#rablfilter15)"/><circle cx="103.42537313432835" cy="470.99418536882786" r="4" fill="#ff7043" fill-opacity="0" clip-path="url(#rablfilter15)"/><circle cx="114.88805970149254" cy="470.3329146455465" r="4" fill="#ff7043" fill-opacity="0" clip-path="url(#rablfilter15)"/><circle cx="126.3507462686567" cy="469.8790909090909" r="4" fill="#ff7043" fill-opacity="0" clip-path="url(#rablfilter15)"/><circle cx="137.8134328358209" cy="470.0867239341068" r="4" fill="#ff7043" fill-opacity="0" clip-path="url(#rablfilter15)"/><circle cx="149.27611940298507" cy="470.0536140234093" r="4" fill="#ff7043" fill-opacity="0" clip-path="url(#rablfilter15)"/><circle cx="160.73880597014926" cy="469.0043346354478" r="4" fill="#ff7043" fill-opacity="0" clip-path="url(#rablfilter15)"/><circle cx="172.2014925373134" cy="469.3433529510123" r="4" fill="#ff7043" fill-opacity="0" clip-path="url(#rablfilter15)"/><circle cx="183.66417910447763" cy="468.952532231201" r="4" fill="#ff7043" fill-opacity="0" clip-path="url(#rablfilter15)"/><circle cx="195.12686567164178" cy="471.18150981401743" r="4" fill="#ff7043" fill-opacity="0" clip-path="url(#rablfilter15)"/><circle cx="206.58955223880596" cy="471.8236765916512" r="4" fill="#ff7043" fill-opacity="0" clip-path="url(#rablfilter15)"/><circle cx="218.05223880597015" cy="469.885806164985" r="4" fill="#ff7043" fill-opacity="0" clip-path="url(#rablfilter15)"/><circle cx="229.51492537313433" cy="469.303096395652" r="4" fill="#ff7043" fill-opacity="0" clip-path="url(#rablfilter15)"/><circle cx="240.97761194029852" cy="469.4766112829277" r="4" fill="#ff7043" fill-opacity="0" clip-path="url(#rablfilter15)"/><circle cx="252.4402985074627" cy="467.84749148536025" r="4" fill="#ff7043" fill-opacity="0" clip-path="url(#rablfilter15)"/><circle cx="263.9029850746268" cy="462.0876900790049" r="4" fill="#ff7043" fill-opacity="0" clip-path="url(#rablfilter15)"/><circle cx="275.36567164179104" cy="458.1456464098256" r="4" fill="#ff7043" fill-opacity="0" clip-path="url(#rablfilter15)"/><circle cx="286.82835820895525" cy="455.8911026885768" r="4" fill="#ff7043" fill-opacity="0" clip-path="url(#rablfilter15)"/><circle cx="298.2910447761194" cy="455.4857797059533" r="4" fill="#ff7043" fill-opacity="0" clip-path="url(#rablfilter15)"/><circle cx="309.75373134328356" cy="449.29015427255933" r="4" fill="#ff7043" fill-opacity="0" clip-path="url(#rablfilter15)"/><circle cx="321.2164179104478" cy="449.4020822874833" r="4" fill="#ff7043" fill-opacity="0" clip-path="url(#rablfilter15)"/><circle cx="332.67910447761193" cy="449.64544049144644" r="4" fill="#ff7043" fill-opacity="0" clip-path="url(#rablfilter15)"/><circle cx="344.14179104477614" cy="444.23217888982646" r="4" fill="#ff7043" fill-opacity="0" clip-path="url(#rablfilter15)"/><circle cx="355.6044776119403" cy="439.02006238480084" r="4" fill="#ff7043" fill-opacity="0" clip-path="url(#rablfilter15)"/><circle cx="367.0671641791045" cy="432.0476584179116" r="4" fill="#ff7043" fill-opacity="0" clip-path="url(#rablfilter15)"/><circle cx="378.52985074626866" cy="429.46699326702606" r="4" fill="#ff7043" fill-opacity="0" clip-path="url(#rablfilter15)"/><circle cx="389.9925373134328" cy="420.6077432653415" r="4" fill="#ff7043" fill-opacity="0" clip-path="url(#rablfilter15)"/><circle cx="401.45522388059703" cy="418.83510374802387" r="4" fill="#ff7043" fill-opacity="0" clip-path="url(#rablfilter15)"/><circle cx="412.9179104477612" cy="405.1672238735936" r="4" fill="#ff7043" fill-opacity="0" clip-path="url(#rablfilter15)"/><circle cx="424.3805970149254" cy="398.9103120716681" r="4" fill="#ff7043" fill-opacity="0" clip-path="url(#rablfilter15)"/><circle cx="435.84328358208955" cy="407.04836253146414" r="4" fill="#ff7043" fill-opacity="0" clip-path="url(#rablfilter15)"/><circle cx="447.3059701492537" cy="410.00502319337596" r="4" fill="#ff7043" fill-opacity="0" clip-path="url(#rablfilter15)"/><circle cx="458.7686567164179" cy="409.84568510475583" r="4" fill="#ff7043" fill-opacity="0" clip-path="url(#rablfilter15)"/><circle cx="470.2313432835821" cy="401.5067846512471" r="4" fill="#ff7043" fill-opacity="0" clip-path="url(#rablfilter15)"/><circle cx="481.69402985074623" cy="398.37312512016507" r="4" fill="#ff7043" fill-opacity="0" clip-path="url(#rablfilter15)"/><circle cx="493.15671641791045" cy="393.78447658322204" r="4" fill="#ff7043" fill-opacity="0" clip-path="url(#rablfilter15)"/><circle cx="504.61940298507466" cy="388.1365666095732" r="4" fill="#ff7043" fill-opacity="0" clip-path="url(#rablfilter15)"/><circle cx="516.0820895522388" cy="376.0808166084355" r="4" fill="#ff7043" fill-opacity="0" clip-path="url(#rablfilter15)"/><circle cx="527.544776119403" cy="371.8867871070458" r="4" fill="#ff7043" fill-opacity="0" clip-path="url(#rablfilter15)"/><circle cx="539.0074626865671" cy="359.49377080880055" r="4" fill="#ff7043" fill-opacity="0" clip-path="url(#rablfilter15)"/><circle cx="550.4701492537313" cy="349.77366925712374" r="4" fill="#ff7043" fill-opacity="0" clip-path="url(#rablfilter15)"/><circle cx="561.9328358208955" cy="346.12706403544104" r="4" fill="#ff7043" fill-opacity="0" clip-path="url(#rablfilter15)"/><circle cx="573.3955223880597" cy="341.5715138800245" r="4" fill="#ff7043" fill-opacity="0" clip-path="url(#rablfilter15)"/><circle cx="584.8582089552239" cy="333.8053443820653" r="4" fill="#ff7043" fill-opacity="0" clip-path="url(#rablfilter15)"/><circle cx="596.3208955223881" cy="327.7311491527312" r="4" fill="#ff7043" fill-opacity="0" clip-path="url(#rablfilter15)"/><circle cx="607.7835820895523" cy="314.66093738111545" r="4" fill="#ff7043" fill-opacity="0" clip-path="url(#rablfilter15)"/><circle cx="619.2462686567164" cy="296.9990273405723" r="4" fill="#ff7043" fill-opacity="0" clip-path="url(#rablfilter15)"/><circle cx="630.7089552238806" cy="286.79702759370764" r="4" fill="#ff7043" fill-opacity="0" clip-path="url(#rablfilter15)"/><circle cx="642.1716417910447" cy="275.70909168589253" r="4" fill="#ff7043" fill-opacity="0" clip-path="url(#rablfilter15)"/><circle cx="653.634328358209" cy="262.3091612971389" r="4" fill="#ff7043" fill-opacity="0" clip-path="url(#rablfilter15)"/><circle cx="665.0970149253731" cy="251.19633980880667" r="4" fill="#ff7043" fill-opacity="0" clip-path="url(#rablfilter15)"/><circle cx="676.5597014925373" cy="233.10178491756102" r="4" fill="#ff7043" fill-opacity="0" clip-path="url(#rablfilter15)"/><circle cx="688.0223880597015" cy="220.47227332017792" r="4" fill="#ff7043" fill-opacity="0" clip-path="url(#rablfilter15)"/><circle cx="699.4850746268656" cy="212.90397316533372" r="4" fill="#ff7043" fill-opacity="0" clip-path="url(#rablfilter15)"/><circle cx="710.9477611940299" cy="189.25597307362295" r="4" fill="#ff7043" fill-opacity="0" clip-path="url(#rablfilter15)"/><circle cx="722.4104477611941" cy="184.0493375088923" r="4" fill="#ff7043" fill-opacity="0" clip-path="url(#rablfilter15)"/><circle cx="733.8731343283582" cy="171.14422921370442" r="4" fill="#ff7043" fill-opacity="0" clip-path="url(#rablfilter15)"/><circle cx="745.3358208955224" cy="159.04078135212728" r="4" fill="#ff7043" fill-opacity="0" clip-path="url(#rablfilter15)"/><circle cx="756.7985074626865" cy="158.02624080769274" r="4" fill="#ff7043" fill-opacity="0" clip-path="url(#rablfilter15)"/><circle cx="768.2611940298508" cy="147.0887781389936" r="4" fill="#ff7043" fill-opacity="0" clip-path="url(#rablfilter15)"/><circle cx="779.7238805970148" cy="140.83861724809444" r="4" fill="#ff7043" fill-opacity="0" clip-path="url(#rablfilter15)"/><circle cx="791.1865671641791" cy="135.6204590493837" r="4" fill="#ff7043" fill-opacity="0" clip-path="url(#rablfilter15)"/><circle cx="802.6492537313434" cy="146.11430760477174" r="4" fill="#ff7043" fill-opacity="0" clip-path="url(#rablfilter15)"/><circle cx="814.1119402985074" cy="145.91929715742577" r="4" fill="#ff7043" fill-opacity="0" clip-path="url(#rablfilter15)"/><circle cx="825.5746268656717" cy="163.5615557071343" r="4" fill="#ff7043" fill-opacity="0" clip-path="url(#rablfilter15)"/><circle cx="837.0373134328358" cy="169.9220162796064" r="4" fill="#ff7043" fill-opacity="0" clip-path="url(#rablfilter15)"/><circle cx="848.5" cy="196.456969932987" r="4" fill="#ff7043" fill-opacity="0" clip-path="url(#rablfilter15)"/><path d="M 80.5 474.379945714584 L 91.96268656716418 474.5 L 103.42537313432835 474.5 L 114.88805970149254 474.1428212553326 L 126.3507462686567 474.2630303030303 L 137.8134328358209 474.38386115616066 L 149.27611940298507 474.17465468463973 L 160.73880597014926 474.39630820066884 L 172.2014925373134 474.13166806792947 L 183.66417910447763 473.77641724754795 L 195.12686567164178 474.05753464186904 L 206.58955223880596 473.63200321891384 L 218.05223880597015 473.5500189163204 L 229.51492537313433 473.4355739605552 L 240.97761194029852 472.38170355304175 L 252.4402985074627 471.47073272994083 L 263.9029850746268 472.0525022690996 L 275.36567164179104 470.49718618422304 L 286.82835820895525 469.53762738362053 L 298.2910447761194 468.2358399614365 L 309.75373134328356 453.47436103230046 L 321.2164179104478 450.6288644159973 L 332.67910447761193 445.3207471369581 L 344.14179104477614 440.6937606241821 L 355.6044776119403 427.70159270286877 L 367.0671641791045 416.2093121602615 L 378.52985074626866 403.4121822286626 L 389.9925373134328 394.56496016625476 L 401.45522388059703 383.5076847197274 L 412.9179104477612 351.10977290675584 L 424.3805970149254 362.9614887638495 L 435.84328358208955 361.6209890098369 L 447.3059701492537 364.3874888018703 L 458.7686567164179 366.5407637738787 L 470.2313432835821 361.58053122023597 L 481.69402985074623 342.92738458268536 L 493.15671641791045 338.42857834311053 L 504.61940298507466 351.6581488959272 L 516.0820895522388 351.5446002472681 L 527.544776119403 364.72910713390485 L 539.0074626865671 371.301928044123 L 550.4701492537313 377.70213921617784 L 561.9328358208955 383.46932474157603 L 573.3955223880597 387.4183895141342 L 584.8582089552239 390.53706035703897 L 596.3208955223881 397.1514942433783 L 607.7835820895523 402.7437799589135 L 619.2462686567164 405.0070208325965 L 630.7089552238806 405.56086088779756 L 642.1716417910447 406.72203812655914 L 653.634328358209 408.8684040949758 L 665.0970149253731 411.80607688352455 L 676.5597014925373 412.970045239436 L 688.0223880597015 419.2792886846033 L 699.4850746268656 421.8689288048789 L 710.9477611940299 423.57443674866647 L 722.4104477611941 423.4798884644956 L 733.8731343283582 425.30781864348364 L 745.3358208955224 427.61461154854504 L 756.7985074626865 433.08686393408493 L 768.2611940298508 435.62140695564466 L 779.7238805970148 439.34465124580174 L 791.1865671641791 442.5042058052997 L 802.6492537313434 444.72127218992557 L 814.1119402985074 445.3455557978291 L 825.5746268656717 449.3180291352865 L 837.0373134328358 451.9864086864527 L 848.5 453.9178617526697" fill="none" stroke="#9e9d24" stroke-width="2" clip-path="url(#rablfilter15)"/><circle cx="80.5" cy="474.379945714584" r="4" fill="#9e9d24" fill-opacity="0" clip-path="url(#rablfilter15)"/><circle cx="91.96268656716418" cy="474.5" r="4" fill="#9e9d24" fill-opacity="0" clip-path="url(#rablfilter15)"/><circle cx="103.42537313432835" cy="474.5" r="4" fill="#9e9d24" fill-opacity="0" clip-path="url(#rablfilter15)"/><circle cx="114.88805970149254" cy="474.1428212553326" r="4" fill="#9e9d24" fill-opacity="0" clip-path="url(#rablfilter15)"/><circle cx="126.3507462686567" cy="474.2630303030303" r="4" fill="#9e9d24" fill-opacity="0" clip-path="url(#rablfilter15)"/><circle cx="137.8134328358209" cy="474.38386115616066" r="4" fill="#9e9d24" fill-opacity="0" clip-path="url(#rablfilter15)"/><circle cx="149.27611940298507" cy="474.17465468463973" r="4" fill="#9e9d24" fill-opacity="0" clip-path="url(#rablfilter15)"/><circle cx="160.73880597014926" cy="474.39630820066884" r="4" fill="#9e9d24" fill-opacity="0" clip-path="url(#rablfilter15)"/><circle cx="172.2014925373134" cy="474.13166806792947" r="4" fill="#9e9d24" fill-opacity="0" clip-path="url(#rablfilter15)"/><circle cx="183.66417910447763" cy="473.77641724754795" r="4" fill="#9e9d24" fill-opacity="0" clip-path="url(#rablfilter15)"/><circle cx="195.12686567164178" cy="474.05753464186904" r="4" fill="#9e9d24" fill-opacity="0" clip-path="url(#rablfilter15)"/><circle cx="206.58955223880596" cy="473.63200321891384" r="4" fill="#9e9d24" fill-opacity="0" clip-path="url(#rablfilter15)"/><circle cx="218.05223880597015" cy="473.5500189163204" r="4" fill="#9e9d24" fill-opacity="0" clip-path="url(#rablfilter15)"/><circle cx="229.51492537313433" cy="473.4355739605552" r="4" fill="#9e9d24" fill-opacity="0" clip-path="url(#rablfilter15)"/><circle cx="240.97761194029852" cy="472.38170355304175" r="4" fill="#9e9d24" fill-opacity="0" clip-path="url(#rablfilter15)"/><circle cx="252.4402985074627" cy="471.47073272994083" r="4" fill="#9e9d24" fill-opacity="0" clip-path="url(#rablfilter15)"/><circle cx="263.9029850746268" cy="472.0525022690996" r="4" fill="#9e9d24" fill-opacity="0" clip-path="url(#rablfilter15)"/><circle cx="275.36567164179104" cy="470.49718618422304" r="4" fill="#9e9d24" fill-opacity="0" clip-path="url(#rablfilter15)"/><circle cx="286.82835820895525" cy="469.53762738362053" r="4" fill="#9e9d24" fill-opacity="0" clip-path="url(#rablfilter15)"/><circle cx="298.2910447761194" cy="468.2358399614365" r="4" fill="#9e9d24" fill-opacity="0" clip-path="url(#rablfilter15)"/><circle cx="309.75373134328356" cy="453.47436103230046" r="4" fill="#9e9d24" fill-opacity="0" clip-path="url(#rablfilter15)"/><circle cx="321.2164179104478" cy="450.6288644159973" r="4" fill="#9e9d24" fill-opacity="0" clip-path="url(#rablfilter15)"/><circle cx="332.67910447761193" cy="445.3207471369581" r="4" fill="#9e9d24" fill-opacity="0" clip-path="url(#rablfilter15)"/><circle cx="344.14179104477614" cy="440.6937606241821" r="4" fill="#9e9d24" fill-opacity="0" clip-path="url(#rablfilter15)"/><circle cx="355.6044776119403" cy="427.70159270286877" r="4" fill="#9e9d24" fill-opacity="0" clip-path="url(#rablfilter15)"/><circle cx="367.0671641791045" cy="416.2093121602615" r="4" fill="#9e9d24" fill-opacity="0" clip-path="url(#rablfilter15)"/><circle cx="378.52985074626866" cy="403.4121822286626" r="4" fill="#9e9d24" fill-opacity="0" clip-path="url(#rablfilter15)"/><circle cx="389.9925373134328" cy="394.56496016625476" r="4" fill="#9e9d24" fill-opacity="0" clip-path="url(#rablfilter15)"/><circle cx="401.45522388059703" cy="383.5076847197274" r="4" fill="#9e9d24" fill-opacity="0" clip-path="url(#rablfilter15)"/><circle cx="412.9179104477612" cy="351.10977290675584" r="4" fill="#9e9d24" fill-opacity="0" clip-path="url(#rablfilter15)"/><circle cx="424.3805970149254" cy="362.9614887638495" r="4" fill="#9e9d24" fill-opacity="0" clip-path="url(#rablfilter15)"/><circle cx="435.84328358208955" cy="361.6209890098369" r="4" fill="#9e9d24" fill-opacity="0" clip-path="url(#rablfilter15)"/><circle cx="447.3059701492537" cy="364.3874888018703" r="4" fill="#9e9d24" fill-opacity="0" clip-path="url(#rablfilter15)"/><circle cx="458.7686567164179" cy="366.5407637738787" r="4" fill="#9e9d24" fill-opacity="0" clip-path="url(#rablfilter15)"/><circle cx="470.2313432835821" cy="361.58053122023597" r="4" fill="#9e9d24" fill-opacity="0" clip-path="url(#rablfilter15)"/><circle cx="481.69402985074623" cy="342.92738458268536" r="4" fill="#9e9d24" fill-opacity="0" clip-path="url(#rablfilter15)"/><circle cx="493.15671641791045" cy="338.42857834311053" r="4" fill="#9e9d24" fill-opacity="0" clip-path="url(#rablfilter15)"/><circle cx="504.61940298507466" cy="351.6581488959272" r="4" fill="#9e9d24" fill-opacity="0" clip-path="url(#rablfilter15)"/><circle cx="516.0820895522388" cy="351.5446002472681" r="4" fill="#9e9d24" fill-opacity="0" clip-path="url(#rablfilter15)"/><circle cx="527.544776119403" cy="364.72910713390485" r="4" fill="#9e9d24" fill-opacity="0" clip-path="url(#rablfilter15)"/><circle cx="539.0074626865671" cy="371.301928044123" r="4" fill="#9e9d24" fill-opacity="0" clip-path="url(#rablfilter15)"/><circle cx="550.4701492537313" cy="377.70213921617784" r="4" fill="#9e9d24" fill-opacity="0" clip-path="url(#rablfilter15)"/><circle cx="561.9328358208955" cy="383.46932474157603" r="4" fill="#9e9d24" fill-opacity="0" clip-path="url(#rablfilter15)"/><circle cx="573.3955223880597" cy="387.4183895141342" r="4" fill="#9e9d24" fill-opacity="0" clip-path="url(#rablfilter15)"/><circle cx="584.8582089552239" cy="390.53706035703897" r="4" fill="#9e9d24" fill-opacity="0" clip-path="url(#rablfilter15)"/><circle cx="596.3208955223881" cy="397.1514942433783" r="4" fill="#9e9d24" fill-opacity="0" clip-path="url(#rablfilter15)"/><circle cx="607.7835820895523" cy="402.7437799589135" r="4" fill="#9e9d24" fill-opacity="0" clip-path="url(#rablfilter15)"/><circle cx="619.2462686567164" cy="405.0070208325965" r="4" fill="#9e9d24" fill-opacity="0" clip-path="url(#rablfilter15)"/><circle cx="630.7089552238806" cy="405.56086088779756" r="4" fill="#9e9d24" fill-opacity="0" clip-path="url(#rablfilter15)"/><circle cx="642.1716417910447" cy="406.72203812655914" r="4" fill="#9e9d24" fill-opacity="0" clip-path="url(#rablfilter15)"/><circle cx="653.634328358209" cy="408.8684040949758" r="4" fill="#9e9d24" fill-opacity="0" clip-path="url(#rablfilter15)"/><circle cx="665.0970149253731" cy="411.80607688352455" r="4" fill="#9e9d24" fill-opacity="0" clip-path="url(#rablfilter15)"/><circle cx="676.5597014925373" cy="412.970045239436" r="4" fill="#9e9d24" fill-opacity="0" clip-path="url(#rablfilter15)"/><circle cx="688.0223880597015" cy="419.2792886846033" r="4" fill="#9e9d24" fill-opacity="0" clip-path="url(#rablfilter15)"/><circle cx="699.4850746268656" cy="421.8689288048789" r="4" fill="#9e9d24" fill-opacity="0" clip-path="url(#rablfilter15)"/><circle cx="710.9477611940299" cy="423.57443674866647" r="4" fill="#9e9d24" fill-opacity="0" clip-path="url(#rablfilter15)"/><circle cx="722.4104477611941" cy="423.4798884644956" r="4" fill="#9e9d24" fill-opacity="0" clip-path="url(#rablfilter15)"/><circle cx="733.8731343283582" cy="425.30781864348364" r="4" fill="#9e9d24" fill-opacity="0" clip-path="url(#rablfilter15)"/><circle cx="745.3358208955224" cy="427.61461154854504" r="4" fill="#9e9d24" fill-opacity="0" clip-path="url(#rablfilter15)"/><circle cx="756.7985074626865" cy="433.08686393408493" r="4" fill="#9e9d24" fill-opacity="0" clip-path="url(#rablfilter15)"/><circle cx="768.2611940298508" cy="435.62140695564466" r="4" fill="#9e9d24" fill-opacity="0" clip-path="url(#rablfilter15)"/><circle cx="779.7238805970148" cy="439.34465124580174" r="4" fill="#9e9d24" fill-opacity="0" clip-path="url(#rablfilter15)"/><circle cx="791.1865671641791" cy="442.5042058052997" r="4" fill="#9e9d24" fill-opacity="0" clip-path="url(#rablfilter15)"/><circle cx="802.6492537313434" cy="444.72127218992557" r="4" fill="#9e9d24" fill-opacity="0" clip-path="url(#rablfilter15)"/><circle cx="814.1119402985074" cy="445.3455557978291" r="4" fill="#9e9d24" fill-opacity="0" clip-path="url(#rablfilter15)"/><circle cx="825.5746268656717" cy="449.3180291352865" r="4" fill="#9e9d24" fill-opacity="0" clip-path="url(#rablfilter15)"/><circle cx="837.0373134328358" cy="451.9864086864527" r="4" fill="#9e9d24" fill-opacity="0" clip-path="url(#rablfilter15)"/><circle cx="848.5" cy="453.9178617526697" r="4" fill="#9e9d24" fill-opacity="0" clip-path="url(#rablfilter15)"/></g><g/><g><text x="80.5" y="491.6999816894531" style="cursor: default; user-select: none; -webkit-font-smoothing: antialiased; font-family: Roboto; font-size: 12px;" fill="#757575" dx="-13.478124618530273px">1955</text><text x="126.3507462686567" y="491.6999816894531" style="cursor: default; user-select: none; -webkit-font-smoothing: antialiased; font-family: Roboto; font-size: 12px;" fill="#757575" dx="-13.478124618530273px">1959</text><text x="172.2014925373134" y="491.6999816894531" style="cursor: default; user-select: none; -webkit-font-smoothing: antialiased; font-family: Roboto; font-size: 12px;" fill="#757575" dx="-13.478124618530273px">1963</text><text x="218.05223880597015" y="491.6999816894531" style="cursor: default; user-select: none; -webkit-font-smoothing: antialiased; font-family: Roboto; font-size: 12px;" fill="#757575" dx="-13.478124618530273px">1967</text><text x="263.9029850746268" y="491.6999816894531" style="cursor: default; user-select: none; -webkit-font-smoothing: antialiased; font-family: Roboto; font-size: 12px;" fill="#757575" dx="-13.478124618530273px">1971</text><text x="309.75373134328356" y="491.6999816894531" style="cursor: default; user-select: none; -webkit-font-smoothing: antialiased; font-family: Roboto; font-size: 12px;" fill="#757575" dx="-13.478124618530273px">1975</text><text x="355.6044776119403" y="491.6999816894531" style="cursor: default; user-select: none; -webkit-font-smoothing: antialiased; font-family: Roboto; font-size: 12px;" fill="#757575" dx="-13.478124618530273px">1979</text><text x="401.45522388059703" y="491.6999816894531" style="cursor: default; user-select: none; -webkit-font-smoothing: antialiased; font-family: Roboto; font-size: 12px;" fill="#757575" dx="-13.478124618530273px">1983</text><text x="447.3059701492537" y="491.6999816894531" style="cursor: default; user-select: none; -webkit-font-smoothing: antialiased; font-family: Roboto; font-size: 12px;" fill="#757575" dx="-13.478124618530273px">1987</text><text x="493.15671641791045" y="491.6999816894531" style="cursor: default; user-select: none; -webkit-font-smoothing: antialiased; font-family: Roboto; font-size: 12px;" fill="#757575" dx="-13.478124618530273px">1991</text><text x="539.0074626865671" y="491.6999816894531" style="cursor: default; user-select: none; -webkit-font-smoothing: antialiased; font-family: Roboto; font-size: 12px;" fill="#757575" dx="-13.478124618530273px">1995</text><text x="584.8582089552239" y="491.6999816894531" style="cursor: default; user-select: none; -webkit-font-smoothing: antialiased; font-family: Roboto; font-size: 12px;" fill="#757575" dx="-13.478124618530273px">1999</text><text x="630.7089552238806" y="491.6999816894531" style="cursor: default; user-select: none; -webkit-font-smoothing: antialiased; font-family: Roboto; font-size: 12px;" fill="#757575" dx="-13.478124618530273px">2003</text><text x="676.5597014925373" y="491.6999816894531" style="cursor: default; user-select: none; -webkit-font-smoothing: antialiased; font-family: Roboto; font-size: 12px;" fill="#757575" dx="-13.478124618530273px">2007</text><text x="722.4104477611941" y="491.6999816894531" style="cursor: default; user-select: none; -webkit-font-smoothing: antialiased; font-family: Roboto; font-size: 12px;" fill="#757575" dx="-13.478124618530273px">2011</text><text x="768.2611940298508" y="491.6999816894531" style="cursor: default; user-select: none; -webkit-font-smoothing: antialiased; font-family: Roboto; font-size: 12px;" fill="#757575" dx="-13.478124618530273px">2015</text><text x="814.1119402985074" y="491.6999816894531" style="cursor: default; user-select: none; -webkit-font-smoothing: antialiased; font-family: Roboto; font-size: 12px;" fill="#757575" dx="-13.478124618530273px">2019</text><text x="457.7609372138977" y="523.6999816894531" style="cursor: default; user-select: none; -webkit-font-smoothing: antialiased; font-family: Roboto; font-size: 12px;" fill="#424242" dx="-11.887499809265137px">Year</text><text x="62.5" y="478.6999816894531" style="cursor: default; user-select: none; -webkit-font-smoothing: antialiased; font-family: Roboto; font-size: 12px;" fill="#757575" dx="-6.743750095367432px">0</text><text x="62.5" y="413.5333048502605" style="cursor: default; user-select: none; -webkit-font-smoothing: antialiased; font-family: Roboto; font-size: 12px;" fill="#757575" dx="-20.21875px">500</text><text x="62.5" y="348.3666890462239" style="cursor: default; user-select: none; -webkit-font-smoothing: antialiased; font-family: Roboto; font-size: 12px;" fill="#757575" dx="-29.3125px">1,000</text><text x="62.5" y="283.1999816894531" style="cursor: default; user-select: none; -webkit-font-smoothing: antialiased; font-family: Roboto; font-size: 12px;" fill="#757575" dx="-29.3125px">1,500</text><text x="62.5" y="218.0333353678385" style="cursor: default; user-select: none; -webkit-font-smoothing: antialiased; font-family: Roboto; font-size: 12px;" fill="#757575" dx="-29.3125px">2,000</text><text x="62.5" y="152.86665852864581" style="cursor: default; user-select: none; -webkit-font-smoothing: antialiased; font-family: Roboto; font-size: 12px;" fill="#757575" dx="-29.3125px">2,500</text><text x="62.5" y="87.69999694824219" style="cursor: default; user-select: none; -webkit-font-smoothing: antialiased; font-family: Roboto; font-size: 12px;" fill="#757575" dx="-29.3125px">3,000</text><text x="15.1875" y="276.1999816894531" style="cursor: default; user-select: none; -webkit-font-smoothing: antialiased; font-family: Roboto; font-size: 12px;" fill="#424242" dx="-51.00312423706055px" transform="rotate(-90 15.1875 279)">results per 100,000</text></g><g/><g/><g/></svg>