<svg xmlns="http://www.w3.org/2000/svg" width="1053" height="526.5"><defs><clipPath id="rablfilter12"><rect x="68.5" y="83.5" width="841" height="391"/></clipPath></defs><g><rect x="0" y="0" width="1053" height="526.5" fill="#ffffff" fill-opacity="1" stroke="#ffffff" stroke-opacity="0" stroke-width="0"/><text x="0" y="14.800000190734863" style="cursor: default; user-select: none; -webkit-font-smoothing: antialiased; font-family: Roboto; font-size: 16px;" fill="#757575" dx="0px">Results per 100,000 citations in PubMed</text><text x="0" y="35.60000038146973" style="cursor: default; user-select: none; -webkit-font-smoothing: antialiased; font-family: Roboto; font-size: 14px;" fill="#BDBDBD" dx="0px">proportion for each search by year, 1976 to 2022</text><rect x="951.1437454223633" y="83.5" width="12" height="12" rx="2" ry="2" fill="#4285f4"/><text x="971.1437454223633" y="96.29999542236328" style="cursor: default; user-select: none; -webkit-font-smoothing: antialiased; font-family: Roboto;" fill="#757575" dx="0px">Opioids</text><rect x="951.1437454223633" y="115.89999961853027" width="12" height="12" rx="2" ry="2" fill="#db4437"/><text x="971.1437454223633" y="128.70000076293945" style="cursor: default; user-select: none; -webkit-font-smoothing: antialiased; font-family: Roboto;" fill="#757575" dx="0px">stem cell</text><rect x="951.1437454223633" y="148.29999923706055" width="12" height="12" rx="2" ry="2" fill="#f4b400"/><text x="971.1437454223633" y="161.0999984741211" style="cursor: default; user-select: none; -webkit-font-smoothing: antialiased; font-family: Roboto;" fill="#757575" dx="0px">cannabinoid</text><rect x="951.1437454223633" y="180.69999885559082" width="12" height="12" rx="2" ry="2" fill="#0f9d58"/><text x="971.1437454223633" y="193.4999885559082" style="cursor: default; user-select: none; -webkit-font-smoothing: antialiased; font-family: Roboto;" fill="#757575" dx="0px">neuropeptide</text><rect x="68.5" y="83.5" width="841" height="391" fill="#ffffff" fill-opacity="1" stroke="#ffffff" stroke-opacity="0" stroke-width="1"/></g><g><line x1="68.5" x2="909.5" y1="474.5" y2="474.5" stroke="#9E9E9E" stroke-width="1"/><line x1="68.5" x2="909.5" y1="409.33333333333337" y2="409.33333333333337" stroke="#E0E0E0" stroke-width="1"/><line x1="68.5" x2="909.5" y1="344.16666666666663" y2="344.16666666666663" stroke="#E0E0E0" stroke-width="1"/><line x1="68.5" x2="909.5" y1="279" y2="279" stroke="#E0E0E0" stroke-width="1"/><line x1="68.5" x2="909.5" y1="213.83333333333331" y2="213.83333333333331" stroke="#E0E0E0" stroke-width="1"/><line x1="68.5" x2="909.5" y1="148.66666666666666" y2="148.66666666666666" stroke="#E0E0E0" stroke-width="1"/><line x1="68.5" x2="909.5" y1="83.5" y2="83.5" stroke="#E0E0E0" stroke-width="1"/></g><g><path d="M 80.5 408.0493013721553 L 98.26086956521739 410.0769817538293 L 116.02173913043478 409.13489501167896 L 133.7826086956522 404.55647714920366 L 151.54347826086956 397.63060687269547 L 169.30434782608694 392.797259213033 L 187.06521739130434 378.789467189143 L 204.82608695652175 380.64443740873315 L 222.58695652173913 376.5413464297909 L 240.34782608695653 375.74761078360336 L 258.1086956521739 372.6144879342668 L 275.8695652173913 382.59200175003326 L 293.6304347826087 387.0146301573727 L 311.39130434782606 386.979322908521 L 329.1521739130435 381.3397368658021 L 346.9130434782609 385.26818454628176 L 364.67391304347825 386.42176919568385 L 382.4347826086956 386.74853154975574 L 400.19565217391306 388.07324181809065 L 417.95652173913044 388.36137879195985 L 435.7173913043478 387.6745633826356 L 453.4782608695652 386.3220566518996 L 471.2391304347826 387.6380152656748 L 489 391.77724205509656 L 506.7608695652174 390.0551425124038 L 524.5217391304348 397.03184204519516 L 542.2826086956521 399.5904868013063 L 560.0434782608696 393.833535156469 L 577.804347826087 397.5749672274985 L 595.5652173913044 399.2665034749042 L 613.3260869565217 401.6756563799477 L 631.0869565217391 403.01325934522515 L 648.8478260869565 402.916934334005 L 666.6086956521739 405.8745888501477 L 684.3695652173913 406.62655818215916 L 702.1304347826087 409.43179767874983 L 719.8913043478261 408.0533657311544 L 737.6521739130435 408.13269252842576 L 755.4130434782609 408.12655822377485 L 773.1739130434783 408.79393430323637 L 790.9347826086956 406.8060695981557 L 808.695652173913 400.20310107363935 L 826.4565217391304 392.7912993658033 L 844.2173913043479 383.4745435351136 L 861.9782608695652 385.36453770386885 L 879.7391304347826 388.82108076757066 L 897.5 390.84657514515163" fill="none" stroke="#4285f4" stroke-width="2" clip-path="url(#rablfilter12)"/><circle cx="80.5" cy="408.0493013721553" r="4" fill="#4285f4" fill-opacity="0" clip-path="url(#rablfilter12)"/><circle cx="98.26086956521739" cy="410.0769817538293" r="4" fill="#4285f4" fill-opacity="0" clip-path="url(#rablfilter12)"/><circle cx="116.02173913043478" cy="409.13489501167896" r="4" fill="#4285f4" fill-opacity="0" clip-path="url(#rablfilter12)"/><circle cx="133.7826086956522" cy="404.55647714920366" r="4" fill="#4285f4" fill-opacity="0" clip-path="url(#rablfilter12)"/><circle cx="151.54347826086956" cy="397.63060687269547" r="4" fill="#4285f4" fill-opacity="0" clip-path="url(#rablfilter12)"/><circle cx="169.30434782608694" cy="392.797259213033" r="4" fill="#4285f4" fill-opacity="0" clip-path="url(#rablfilter12)"/><circle cx="187.06521739130434" cy="378.789467189143" r="4" fill="#4285f4" fill-opacity="0" clip-path="url(#rablfilter12)"/><circle cx="204.82608695652175" cy="380.64443740873315" r="4" fill="#4285f4" fill-opacity="0" clip-path="url(#rablfilter12)"/><circle cx="222.58695652173913" cy="376.5413464297909" r="4" fill="#4285f4" fill-opacity="0" clip-path="url(#rablfilter12)"/><circle cx="240.34782608695653" cy="375.74761078360336" r="4" fill="#4285f4" fill-opacity="0" clip-path="url(#rablfilter12)"/><circle cx="258.1086956521739" cy="372.6144879342668" r="4" fill="#4285f4" fill-opacity="0" clip-path="url(#rablfilter12)"/><circle cx="275.8695652173913" cy="382.59200175003326" r="4" fill="#4285f4" fill-opacity="0" clip-path="url(#rablfilter12)"/><circle cx="293.6304347826087" cy="387.0146301573727" r="4" fill="#4285f4" fill-opacity="0" clip-path="url(#rablfilter12)"/><circle cx="311.39130434782606" cy="386.979322908521" r="4" fill="#4285f4" fill-opacity="0" clip-path="url(#rablfilter12)"/><circle cx="329.1521739130435" cy="381.3397368658021" r="4" fill="#4285f4" fill-opacity="0" clip-path="url(#rablfilter12)"/><circle cx="346.9130434782609" cy="385.26818454628176" r="4" fill="#4285f4" fill-opacity="0" clip-path="url(#rablfilter12)"/><circle cx="364.67391304347825" cy="386.42176919568385" r="4" fill="#4285f4" fill-opacity="0" clip-path="url(#rablfilter12)"/><circle cx="382.4347826086956" cy="386.74853154975574" r="4" fill="#4285f4" fill-opacity="0" clip-path="url(#rablfilter12)"/><circle cx="400.19565217391306" cy="388.07324181809065" r="4" fill="#4285f4" fill-opacity="0" clip-path="url(#rablfilter12)"/><circle cx="417.95652173913044" cy="388.36137879195985" r="4" fill="#4285f4" fill-opacity="0" clip-path="url(#rablfilter12)"/><circle cx="435.7173913043478" cy="387.6745633826356" r="4" fill="#4285f4" fill-opacity="0" clip-path="url(#rablfilter12)"/><circle cx="453.4782608695652" cy="386.3220566518996" r="4" fill="#4285f4" fill-opacity="0" clip-path="url(#rablfilter12)"/><circle cx="471.2391304347826" cy="387.6380152656748" r="4" fill="#4285f4" fill-opacity="0" clip-path="url(#rablfilter12)"/><circle cx="489" cy="391.77724205509656" r="4" fill="#4285f4" fill-opacity="0" clip-path="url(#rablfilter12)"/><circle cx="506.7608695652174" cy="390.0551425124038" r="4" fill="#4285f4" fill-opacity="0" clip-path="url(#rablfilter12)"/><circle cx="524.5217391304348" cy="397.03184204519516" r="4" fill="#4285f4" fill-opacity="0" clip-path="url(#rablfilter12)"/><circle cx="542.2826086956521" cy="399.5904868013063" r="4" fill="#4285f4" fill-opacity="0" clip-path="url(#rablfilter12)"/><circle cx="560.0434782608696" cy="393.833535156469" r="4" fill="#4285f4" fill-opacity="0" clip-path="url(#rablfilter12)"/><circle cx="577.804347826087" cy="397.5749672274985" r="4" fill="#4285f4" fill-opacity="0" clip-path="url(#rablfilter12)"/><circle cx="595.5652173913044" cy="399.2665034749042" r="4" fill="#4285f4" fill-opacity="0" clip-path="url(#rablfilter12)"/><circle cx="613.3260869565217" cy="401.6756563799477" r="4" fill="#4285f4" fill-opacity="0" clip-path="url(#rablfilter12)"/><circle cx="631.0869565217391" cy="403.01325934522515" r="4" fill="#4285f4" fill-opacity="0" clip-path="url(#rablfilter12)"/><circle cx="648.8478260869565" cy="402.916934334005" r="4" fill="#4285f4" fill-opacity="0" clip-path="url(#rablfilter12)"/><circle cx="666.6086956521739" cy="405.8745888501477" r="4" fill="#4285f4" fill-opacity="0" clip-path="url(#rablfilter12)"/><circle cx="684.3695652173913" cy="406.62655818215916" r="4" fill="#4285f4" fill-opacity="0" clip-path="url(#rablfilter12)"/><circle cx="702.1304347826087" cy="409.43179767874983" r="4" fill="#4285f4" fill-opacity="0" clip-path="url(#rablfilter12)"/><circle cx="719.8913043478261" cy="408.0533657311544" r="4" fill="#4285f4" fill-opacity="0" clip-path="url(#rablfilter12)"/><circle cx="737.6521739130435" cy="408.13269252842576" r="4" fill="#4285f4" fill-opacity="0" clip-path="url(#rablfilter12)"/><circle cx="755.4130434782609" cy="408.12655822377485" r="4" fill="#4285f4" fill-opacity="0" clip-path="url(#rablfilter12)"/><circle cx="773.1739130434783" cy="408.79393430323637" r="4" fill="#4285f4" fill-opacity="0" clip-path="url(#rablfilter12)"/><circle cx="790.9347826086956" cy="406.8060695981557" r="4" fill="#4285f4" fill-opacity="0" clip-path="url(#rablfilter12)"/><circle cx="808.695652173913" cy="400.20310107363935" r="4" fill="#4285f4" fill-opacity="0" clip-path="url(#rablfilter12)"/><circle cx="826.4565217391304" cy="392.7912993658033" r="4" fill="#4285f4" fill-opacity="0" clip-path="url(#rablfilter12)"/><circle cx="844.2173913043479" cy="383.4745435351136" r="4" fill="#4285f4" fill-opacity="0" clip-path="url(#rablfilter12)"/><circle cx="861.9782608695652" cy="385.36453770386885" r="4" fill="#4285f4" fill-opacity="0" clip-path="url(#rablfilter12)"/><circle cx="879.7391304347826" cy="388.82108076757066" r="4" fill="#4285f4" fill-opacity="0" clip-path="url(#rablfilter12)"/><circle cx="897.5" cy="390.84657514515163" r="4" fill="#4285f4" fill-opacity="0" clip-path="url(#rablfilter12)"/><path d="M 80.5 449.4020822874833 L 98.26086956521739 449.64544049144644 L 116.02173913043478 444.23217888982646 L 133.7826086956522 439.02006238480084 L 151.54347826086956 432.0476584179116 L 169.30434782608694 429.46699326702606 L 187.06521739130434 420.6077432653415 L 204.82608695652175 418.83510374802387 L 222.58695652173913 405.1672238735936 L 240.34782608695653 398.9103120716681 L 258.1086956521739 407.04836253146414 L 275.8695652173913 410.00502319337596 L 293.6304347826087 409.84568510475583 L 311.39130434782606 401.5067846512471 L 329.1521739130435 398.37312512016507 L 346.9130434782609 393.78447658322204 L 364.67391304347825 388.1365666095732 L 382.4347826086956 376.0805864446549 L 400.19565217391306 371.8867871070458 L 417.95652173913044 359.49377080880055 L 435.7173913043478 349.77366925712374 L 453.4782608695652 346.12706403544104 L 471.2391304347826 341.5715138800245 L 489 333.8053443820653 L 506.7608695652174 327.7308735987824 L 524.5217391304348 314.66093738111545 L 542.2826086956521 296.9990273405723 L 560.0434782608696 286.79702759370764 L 577.804347826087 275.70909168589253 L 595.5652173913044 262.3091612971389 L 613.3260869565217 251.19633980880667 L 631.0869565217391 233.10178491756102 L 648.8478260869565 220.47196988428888 L 666.6086956521739 212.9036750909657 L 684.3695652173913 189.25445915200922 L 702.1304347826087 184.0493375088923 L 719.8913043478261 171.1436725930153 L 737.6521739130435 159.05129163869594 L 755.4130434782609 158.02624080769274 L 773.1739130434783 147.0887781389936 L 790.9347826086956 140.83809791743033 L 808.695652173913 135.62097883756138 L 826.4565217391304 146.11260678669885 L 844.2173913043479 145.9088629765589 L 861.9782608695652 163.5486435409187 L 879.7391304347826 169.91755838908475 L 897.5 196.43418761458102" fill="none" stroke="#db4437" stroke-width="2" clip-path="url(#rablfilter12)"/><circle cx="80.5" cy="449.4020822874833" r="4" fill="#db4437" fill-opacity="0" clip-path="url(#rablfilter12)"/><circle cx="98.26086956521739" cy="449.64544049144644" r="4" fill="#db4437" fill-opacity="0" clip-path="url(#rablfilter12)"/><circle cx="116.02173913043478" cy="444.23217888982646" r="4" fill="#db4437" fill-opacity="0" clip-path="url(#rablfilter12)"/><circle cx="133.7826086956522" cy="439.02006238480084" r="4" fill="#db4437" fill-opacity="0" clip-path="url(#rablfilter12)"/><circle cx="151.54347826086956" cy="432.0476584179116" r="4" fill="#db4437" fill-opacity="0" clip-path="url(#rablfilter12)"/><circle cx="169.30434782608694" cy="429.46699326702606" r="4" fill="#db4437" fill-opacity="0" clip-path="url(#rablfilter12)"/><circle cx="187.06521739130434" cy="420.6077432653415" r="4" fill="#db4437" fill-opacity="0" clip-path="url(#rablfilter12)"/><circle cx="204.82608695652175" cy="418.83510374802387" r="4" fill="#db4437" fill-opacity="0" clip-path="url(#rablfilter12)"/><circle cx="222.58695652173913" cy="405.1672238735936" r="4" fill="#db4437" fill-opacity="0" clip-path="url(#rablfilter12)"/><circle cx="240.34782608695653" cy="398.9103120716681" r="4" fill="#db4437" fill-opacity="0" clip-path="url(#rablfilter12)"/><circle cx="258.1086956521739" cy="407.04836253146414" r="4" fill="#db4437" fill-opacity="0" clip-path="url(#rablfilter12)"/><circle cx="275.8695652173913" cy="410.00502319337596" r="4" fill="#db4437" fill-opacity="0" clip-path="url(#rablfilter12)"/><circle cx="293.6304347826087" cy="409.84568510475583" r="4" fill="#db4437" fill-opacity="0" clip-path="url(#rablfilter12)"/><circle cx="311.39130434782606" cy="401.5067846512471" r="4" fill="#db4437" fill-opacity="0" clip-path="url(#rablfilter12)"/><circle cx="329.1521739130435" cy="398.37312512016507" r="4" fill="#db4437" fill-opacity="0" clip-path="url(#rablfilter12)"/><circle cx="346.9130434782609" cy="393.78447658322204" r="4" fill="#db4437" fill-opacity="0" clip-path="url(#rablfilter12)"/><circle cx="364.67391304347825" cy="388.1365666095732" r="4" fill="#db4437" fill-opacity="0" clip-path="url(#rablfilter12)"/><circle cx="382.4347826086956" cy="376.0805864446549" r="4" fill="#db4437" fill-opacity="0" clip-path="url(#rablfilter12)"/><circle cx="400.19565217391306" cy="371.8867871070458" r="4" fill="#db4437" fill-opacity="0" clip-path="url(#rablfilter12)"/><circle cx="417.95652173913044" cy="359.49377080880055" r="4" fill="#db4437" fill-opacity="0" clip-path="url(#rablfilter12)"/><circle cx="435.7173913043478" cy="349.77366925712374" r="4" fill="#db4437" fill-opacity="0" clip-path="url(#rablfilter12)"/><circle cx="453.4782608695652" cy="346.12706403544104" r="4" fill="#db4437" fill-opacity="0" clip-path="url(#rablfilter12)"/><circle cx="471.2391304347826" cy="341.5715138800245" r="4" fill="#db4437" fill-opacity="0" clip-path="url(#rablfilter12)"/><circle cx="489" cy="333.8053443820653" r="4" fill="#db4437" fill-opacity="0" clip-path="url(#rablfilter12)"/><circle cx="506.7608695652174" cy="327.7308735987824" r="4" fill="#db4437" fill-opacity="0" clip-path="url(#rablfilter12)"/><circle cx="524.5217391304348" cy="314.66093738111545" r="4" fill="#db4437" fill-opacity="0" clip-path="url(#rablfilter12)"/><circle cx="542.2826086956521" cy="296.9990273405723" r="4" fill="#db4437" fill-opacity="0" clip-path="url(#rablfilter12)"/><circle cx="560.0434782608696" cy="286.79702759370764" r="4" fill="#db4437" fill-opacity="0" clip-path="url(#rablfilter12)"/><circle cx="577.804347826087" cy="275.70909168589253" r="4" fill="#db4437" fill-opacity="0" clip-path="url(#rablfilter12)"/><circle cx="595.5652173913044" cy="262.3091612971389" r="4" fill="#db4437" fill-opacity="0" clip-path="url(#rablfilter12)"/><circle cx="613.3260869565217" cy="251.19633980880667" r="4" fill="#db4437" fill-opacity="0" clip-path="url(#rablfilter12)"/><circle cx="631.0869565217391" cy="233.10178491756102" r="4" fill="#db4437" fill-opacity="0" clip-path="url(#rablfilter12)"/><circle cx="648.8478260869565" cy="220.47196988428888" r="4" fill="#db4437" fill-opacity="0" clip-path="url(#rablfilter12)"/><circle cx="666.6086956521739" cy="212.9036750909657" r="4" fill="#db4437" fill-opacity="0" clip-path="url(#rablfilter12)"/><circle cx="684.3695652173913" cy="189.25445915200922" r="4" fill="#db4437" fill-opacity="0" clip-path="url(#rablfilter12)"/><circle cx="702.1304347826087" cy="184.0493375088923" r="4" fill="#db4437" fill-opacity="0" clip-path="url(#rablfilter12)"/><circle cx="719.8913043478261" cy="171.1436725930153" r="4" fill="#db4437" fill-opacity="0" clip-path="url(#rablfilter12)"/><circle cx="737.6521739130435" cy="159.05129163869594" r="4" fill="#db4437" fill-opacity="0" clip-path="url(#rablfilter12)"/><circle cx="755.4130434782609" cy="158.02624080769274" r="4" fill="#db4437" fill-opacity="0" clip-path="url(#rablfilter12)"/><circle cx="773.1739130434783" cy="147.0887781389936" r="4" fill="#db4437" fill-opacity="0" clip-path="url(#rablfilter12)"/><circle cx="790.9347826086956" cy="140.83809791743033" r="4" fill="#db4437" fill-opacity="0" clip-path="url(#rablfilter12)"/><circle cx="808.695652173913" cy="135.62097883756138" r="4" fill="#db4437" fill-opacity="0" clip-path="url(#rablfilter12)"/><circle cx="826.4565217391304" cy="146.11260678669885" r="4" fill="#db4437" fill-opacity="0" clip-path="url(#rablfilter12)"/><circle cx="844.2173913043479" cy="145.9088629765589" r="4" fill="#db4437" fill-opacity="0" clip-path="url(#rablfilter12)"/><circle cx="861.9782608695652" cy="163.5486435409187" r="4" fill="#db4437" fill-opacity="0" clip-path="url(#rablfilter12)"/><circle cx="879.7391304347826" cy="169.91755838908475" r="4" fill="#db4437" fill-opacity="0" clip-path="url(#rablfilter12)"/><circle cx="897.5" cy="196.43418761458102" r="4" fill="#db4437" fill-opacity="0" clip-path="url(#rablfilter12)"/><path d="M 80.5 463.3056130773092 L 98.26086956521739 463.8622485303391 L 116.02173913043478 464.12382751831336 L 133.7826086956522 466.83115931754804 L 151.54347826086956 465.81445527806284 L 169.30434782608694 465.998871177959 L 187.06521739130434 468.46300967077 L 204.82608695652175 468.39454617508585 L 222.58695652173913 468.52091830215284 L 240.34782608695653 469.3700057549924 L 258.1086956521739 469.80447164583677 L 275.8695652173913 469.2936509661869 L 293.6304347826087 470.4927794413885 L 311.39130434782606 470.77915790553783 L 329.1521739130435 469.86894844481003 L 346.9130434782609 468.9170974424503 L 364.67391304347825 470.66508941984745 L 382.4347826086956 470.04994289901504 L 400.19565217391306 470.46081130146405 L 417.95652173913044 468.2622756619304 L 435.7173913043478 468.8745299573828 L 453.4782608695652 467.5393341388106 L 471.2391304347826 465.13845234058005 L 489 465.6604070457599 L 506.7608695652174 465.22599217971634 L 524.5217391304348 463.98051434223544 L 542.2826086956521 462.5605760501775 L 560.0434782608696 461.8301041631628 L 577.804347826087 460.8303238902679 L 595.5652173913044 457.49198223498945 L 613.3260869565217 457.0715064063678 L 631.0869565217391 455.1497072804688 L 648.8478260869565 453.5139250722572 L 666.6086956521739 456.23355210683434 L 684.3695652173913 455.49100916067806 L 702.1304347826087 456.3651918947644 L 719.8913043478261 456.54015751812017 L 737.6521739130435 458.599499251602 L 755.4130434782609 458.01473962398313 L 773.1739130434783 458.29367816594566 L 790.9347826086956 456.69915375258665 L 808.695652173913 457.13773531076436 L 826.4565217391304 456.8621841779835 L 844.2173913043479 455.38805713508805 L 861.9782608695652 454.4029339853799 L 879.7391304347826 455.23561104716686 L 897.5 454.8766816211133" fill="none" stroke="#f4b400" stroke-width="2" clip-path="url(#rablfilter12)"/><circle cx="80.5" cy="463.3056130773092" r="4" fill="#f4b400" fill-opacity="0" clip-path="url(#rablfilter12)"/><circle cx="98.26086956521739" cy="463.8622485303391" r="4" fill="#f4b400" fill-opacity="0" clip-path="url(#rablfilter12)"/><circle cx="116.02173913043478" cy="464.12382751831336" r="4" fill="#f4b400" fill-opacity="0" clip-path="url(#rablfilter12)"/><circle cx="133.7826086956522" cy="466.83115931754804" r="4" fill="#f4b400" fill-opacity="0" clip-path="url(#rablfilter12)"/><circle cx="151.54347826086956" cy="465.81445527806284" r="4" fill="#f4b400" fill-opacity="0" clip-path="url(#rablfilter12)"/><circle cx="169.30434782608694" cy="465.998871177959" r="4" fill="#f4b400" fill-opacity="0" clip-path="url(#rablfilter12)"/><circle cx="187.06521739130434" cy="468.46300967077" r="4" fill="#f4b400" fill-opacity="0" clip-path="url(#rablfilter12)"/><circle cx="204.82608695652175" cy="468.39454617508585" r="4" fill="#f4b400" fill-opacity="0" clip-path="url(#rablfilter12)"/><circle cx="222.58695652173913" cy="468.52091830215284" r="4" fill="#f4b400" fill-opacity="0" clip-path="url(#rablfilter12)"/><circle cx="240.34782608695653" cy="469.3700057549924" r="4" fill="#f4b400" fill-opacity="0" clip-path="url(#rablfilter12)"/><circle cx="258.1086956521739" cy="469.80447164583677" r="4" fill="#f4b400" fill-opacity="0" clip-path="url(#rablfilter12)"/><circle cx="275.8695652173913" cy="469.2936509661869" r="4" fill="#f4b400" fill-opacity="0" clip-path="url(#rablfilter12)"/><circle cx="293.6304347826087" cy="470.4927794413885" r="4" fill="#f4b400" fill-opacity="0" clip-path="url(#rablfilter12)"/><circle cx="311.39130434782606" cy="470.77915790553783" r="4" fill="#f4b400" fill-opacity="0" clip-path="url(#rablfilter12)"/><circle cx="329.1521739130435" cy="469.86894844481003" r="4" fill="#f4b400" fill-opacity="0" clip-path="url(#rablfilter12)"/><circle cx="346.9130434782609" cy="468.9170974424503" r="4" fill="#f4b400" fill-opacity="0" clip-path="url(#rablfilter12)"/><circle cx="364.67391304347825" cy="470.66508941984745" r="4" fill="#f4b400" fill-opacity="0" clip-path="url(#rablfilter12)"/><circle cx="382.4347826086956" cy="470.04994289901504" r="4" fill="#f4b400" fill-opacity="0" clip-path="url(#rablfilter12)"/><circle cx="400.19565217391306" cy="470.46081130146405" r="4" fill="#f4b400" fill-opacity="0" clip-path="url(#rablfilter12)"/><circle cx="417.95652173913044" cy="468.2622756619304" r="4" fill="#f4b400" fill-opacity="0" clip-path="url(#rablfilter12)"/><circle cx="435.7173913043478" cy="468.8745299573828" r="4" fill="#f4b400" fill-opacity="0" clip-path="url(#rablfilter12)"/><circle cx="453.4782608695652" cy="467.5393341388106" r="4" fill="#f4b400" fill-opacity="0" clip-path="url(#rablfilter12)"/><circle cx="471.2391304347826" cy="465.13845234058005" r="4" fill="#f4b400" fill-opacity="0" clip-path="url(#rablfilter12)"/><circle cx="489" cy="465.6604070457599" r="4" fill="#f4b400" fill-opacity="0" clip-path="url(#rablfilter12)"/><circle cx="506.7608695652174" cy="465.22599217971634" r="4" fill="#f4b400" fill-opacity="0" clip-path="url(#rablfilter12)"/><circle cx="524.5217391304348" cy="463.98051434223544" r="4" fill="#f4b400" fill-opacity="0" clip-path="url(#rablfilter12)"/><circle cx="542.2826086956521" cy="462.5605760501775" r="4" fill="#f4b400" fill-opacity="0" clip-path="url(#rablfilter12)"/><circle cx="560.0434782608696" cy="461.8301041631628" r="4" fill="#f4b400" fill-opacity="0" clip-path="url(#rablfilter12)"/><circle cx="577.804347826087" cy="460.8303238902679" r="4" fill="#f4b400" fill-opacity="0" clip-path="url(#rablfilter12)"/><circle cx="595.5652173913044" cy="457.49198223498945" r="4" fill="#f4b400" fill-opacity="0" clip-path="url(#rablfilter12)"/><circle cx="613.3260869565217" cy="457.0715064063678" r="4" fill="#f4b400" fill-opacity="0" clip-path="url(#rablfilter12)"/><circle cx="631.0869565217391" cy="455.1497072804688" r="4" fill="#f4b400" fill-opacity="0" clip-path="url(#rablfilter12)"/><circle cx="648.8478260869565" cy="453.5139250722572" r="4" fill="#f4b400" fill-opacity="0" clip-path="url(#rablfilter12)"/><circle cx="666.6086956521739" cy="456.23355210683434" r="4" fill="#f4b400" fill-opacity="0" clip-path="url(#rablfilter12)"/><circle cx="684.3695652173913" cy="455.49100916067806" r="4" fill="#f4b400" fill-opacity="0" clip-path="url(#rablfilter12)"/><circle cx="702.1304347826087" cy="456.3651918947644" r="4" fill="#f4b400" fill-opacity="0" clip-path="url(#rablfilter12)"/><circle cx="719.8913043478261" cy="456.54015751812017" r="4" fill="#f4b400" fill-opacity="0" clip-path="url(#rablfilter12)"/><circle cx="737.6521739130435" cy="458.599499251602" r="4" fill="#f4b400" fill-opacity="0" clip-path="url(#rablfilter12)"/><circle cx="755.4130434782609" cy="458.01473962398313" r="4" fill="#f4b400" fill-opacity="0" clip-path="url(#rablfilter12)"/><circle cx="773.1739130434783" cy="458.29367816594566" r="4" fill="#f4b400" fill-opacity="0" clip-path="url(#rablfilter12)"/><circle cx="790.9347826086956" cy="456.69915375258665" r="4" fill="#f4b400" fill-opacity="0" clip-path="url(#rablfilter12)"/><circle cx="808.695652173913" cy="457.13773531076436" r="4" fill="#f4b400" fill-opacity="0" clip-path="url(#rablfilter12)"/><circle cx="826.4565217391304" cy="456.8621841779835" r="4" fill="#f4b400" fill-opacity="0" clip-path="url(#rablfilter12)"/><circle cx="844.2173913043479" cy="455.38805713508805" r="4" fill="#f4b400" fill-opacity="0" clip-path="url(#rablfilter12)"/><circle cx="861.9782608695652" cy="454.4029339853799" r="4" fill="#f4b400" fill-opacity="0" clip-path="url(#rablfilter12)"/><circle cx="879.7391304347826" cy="455.23561104716686" r="4" fill="#f4b400" fill-opacity="0" clip-path="url(#rablfilter12)"/><circle cx="897.5" cy="454.8766816211133" r="4" fill="#f4b400" fill-opacity="0" clip-path="url(#rablfilter12)"/><path d="M 80.5 259.55754789993307 L 98.26086956521739 256.72434958605396 L 116.02173913043478 247.2761675899769 L 133.7826086956522 243.32603147596765 L 151.54347826086956 216.07020944995628 L 169.30434782608694 217.39829319286818 L 187.06521739130434 201.16094151669137 L 204.82608695652175 198.070314754748 L 222.58695652173913 170.22207523969325 L 240.34782608695653 167.12784481996022 L 258.1086956521739 160.71945442813694 L 275.8695652173913 184.3965650614731 L 293.6304347826087 187.32708467362372 L 311.39130434782606 187.76867268588276 L 329.1521739130435 180.11103093343843 L 346.9130434782609 191.88527166302043 L 364.67391304347825 181.70613611209453 L 382.4347826086956 192.80528953902163 L 400.19565217391306 209.39854174167604 L 417.95652173913044 221.48049324509327 L 435.7173913043478 237.8609091668756 L 453.4782608695652 239.69163646126998 L 471.2391304347826 245.4577943620497 L 489 265.6481246781783 L 506.7608695652174 277.8861402744609 L 524.5217391304348 287.83862892794644 L 542.2826086956521 294.07179405557713 L 560.0434782608696 300.4971744761007 L 577.804347826087 316.69774791954535 L 595.5652173913044 326.2473987594761 L 613.3260869565217 333.5603075394313 L 631.0869565217391 342.0631506849895 L 648.8478260869565 348.69252856744123 L 666.6086956521739 358.4412274104966 L 684.3695652173913 363.2960201117398 L 702.1304347826087 376.4954102819874 L 719.8913043478261 383.95943590359917 L 737.6521739130435 386.9962464159794 L 755.4130434782609 393.630339099684 L 773.1739130434783 398.89813037003825 L 790.9347826086956 403.2053286193342 L 808.695652173913 405.5007408464055 L 826.4565217391304 412.1263571695994 L 844.2173913043479 418.12068827627024 L 861.9782608695652 422.7729378102905 L 879.7391304347826 430.40432642735533 L 897.5 431.2579317766531" fill="none" stroke="#0f9d58" stroke-width="2" clip-path="url(#rablfilter12)"/><circle cx="80.5" cy="259.55754789993307" r="4" fill="#0f9d58" fill-opacity="0" clip-path="url(#rablfilter12)"/><circle cx="98.26086956521739" cy="256.72434958605396" r="4" fill="#0f9d58" fill-opacity="0" clip-path="url(#rablfilter12)"/><circle cx="116.02173913043478" cy="247.2761675899769" r="4" fill="#0f9d58" fill-opacity="0" clip-path="url(#rablfilter12)"/><circle cx="133.7826086956522" cy="243.32603147596765" r="4" fill="#0f9d58" fill-opacity="0" clip-path="url(#rablfilter12)"/><circle cx="151.54347826086956" cy="216.07020944995628" r="4" fill="#0f9d58" fill-opacity="0" clip-path="url(#rablfilter12)"/><circle cx="169.30434782608694" cy="217.39829319286818" r="4" fill="#0f9d58" fill-opacity="0" clip-path="url(#rablfilter12)"/><circle cx="187.06521739130434" cy="201.16094151669137" r="4" fill="#0f9d58" fill-opacity="0" clip-path="url(#rablfilter12)"/><circle cx="204.82608695652175" cy="198.070314754748" r="4" fill="#0f9d58" fill-opacity="0" clip-path="url(#rablfilter12)"/><circle cx="222.58695652173913" cy="170.22207523969325" r="4" fill="#0f9d58" fill-opacity="0" clip-path="url(#rablfilter12)"/><circle cx="240.34782608695653" cy="167.12784481996022" r="4" fill="#0f9d58" fill-opacity="0" clip-path="url(#rablfilter12)"/><circle cx="258.1086956521739" cy="160.71945442813694" r="4" fill="#0f9d58" fill-opacity="0" clip-path="url(#rablfilter12)"/><circle cx="275.8695652173913" cy="184.3965650614731" r="4" fill="#0f9d58" fill-opacity="0" clip-path="url(#rablfilter12)"/><circle cx="293.6304347826087" cy="187.32708467362372" r="4" fill="#0f9d58" fill-opacity="0" clip-path="url(#rablfilter12)"/><circle cx="311.39130434782606" cy="187.76867268588276" r="4" fill="#0f9d58" fill-opacity="0" clip-path="url(#rablfilter12)"/><circle cx="329.1521739130435" cy="180.11103093343843" r="4" fill="#0f9d58" fill-opacity="0" clip-path="url(#rablfilter12)"/><circle cx="346.9130434782609" cy="191.88527166302043" r="4" fill="#0f9d58" fill-opacity="0" clip-path="url(#rablfilter12)"/><circle cx="364.67391304347825" cy="181.70613611209453" r="4" fill="#0f9d58" fill-opacity="0" clip-path="url(#rablfilter12)"/><circle cx="382.4347826086956" cy="192.80528953902163" r="4" fill="#0f9d58" fill-opacity="0" clip-path="url(#rablfilter12)"/><circle cx="400.19565217391306" cy="209.39854174167604" r="4" fill="#0f9d58" fill-opacity="0" clip-path="url(#rablfilter12)"/><circle cx="417.95652173913044" cy="221.48049324509327" r="4" fill="#0f9d58" fill-opacity="0" clip-path="url(#rablfilter12)"/><circle cx="435.7173913043478" cy="237.8609091668756" r="4" fill="#0f9d58" fill-opacity="0" clip-path="url(#rablfilter12)"/><circle cx="453.4782608695652" cy="239.69163646126998" r="4" fill="#0f9d58" fill-opacity="0" clip-path="url(#rablfilter12)"/><circle cx="471.2391304347826" cy="245.4577943620497" r="4" fill="#0f9d58" fill-opacity="0" clip-path="url(#rablfilter12)"/><circle cx="489" cy="265.6481246781783" r="4" fill="#0f9d58" fill-opacity="0" clip-path="url(#rablfilter12)"/><circle cx="506.7608695652174" cy="277.8861402744609" r="4" fill="#0f9d58" fill-opacity="0" clip-path="url(#rablfilter12)"/><circle cx="524.5217391304348" cy="287.83862892794644" r="4" fill="#0f9d58" fill-opacity="0" clip-path="url(#rablfilter12)"/><circle cx="542.2826086956521" cy="294.07179405557713" r="4" fill="#0f9d58" fill-opacity="0" clip-path="url(#rablfilter12)"/><circle cx="560.0434782608696" cy="300.4971744761007" r="4" fill="#0f9d58" fill-opacity="0" clip-path="url(#rablfilter12)"/><circle cx="577.804347826087" cy="316.69774791954535" r="4" fill="#0f9d58" fill-opacity="0" clip-path="url(#rablfilter12)"/><circle cx="595.5652173913044" cy="326.2473987594761" r="4" fill="#0f9d58" fill-opacity="0" clip-path="url(#rablfilter12)"/><circle cx="613.3260869565217" cy="333.5603075394313" r="4" fill="#0f9d58" fill-opacity="0" clip-path="url(#rablfilter12)"/><circle cx="631.0869565217391" cy="342.0631506849895" r="4" fill="#0f9d58" fill-opacity="0" clip-path="url(#rablfilter12)"/><circle cx="648.8478260869565" cy="348.69252856744123" r="4" fill="#0f9d58" fill-opacity="0" clip-path="url(#rablfilter12)"/><circle cx="666.6086956521739" cy="358.4412274104966" r="4" fill="#0f9d58" fill-opacity="0" clip-path="url(#rablfilter12)"/><circle cx="684.3695652173913" cy="363.2960201117398" r="4" fill="#0f9d58" fill-opacity="0" clip-path="url(#rablfilter12)"/><circle cx="702.1304347826087" cy="376.4954102819874" r="4" fill="#0f9d58" fill-opacity="0" clip-path="url(#rablfilter12)"/><circle cx="719.8913043478261" cy="383.95943590359917" r="4" fill="#0f9d58" fill-opacity="0" clip-path="url(#rablfilter12)"/><circle cx="737.6521739130435" cy="386.9962464159794" r="4" fill="#0f9d58" fill-opacity="0" clip-path="url(#rablfilter12)"/><circle cx="755.4130434782609" cy="393.630339099684" r="4" fill="#0f9d58" fill-opacity="0" clip-path="url(#rablfilter12)"/><circle cx="773.1739130434783" cy="398.89813037003825" r="4" fill="#0f9d58" fill-opacity="0" clip-path="url(#rablfilter12)"/><circle cx="790.9347826086956" cy="403.2053286193342" r="4" fill="#0f9d58" fill-opacity="0" clip-path="url(#rablfilter12)"/><circle cx="808.695652173913" cy="405.5007408464055" r="4" fill="#0f9d58" fill-opacity="0" clip-path="url(#rablfilter12)"/><circle cx="826.4565217391304" cy="412.1263571695994" r="4" fill="#0f9d58" fill-opacity="0" clip-path="url(#rablfilter12)"/><circle cx="844.2173913043479" cy="418.12068827627024" r="4" fill="#0f9d58" fill-opacity="0" clip-path="url(#rablfilter12)"/><circle cx="861.9782608695652" cy="422.7729378102905" r="4" fill="#0f9d58" fill-opacity="0" clip-path="url(#rablfilter12)"/><circle cx="879.7391304347826" cy="430.40432642735533" r="4" fill="#0f9d58" fill-opacity="0" clip-path="url(#rablfilter12)"/><circle cx="897.5" cy="431.2579317766531" r="4" fill="#0f9d58" fill-opacity="0" clip-path="url(#rablfilter12)"/></g><g/><g><text x="80.5" y="491.6999816894531" style="cursor: default; user-select: none; -webkit-font-smoothing: antialiased; font-family: Roboto; font-size: 12px;" fill="#757575" dx="-13.478124618530273px">1976</text><text x="116.02173913043478" y="491.6999816894531" style="cursor: default; user-select: none; -webkit-font-smoothing: antialiased; font-family: Roboto; font-size: 12px;" fill="#757575" dx="-13.478124618530273px">1978</text><text x="151.54347826086956" y="491.6999816894531" style="cursor: default; user-select: none; -webkit-font-smoothing: antialiased; font-family: Roboto; font-size: 12px;" fill="#757575" dx="-13.478124618530273px">1980</text><text x="187.06521739130434" y="491.6999816894531" style="cursor: default; user-select: none; -webkit-font-smoothing: antialiased; font-family: Roboto; font-size: 12px;" fill="#757575" dx="-13.478124618530273px">1982</text><text x="222.58695652173913" y="491.6999816894531" style="cursor: default; user-select: none; -webkit-font-smoothing: antialiased; font-family: Roboto; font-size: 12px;" fill="#757575" dx="-13.478124618530273px">1984</text><text x="258.1086956521739" y="491.6999816894531" style="cursor: default; user-select: none; -webkit-font-smoothing: antialiased; font-family: Roboto; font-size: 12px;" fill="#757575" dx="-13.478124618530273px">1986</text><text x="293.6304347826087" y="491.6999816894531" style="cursor: default; user-select: none; -webkit-font-smoothing: antialiased; font-family: Roboto; font-size: 12px;" fill="#757575" dx="-13.478124618530273px">1988</text><text x="329.1521739130435" y="491.6999816894531" style="cursor: default; user-select: none; -webkit-font-smoothing: antialiased; font-family: Roboto; font-size: 12px;" fill="#757575" dx="-13.478124618530273px">1990</text><text x="364.67391304347825" y="491.6999816894531" style="cursor: default; user-select: none; -webkit-font-smoothing: antialiased; font-family: Roboto; font-size: 12px;" fill="#757575" dx="-13.478124618530273px">1992</text><text x="400.19565217391306" y="491.6999816894531" style="cursor: default; user-select: none; -webkit-font-smoothing: antialiased; font-family: Roboto; font-size: 12px;" fill="#757575" dx="-13.478124618530273px">1994</text><text x="435.7173913043478" y="491.6999816894531" style="cursor: default; user-select: none; -webkit-font-smoothing: antialiased; font-family: Roboto; font-size: 12px;" fill="#757575" dx="-13.478124618530273px">1996</text><text x="471.2391304347826" y="491.6999816894531" style="cursor: default; user-select: none; -webkit-font-smoothing: antialiased; font-family: Roboto; font-size: 12px;" fill="#757575" dx="-13.478124618530273px">1998</text><text x="506.7608695652174" y="491.6999816894531" style="cursor: default; user-select: none; -webkit-font-smoothing: antialiased; font-family: Roboto; font-size: 12px;" fill="#757575" dx="-13.478124618530273px">2000</text><text x="542.2826086956521" y="491.6999816894531" style="cursor: default; user-select: none; -webkit-font-smoothing: antialiased; font-family: Roboto; font-size: 12px;" fill="#757575" dx="-13.478124618530273px">2002</text><text x="577.804347826087" y="491.6999816894531" style="cursor: default; user-select: none; -webkit-font-smoothing: antialiased; font-family: Roboto; font-size: 12px;" fill="#757575" dx="-13.478124618530273px">2004</text><text x="613.3260869565217" y="491.6999816894531" style="cursor: default; user-select: none; -webkit-font-smoothing: antialiased; font-family: Roboto; font-size: 12px;" fill="#757575" dx="-13.478124618530273px">2006</text><text x="648.8478260869565" y="491.6999816894531" style="cursor: default; user-select: none; -webkit-font-smoothing: antialiased; font-family: Roboto; font-size: 12px;" fill="#757575" dx="-13.478124618530273px">2008</text><text x="684.3695652173913" y="491.6999816894531" style="cursor: default; user-select: none; -webkit-font-smoothing: antialiased; font-family: Roboto; font-size: 12px;" fill="#757575" dx="-13.478124618530273px">2010</text><text x="719.8913043478261" y="491.6999816894531" style="cursor: default; user-select: none; -webkit-font-smoothing: antialiased; font-family: Roboto; font-size: 12px;" fill="#757575" dx="-13.478124618530273px">2012</text><text x="755.4130434782609" y="491.6999816894531" style="cursor: default; user-select: none; -webkit-font-smoothing: antialiased; font-family: Roboto; font-size: 12px;" fill="#757575" dx="-13.478124618530273px">2014</text><text x="790.9347826086956" y="491.6999816894531" style="cursor: default; user-select: none; -webkit-font-smoothing: antialiased; font-family: Roboto; font-size: 12px;" fill="#757575" dx="-13.478124618530273px">2016</text><text x="826.4565217391304" y="491.6999816894531" style="cursor: default; user-select: none; -webkit-font-smoothing: antialiased; font-family: Roboto; font-size: 12px;" fill="#757575" dx="-13.478124618530273px">2018</text><text x="861.9782608695652" y="491.6999816894531" style="cursor: default; user-select: none; -webkit-font-smoothing: antialiased; font-family: Roboto; font-size: 12px;" fill="#757575" dx="-13.478124618530273px">2020</text><text x="897.5" y="491.6999816894531" style="cursor: default; user-select: none; -webkit-font-smoothing: antialiased; font-family: Roboto; font-size: 12px;" fill="#757575" dx="-13.478124618530273px">2022</text><text x="489" y="523.6999816894531" style="cursor: default; user-select: none; -webkit-font-smoothing: antialiased; font-family: Roboto; font-size: 12px;" fill="#424242" dx="-11.887499809265137px">Year</text><text x="62.5" y="478.6999816894531" style="cursor: default; user-select: none; -webkit-font-smoothing: antialiased; font-family: Roboto; font-size: 12px;" fill="#757575" dx="-6.743750095367432px">0</text><text x="62.5" y="413.5333048502605" style="cursor: default; user-select: none; -webkit-font-smoothing: antialiased; font-family: Roboto; font-size: 12px;" fill="#757575" dx="-20.21875px">500</text><text x="62.5" y="348.3666890462239" style="cursor: default; user-select: none; -webkit-font-smoothing: antialiased; font-family: Roboto; font-size: 12px;" fill="#757575" dx="-29.3125px">1,000</text><text x="62.5" y="283.1999816894531" style="cursor: default; user-select: none; -webkit-font-smoothing: antialiased; font-family: Roboto; font-size: 12px;" fill="#757575" dx="-29.3125px">1,500</text><text x="62.5" y="218.0333353678385" style="cursor: default; user-select: none; -webkit-font-smoothing: antialiased; font-family: Roboto; font-size: 12px;" fill="#757575" dx="-29.3125px">2,000</text><text x="62.5" y="152.86665852864581" style="cursor: default; user-select: none; -webkit-font-smoothing: antialiased; font-family: Roboto; font-size: 12px;" fill="#757575" dx="-29.3125px">2,500</text><text x="62.5" y="87.69999694824219" style="cursor: default; user-select: none; -webkit-font-smoothing: antialiased; font-family: Roboto; font-size: 12px;" fill="#757575" dx="-29.3125px">3,000</text><text x="15.1875" y="276.1999816894531" style="cursor: default; user-select: none; -webkit-font-smoothing: antialiased; font-family: Roboto; font-size: 12px;" fill="#424242" dx="-51.00312423706055px" transform="rotate(-90 15.1875 279)">results per 100,000</text></g><g/><g/><g/></svg>