<svg xmlns="http://www.w3.org/2000/svg" width="1053" height="526.5"><defs><clipPath id="rablfilter3"><rect x="67.5" y="83.5" width="839" height="391"/></clipPath></defs><g><rect x="0" y="0" width="1053" height="526.5" fill="#ffffff" fill-opacity="1" stroke="#ffffff" stroke-opacity="0" stroke-width="0"/><text x="0" y="14.999999046325684" style="cursor: default; user-select: none; -webkit-font-smoothing: antialiased; font-family: Roboto; font-size: 16px;" fill="#757575" dx="0px">Results per 100,000 citations in PubMed</text><text x="0" y="36.27272605895996" style="cursor: default; user-select: none; -webkit-font-smoothing: antialiased; font-family: Roboto; font-size: 14px;" fill="#BDBDBD" dx="0px">proportion for each search by year, 1976 to 2022</text><rect x="948.8877868652344" y="83.5" width="12" height="12" rx="2" ry="2" fill="#4285f4"/><text x="968.8877868652344" y="96.68182373046875" style="cursor: default; user-select: none; -webkit-font-smoothing: antialiased; font-family: Roboto;" fill="#757575" dx="0px">opioids</text><rect x="948.8877868652344" y="116.31818199157715" width="12" height="12" rx="2" ry="2" fill="#db4437"/><text x="968.8877868652344" y="129.49999618530273" style="cursor: default; user-select: none; -webkit-font-smoothing: antialiased; font-family: Roboto;" fill="#757575" dx="0px">stem cell</text><rect x="948.8877868652344" y="149.1363639831543" width="12" height="12" rx="2" ry="2" fill="#f4b400"/><text x="968.8877868652344" y="162.31818389892578" style="cursor: default; user-select: none; -webkit-font-smoothing: antialiased; font-family: Roboto;" fill="#757575" dx="0px">Neuropeptide</text><rect x="67.5" y="83.5" width="839" height="391" fill="#ffffff" fill-opacity="1" stroke="#ffffff" stroke-opacity="0" stroke-width="1"/></g><g><line x1="67.5" x2="906.5" y1="474.5" y2="474.5" stroke="#9E9E9E" stroke-width="1"/><line x1="67.5" x2="906.5" y1="409.33333333333337" y2="409.33333333333337" stroke="#E0E0E0" stroke-width="1"/><line x1="67.5" x2="906.5" y1="344.16666666666663" y2="344.16666666666663" stroke="#E0E0E0" stroke-width="1"/><line x1="67.5" x2="906.5" y1="279" y2="279" stroke="#E0E0E0" stroke-width="1"/><line x1="67.5" x2="906.5" y1="213.83333333333331" y2="213.83333333333331" stroke="#E0E0E0" stroke-width="1"/><line x1="67.5" x2="906.5" y1="148.66666666666666" y2="148.66666666666666" stroke="#E0E0E0" stroke-width="1"/><line x1="67.5" x2="906.5" y1="83.5" y2="83.5" stroke="#E0E0E0" stroke-width="1"/></g><g><path d="M 79.5 408.0636321336099 L 97.21739130434783 410.0872998924625 L 114.93478260869566 409.14424627702437 L 132.65217391304347 404.5713492569755 L 150.3695652173913 397.6544321535237 L 168.08695652173913 392.8156910228075 L 185.80434782608694 378.8079086496207 L 203.5217391304348 380.6623238401633 L 221.2391304347826 376.56011864557644 L 238.95652173913044 375.7711624398926 L 256.67391304347825 372.6380794203462 L 274.3913043478261 382.6079832743298 L 292.1086956521739 387.02864209968874 L 309.82608695652175 386.9971353733612 L 327.5434782608696 381.356738237527 L 345.2608695652174 385.2841619039784 L 362.9782608695652 386.43735818851223 L 380.695652173913 386.7663817264138 L 398.4130434782609 388.08801027092176 L 416.1304347826087 388.37633251503615 L 433.8478260869565 387.68837799980236 L 451.5652173913043 386.3224426574213 L 469.2826086956522 387.63874711866504 L 487 391.77724205509656 L 504.7173913043478 390.05593521791894 L 522.4347826086956 397.03184204519516 L 540.1521739130435 399.5907517510755 L 557.8695652173914 393.8340778314474 L 575.5869565217392 397.5753279449133 L 593.304347826087 399.26886652151677 L 611.0217391304348 401.68021938174235 L 628.7391304347826 403.01571271804386 L 646.4565217391304 402.9211238782319 L 664.1739130434783 405.8749798224374 L 681.891304347826 406.62900769624866 L 699.608695652174 409.43269028516477 L 717.3260869565217 408.0552554596757 L 735.0434782608696 408.1337312939662 L 752.7608695652174 408.11673928062834 L 770.4782608695652 408.7838334417242 L 788.195652173913 406.80696517103195 L 805.9130434782609 400.1865865270935 L 823.6304347826086 392.7812030675945 L 841.3478260869565 383.43419684976413 L 859.0652173913044 385.22874123296333 L 876.7826086956521 388.75684003695585 L 894.5 390.2441226008673" fill="none" stroke="#4285f4" stroke-width="2" clip-path="url(#rablfilter3)"/><circle cx="79.5" cy="408.0636321336099" r="4" fill="#4285f4" fill-opacity="0" clip-path="url(#rablfilter3)"/><circle cx="97.21739130434783" cy="410.0872998924625" r="4" fill="#4285f4" fill-opacity="0" clip-path="url(#rablfilter3)"/><circle cx="114.93478260869566" cy="409.14424627702437" r="4" fill="#4285f4" fill-opacity="0" clip-path="url(#rablfilter3)"/><circle cx="132.65217391304347" cy="404.5713492569755" r="4" fill="#4285f4" fill-opacity="0" clip-path="url(#rablfilter3)"/><circle cx="150.3695652173913" cy="397.6544321535237" r="4" fill="#4285f4" fill-opacity="0" clip-path="url(#rablfilter3)"/><circle cx="168.08695652173913" cy="392.8156910228075" r="4" fill="#4285f4" fill-opacity="0" clip-path="url(#rablfilter3)"/><circle cx="185.80434782608694" cy="378.8079086496207" r="4" fill="#4285f4" fill-opacity="0" clip-path="url(#rablfilter3)"/><circle cx="203.5217391304348" cy="380.6623238401633" r="4" fill="#4285f4" fill-opacity="0" clip-path="url(#rablfilter3)"/><circle cx="221.2391304347826" cy="376.56011864557644" r="4" fill="#4285f4" fill-opacity="0" clip-path="url(#rablfilter3)"/><circle cx="238.95652173913044" cy="375.7711624398926" r="4" fill="#4285f4" fill-opacity="0" clip-path="url(#rablfilter3)"/><circle cx="256.67391304347825" cy="372.6380794203462" r="4" fill="#4285f4" fill-opacity="0" clip-path="url(#rablfilter3)"/><circle cx="274.3913043478261" cy="382.6079832743298" r="4" fill="#4285f4" fill-opacity="0" clip-path="url(#rablfilter3)"/><circle cx="292.1086956521739" cy="387.02864209968874" r="4" fill="#4285f4" fill-opacity="0" clip-path="url(#rablfilter3)"/><circle cx="309.82608695652175" cy="386.9971353733612" r="4" fill="#4285f4" fill-opacity="0" clip-path="url(#rablfilter3)"/><circle cx="327.5434782608696" cy="381.356738237527" r="4" fill="#4285f4" fill-opacity="0" clip-path="url(#rablfilter3)"/><circle cx="345.2608695652174" cy="385.2841619039784" r="4" fill="#4285f4" fill-opacity="0" clip-path="url(#rablfilter3)"/><circle cx="362.9782608695652" cy="386.43735818851223" r="4" fill="#4285f4" fill-opacity="0" clip-path="url(#rablfilter3)"/><circle cx="380.695652173913" cy="386.7663817264138" r="4" fill="#4285f4" fill-opacity="0" clip-path="url(#rablfilter3)"/><circle cx="398.4130434782609" cy="388.08801027092176" r="4" fill="#4285f4" fill-opacity="0" clip-path="url(#rablfilter3)"/><circle cx="416.1304347826087" cy="388.37633251503615" r="4" fill="#4285f4" fill-opacity="0" clip-path="url(#rablfilter3)"/><circle cx="433.8478260869565" cy="387.68837799980236" r="4" fill="#4285f4" fill-opacity="0" clip-path="url(#rablfilter3)"/><circle cx="451.5652173913043" cy="386.3224426574213" r="4" fill="#4285f4" fill-opacity="0" clip-path="url(#rablfilter3)"/><circle cx="469.2826086956522" cy="387.63874711866504" r="4" fill="#4285f4" fill-opacity="0" clip-path="url(#rablfilter3)"/><circle cx="487" cy="391.77724205509656" r="4" fill="#4285f4" fill-opacity="0" clip-path="url(#rablfilter3)"/><circle cx="504.7173913043478" cy="390.05593521791894" r="4" fill="#4285f4" fill-opacity="0" clip-path="url(#rablfilter3)"/><circle cx="522.4347826086956" cy="397.03184204519516" r="4" fill="#4285f4" fill-opacity="0" clip-path="url(#rablfilter3)"/><circle cx="540.1521739130435" cy="399.5907517510755" r="4" fill="#4285f4" fill-opacity="0" clip-path="url(#rablfilter3)"/><circle cx="557.8695652173914" cy="393.8340778314474" r="4" fill="#4285f4" fill-opacity="0" clip-path="url(#rablfilter3)"/><circle cx="575.5869565217392" cy="397.5753279449133" r="4" fill="#4285f4" fill-opacity="0" clip-path="url(#rablfilter3)"/><circle cx="593.304347826087" cy="399.26886652151677" r="4" fill="#4285f4" fill-opacity="0" clip-path="url(#rablfilter3)"/><circle cx="611.0217391304348" cy="401.68021938174235" r="4" fill="#4285f4" fill-opacity="0" clip-path="url(#rablfilter3)"/><circle cx="628.7391304347826" cy="403.01571271804386" r="4" fill="#4285f4" fill-opacity="0" clip-path="url(#rablfilter3)"/><circle cx="646.4565217391304" cy="402.9211238782319" r="4" fill="#4285f4" fill-opacity="0" clip-path="url(#rablfilter3)"/><circle cx="664.1739130434783" cy="405.8749798224374" r="4" fill="#4285f4" fill-opacity="0" clip-path="url(#rablfilter3)"/><circle cx="681.891304347826" cy="406.62900769624866" r="4" fill="#4285f4" fill-opacity="0" clip-path="url(#rablfilter3)"/><circle cx="699.608695652174" cy="409.43269028516477" r="4" fill="#4285f4" fill-opacity="0" clip-path="url(#rablfilter3)"/><circle cx="717.3260869565217" cy="408.0552554596757" r="4" fill="#4285f4" fill-opacity="0" clip-path="url(#rablfilter3)"/><circle cx="735.0434782608696" cy="408.1337312939662" r="4" fill="#4285f4" fill-opacity="0" clip-path="url(#rablfilter3)"/><circle cx="752.7608695652174" cy="408.11673928062834" r="4" fill="#4285f4" fill-opacity="0" clip-path="url(#rablfilter3)"/><circle cx="770.4782608695652" cy="408.7838334417242" r="4" fill="#4285f4" fill-opacity="0" clip-path="url(#rablfilter3)"/><circle cx="788.195652173913" cy="406.80696517103195" r="4" fill="#4285f4" fill-opacity="0" clip-path="url(#rablfilter3)"/><circle cx="805.9130434782609" cy="400.1865865270935" r="4" fill="#4285f4" fill-opacity="0" clip-path="url(#rablfilter3)"/><circle cx="823.6304347826086" cy="392.7812030675945" r="4" fill="#4285f4" fill-opacity="0" clip-path="url(#rablfilter3)"/><circle cx="841.3478260869565" cy="383.43419684976413" r="4" fill="#4285f4" fill-opacity="0" clip-path="url(#rablfilter3)"/><circle cx="859.0652173913044" cy="385.22874123296333" r="4" fill="#4285f4" fill-opacity="0" clip-path="url(#rablfilter3)"/><circle cx="876.7826086956521" cy="388.75684003695585" r="4" fill="#4285f4" fill-opacity="0" clip-path="url(#rablfilter3)"/><circle cx="894.5" cy="390.2441226008673" r="4" fill="#4285f4" fill-opacity="0" clip-path="url(#rablfilter3)"/><path d="M 79.5 449.40749490584807 L 97.21739130434783 449.64942125480803 L 114.93478260869566 444.23650906609834 L 132.65217391304347 439.02760649230987 L 150.3695652173913 432.0608163071424 L 168.08695652173913 429.47715253225607 L 185.80434782608694 420.6181272000397 L 203.5217391304348 418.84571203081913 L 221.2391304347826 405.1395656294342 L 238.95652173913044 398.8506309604372 L 256.67391304347825 406.9522084817438 L 274.3913043478261 409.98082679222694 L 292.1086956521739 409.8223716218252 L 309.82608695652175 401.4569433172087 L 327.5434782608696 398.3870179673357 L 345.2608695652174 393.7673928858907 L 362.9782608695652 388.058334250175 L 380.695652173913 375.9787120949967 L 398.4130434782609 371.8746266310328 L 416.1304347826087 359.45572069876494 L 433.8478260869565 349.7367003190877 L 451.5652173913043 346.12762599753984 L 469.2826086956522 341.57263386491024 L 487 333.77895753742575 L 504.7173913043478 327.7322513581795 L 522.4347826086956 314.66093738111545 L 540.1521739130435 296.9996551492408 L 557.8695652173914 286.7982903452946 L 575.5869565217392 275.71002385764405 L 593.304347826087 262.31582610557876 L 611.0217391304348 251.19295621430516 L 628.7391304347826 233.1100695283007 L 646.4565217391304 220.48683739041113 L 664.1739130434783 212.9051654560129 L 681.891304347826 189.25091921910956 L 699.608695652174 184.05332191472098 L 717.3260869565217 171.1403430389478 L 735.0434782608696 159.03356289256223 L 752.7608695652174 158.0309655071933 L 770.4782608695652 147.07971761141596 L 788.195652173913 140.84251217654588 L 805.9130434782609 135.69680208592956 L 823.6304347826086 146.13989253850897 L 841.3478260869565 146.0139521867754 L 859.0652173913044 163.7329315896502 L 876.7826086956521 170.37252969177345 L 894.5 197.1549791085369" fill="none" stroke="#db4437" stroke-width="2" clip-path="url(#rablfilter3)"/><circle cx="79.5" cy="449.40749490584807" r="4" fill="#db4437" fill-opacity="0" clip-path="url(#rablfilter3)"/><circle cx="97.21739130434783" cy="449.64942125480803" r="4" fill="#db4437" fill-opacity="0" clip-path="url(#rablfilter3)"/><circle cx="114.93478260869566" cy="444.23650906609834" r="4" fill="#db4437" fill-opacity="0" clip-path="url(#rablfilter3)"/><circle cx="132.65217391304347" cy="439.02760649230987" r="4" fill="#db4437" fill-opacity="0" clip-path="url(#rablfilter3)"/><circle cx="150.3695652173913" cy="432.0608163071424" r="4" fill="#db4437" fill-opacity="0" clip-path="url(#rablfilter3)"/><circle cx="168.08695652173913" cy="429.47715253225607" r="4" fill="#db4437" fill-opacity="0" clip-path="url(#rablfilter3)"/><circle cx="185.80434782608694" cy="420.6181272000397" r="4" fill="#db4437" fill-opacity="0" clip-path="url(#rablfilter3)"/><circle cx="203.5217391304348" cy="418.84571203081913" r="4" fill="#db4437" fill-opacity="0" clip-path="url(#rablfilter3)"/><circle cx="221.2391304347826" cy="405.1395656294342" r="4" fill="#db4437" fill-opacity="0" clip-path="url(#rablfilter3)"/><circle cx="238.95652173913044" cy="398.8506309604372" r="4" fill="#db4437" fill-opacity="0" clip-path="url(#rablfilter3)"/><circle cx="256.67391304347825" cy="406.9522084817438" r="4" fill="#db4437" fill-opacity="0" clip-path="url(#rablfilter3)"/><circle cx="274.3913043478261" cy="409.98082679222694" r="4" fill="#db4437" fill-opacity="0" clip-path="url(#rablfilter3)"/><circle cx="292.1086956521739" cy="409.8223716218252" r="4" fill="#db4437" fill-opacity="0" clip-path="url(#rablfilter3)"/><circle cx="309.82608695652175" cy="401.4569433172087" r="4" fill="#db4437" fill-opacity="0" clip-path="url(#rablfilter3)"/><circle cx="327.5434782608696" cy="398.3870179673357" r="4" fill="#db4437" fill-opacity="0" clip-path="url(#rablfilter3)"/><circle cx="345.2608695652174" cy="393.7673928858907" r="4" fill="#db4437" fill-opacity="0" clip-path="url(#rablfilter3)"/><circle cx="362.9782608695652" cy="388.058334250175" r="4" fill="#db4437" fill-opacity="0" clip-path="url(#rablfilter3)"/><circle cx="380.695652173913" cy="375.9787120949967" r="4" fill="#db4437" fill-opacity="0" clip-path="url(#rablfilter3)"/><circle cx="398.4130434782609" cy="371.8746266310328" r="4" fill="#db4437" fill-opacity="0" clip-path="url(#rablfilter3)"/><circle cx="416.1304347826087" cy="359.45572069876494" r="4" fill="#db4437" fill-opacity="0" clip-path="url(#rablfilter3)"/><circle cx="433.8478260869565" cy="349.7367003190877" r="4" fill="#db4437" fill-opacity="0" clip-path="url(#rablfilter3)"/><circle cx="451.5652173913043" cy="346.12762599753984" r="4" fill="#db4437" fill-opacity="0" clip-path="url(#rablfilter3)"/><circle cx="469.2826086956522" cy="341.57263386491024" r="4" fill="#db4437" fill-opacity="0" clip-path="url(#rablfilter3)"/><circle cx="487" cy="333.77895753742575" r="4" fill="#db4437" fill-opacity="0" clip-path="url(#rablfilter3)"/><circle cx="504.7173913043478" cy="327.7322513581795" r="4" fill="#db4437" fill-opacity="0" clip-path="url(#rablfilter3)"/><circle cx="522.4347826086956" cy="314.66093738111545" r="4" fill="#db4437" fill-opacity="0" clip-path="url(#rablfilter3)"/><circle cx="540.1521739130435" cy="296.9996551492408" r="4" fill="#db4437" fill-opacity="0" clip-path="url(#rablfilter3)"/><circle cx="557.8695652173914" cy="286.7982903452946" r="4" fill="#db4437" fill-opacity="0" clip-path="url(#rablfilter3)"/><circle cx="575.5869565217392" cy="275.71002385764405" r="4" fill="#db4437" fill-opacity="0" clip-path="url(#rablfilter3)"/><circle cx="593.304347826087" cy="262.31582610557876" r="4" fill="#db4437" fill-opacity="0" clip-path="url(#rablfilter3)"/><circle cx="611.0217391304348" cy="251.19295621430516" r="4" fill="#db4437" fill-opacity="0" clip-path="url(#rablfilter3)"/><circle cx="628.7391304347826" cy="233.1100695283007" r="4" fill="#db4437" fill-opacity="0" clip-path="url(#rablfilter3)"/><circle cx="646.4565217391304" cy="220.48683739041113" r="4" fill="#db4437" fill-opacity="0" clip-path="url(#rablfilter3)"/><circle cx="664.1739130434783" cy="212.9051654560129" r="4" fill="#db4437" fill-opacity="0" clip-path="url(#rablfilter3)"/><circle cx="681.891304347826" cy="189.25091921910956" r="4" fill="#db4437" fill-opacity="0" clip-path="url(#rablfilter3)"/><circle cx="699.608695652174" cy="184.05332191472098" r="4" fill="#db4437" fill-opacity="0" clip-path="url(#rablfilter3)"/><circle cx="717.3260869565217" cy="171.1403430389478" r="4" fill="#db4437" fill-opacity="0" clip-path="url(#rablfilter3)"/><circle cx="735.0434782608696" cy="159.03356289256223" r="4" fill="#db4437" fill-opacity="0" clip-path="url(#rablfilter3)"/><circle cx="752.7608695652174" cy="158.0309655071933" r="4" fill="#db4437" fill-opacity="0" clip-path="url(#rablfilter3)"/><circle cx="770.4782608695652" cy="147.07971761141596" r="4" fill="#db4437" fill-opacity="0" clip-path="url(#rablfilter3)"/><circle cx="788.195652173913" cy="140.84251217654588" r="4" fill="#db4437" fill-opacity="0" clip-path="url(#rablfilter3)"/><circle cx="805.9130434782609" cy="135.69680208592956" r="4" fill="#db4437" fill-opacity="0" clip-path="url(#rablfilter3)"/><circle cx="823.6304347826086" cy="146.13989253850897" r="4" fill="#db4437" fill-opacity="0" clip-path="url(#rablfilter3)"/><circle cx="841.3478260869565" cy="146.0139521867754" r="4" fill="#db4437" fill-opacity="0" clip-path="url(#rablfilter3)"/><circle cx="859.0652173913044" cy="163.7329315896502" r="4" fill="#db4437" fill-opacity="0" clip-path="url(#rablfilter3)"/><circle cx="876.7826086956521" cy="170.37252969177345" r="4" fill="#db4437" fill-opacity="0" clip-path="url(#rablfilter3)"/><circle cx="894.5" cy="197.1549791085369" r="4" fill="#db4437" fill-opacity="0" clip-path="url(#rablfilter3)"/><path d="M 79.5 259.6039024014074 L 97.21739130434783 256.7592290346281 L 114.93478260869566 247.30867469525953 L 132.65217391304347 243.3751860514565 L 150.3695652173913 216.15030846054734 L 168.08695652173913 217.456294304054 L 185.80434782608694 201.21360835800988 L 203.5217391304348 198.12299506983945 L 221.2391304347826 170.2803852577897 L 238.95652173913044 167.20115062460067 L 256.67391304347825 160.79210999243418 L 274.3913043478261 184.44701001928144 L 292.1086956521739 187.37307922484422 L 309.82608695652175 187.8270290864054 L 327.5434782608696 180.16475573118424 L 345.2608695652174 191.93587510061735 L 362.9782608695652 181.7579577870153 L 380.695652173913 192.86259114814715 L 398.4130434782609 209.4438418138308 L 416.1304347826087 221.52441760310882 L 433.8478260869565 237.89856032734102 L 451.5652173913043 239.6926643523889 L 469.2826086956522 245.45972415013347 L 487 265.6481246781783 L 504.7173913043478 277.8879859391418 L 522.4347826086956 287.83862892794644 L 540.1521739130435 294.0724322176674 L 557.8695652173914 300.4983450614211 L 575.5869565217392 316.6984878869964 L 593.304347826087 326.25205529975847 L 611.0217391304348 333.56913848850206 L 628.7391304347826 342.06769582109916 L 646.4565217391304 348.6998917050875 L 664.1739130434783 358.4418886198547 L 681.891304347826 363.3000334004172 L 699.608695652174 376.4967547101776 L 717.3260869565217 383.9620108584964 L 735.0434782608696 386.99761600422016 L 752.7608695652174 393.6315464188863 L 770.4782608695652 398.8984309036297 L 788.195652173913 403.20627182906554 L 805.9130434782609 405.503968634368 L 823.6304347826086 412.12372892557744 L 841.3478260869565 418.1355640841129 L 859.0652173913044 422.78900888848744 L 876.7826086956521 430.3886805649476 L 894.5 430.2577587122997" fill="none" stroke="#f4b400" stroke-width="2" clip-path="url(#rablfilter3)"/><circle cx="79.5" cy="259.6039024014074" r="4" fill="#f4b400" fill-opacity="0" clip-path="url(#rablfilter3)"/><circle cx="97.21739130434783" cy="256.7592290346281" r="4" fill="#f4b400" fill-opacity="0" clip-path="url(#rablfilter3)"/><circle cx="114.93478260869566" cy="247.30867469525953" r="4" fill="#f4b400" fill-opacity="0" clip-path="url(#rablfilter3)"/><circle cx="132.65217391304347" cy="243.3751860514565" r="4" fill="#f4b400" fill-opacity="0" clip-path="url(#rablfilter3)"/><circle cx="150.3695652173913" cy="216.15030846054734" r="4" fill="#f4b400" fill-opacity="0" clip-path="url(#rablfilter3)"/><circle cx="168.08695652173913" cy="217.456294304054" r="4" fill="#f4b400" fill-opacity="0" clip-path="url(#rablfilter3)"/><circle cx="185.80434782608694" cy="201.21360835800988" r="4" fill="#f4b400" fill-opacity="0" clip-path="url(#rablfilter3)"/><circle cx="203.5217391304348" cy="198.12299506983945" r="4" fill="#f4b400" fill-opacity="0" clip-path="url(#rablfilter3)"/><circle cx="221.2391304347826" cy="170.2803852577897" r="4" fill="#f4b400" fill-opacity="0" clip-path="url(#rablfilter3)"/><circle cx="238.95652173913044" cy="167.20115062460067" r="4" fill="#f4b400" fill-opacity="0" clip-path="url(#rablfilter3)"/><circle cx="256.67391304347825" cy="160.79210999243418" r="4" fill="#f4b400" fill-opacity="0" clip-path="url(#rablfilter3)"/><circle cx="274.3913043478261" cy="184.44701001928144" r="4" fill="#f4b400" fill-opacity="0" clip-path="url(#rablfilter3)"/><circle cx="292.1086956521739" cy="187.37307922484422" r="4" fill="#f4b400" fill-opacity="0" clip-path="url(#rablfilter3)"/><circle cx="309.82608695652175" cy="187.8270290864054" r="4" fill="#f4b400" fill-opacity="0" clip-path="url(#rablfilter3)"/><circle cx="327.5434782608696" cy="180.16475573118424" r="4" fill="#f4b400" fill-opacity="0" clip-path="url(#rablfilter3)"/><circle cx="345.2608695652174" cy="191.93587510061735" r="4" fill="#f4b400" fill-opacity="0" clip-path="url(#rablfilter3)"/><circle cx="362.9782608695652" cy="181.7579577870153" r="4" fill="#f4b400" fill-opacity="0" clip-path="url(#rablfilter3)"/><circle cx="380.695652173913" cy="192.86259114814715" r="4" fill="#f4b400" fill-opacity="0" clip-path="url(#rablfilter3)"/><circle cx="398.4130434782609" cy="209.4438418138308" r="4" fill="#f4b400" fill-opacity="0" clip-path="url(#rablfilter3)"/><circle cx="416.1304347826087" cy="221.52441760310882" r="4" fill="#f4b400" fill-opacity="0" clip-path="url(#rablfilter3)"/><circle cx="433.8478260869565" cy="237.89856032734102" r="4" fill="#f4b400" fill-opacity="0" clip-path="url(#rablfilter3)"/><circle cx="451.5652173913043" cy="239.6926643523889" r="4" fill="#f4b400" fill-opacity="0" clip-path="url(#rablfilter3)"/><circle cx="469.2826086956522" cy="245.45972415013347" r="4" fill="#f4b400" fill-opacity="0" clip-path="url(#rablfilter3)"/><circle cx="487" cy="265.6481246781783" r="4" fill="#f4b400" fill-opacity="0" clip-path="url(#rablfilter3)"/><circle cx="504.7173913043478" cy="277.8879859391418" r="4" fill="#f4b400" fill-opacity="0" clip-path="url(#rablfilter3)"/><circle cx="522.4347826086956" cy="287.83862892794644" r="4" fill="#f4b400" fill-opacity="0" clip-path="url(#rablfilter3)"/><circle cx="540.1521739130435" cy="294.0724322176674" r="4" fill="#f4b400" fill-opacity="0" clip-path="url(#rablfilter3)"/><circle cx="557.8695652173914" cy="300.4983450614211" r="4" fill="#f4b400" fill-opacity="0" clip-path="url(#rablfilter3)"/><circle cx="575.5869565217392" cy="316.6984878869964" r="4" fill="#f4b400" fill-opacity="0" clip-path="url(#rablfilter3)"/><circle cx="593.304347826087" cy="326.25205529975847" r="4" fill="#f4b400" fill-opacity="0" clip-path="url(#rablfilter3)"/><circle cx="611.0217391304348" cy="333.56913848850206" r="4" fill="#f4b400" fill-opacity="0" clip-path="url(#rablfilter3)"/><circle cx="628.7391304347826" cy="342.06769582109916" r="4" fill="#f4b400" fill-opacity="0" clip-path="url(#rablfilter3)"/><circle cx="646.4565217391304" cy="348.6998917050875" r="4" fill="#f4b400" fill-opacity="0" clip-path="url(#rablfilter3)"/><circle cx="664.1739130434783" cy="358.4418886198547" r="4" fill="#f4b400" fill-opacity="0" clip-path="url(#rablfilter3)"/><circle cx="681.891304347826" cy="363.3000334004172" r="4" fill="#f4b400" fill-opacity="0" clip-path="url(#rablfilter3)"/><circle cx="699.608695652174" cy="376.4967547101776" r="4" fill="#f4b400" fill-opacity="0" clip-path="url(#rablfilter3)"/><circle cx="717.3260869565217" cy="383.9620108584964" r="4" fill="#f4b400" fill-opacity="0" clip-path="url(#rablfilter3)"/><circle cx="735.0434782608696" cy="386.99761600422016" r="4" fill="#f4b400" fill-opacity="0" clip-path="url(#rablfilter3)"/><circle cx="752.7608695652174" cy="393.6315464188863" r="4" fill="#f4b400" fill-opacity="0" clip-path="url(#rablfilter3)"/><circle cx="770.4782608695652" cy="398.8984309036297" r="4" fill="#f4b400" fill-opacity="0" clip-path="url(#rablfilter3)"/><circle cx="788.195652173913" cy="403.20627182906554" r="4" fill="#f4b400" fill-opacity="0" clip-path="url(#rablfilter3)"/><circle cx="805.9130434782609" cy="405.503968634368" r="4" fill="#f4b400" fill-opacity="0" clip-path="url(#rablfilter3)"/><circle cx="823.6304347826086" cy="412.12372892557744" r="4" fill="#f4b400" fill-opacity="0" clip-path="url(#rablfilter3)"/><circle cx="841.3478260869565" cy="418.1355640841129" r="4" fill="#f4b400" fill-opacity="0" clip-path="url(#rablfilter3)"/><circle cx="859.0652173913044" cy="422.78900888848744" r="4" fill="#f4b400" fill-opacity="0" clip-path="url(#rablfilter3)"/><circle cx="876.7826086956521" cy="430.3886805649476" r="4" fill="#f4b400" fill-opacity="0" clip-path="url(#rablfilter3)"/><circle cx="894.5" cy="430.2577587122997" r="4" fill="#f4b400" fill-opacity="0" clip-path="url(#rablfilter3)"/></g><g/><g><text x="79.5" y="491.40911865234375" style="cursor: default; user-select: none; -webkit-font-smoothing: antialiased; font-family: Roboto; font-size: 12px;" fill="#757575" dx="-13.4765625px">1976</text><text x="114.93478260869566" y="491.40911865234375" style="cursor: default; user-select: none; -webkit-font-smoothing: antialiased; font-family: Roboto; font-size: 12px;" fill="#757575" dx="-13.4765625px">1978</text><text x="150.3695652173913" y="491.40911865234375" style="cursor: default; user-select: none; -webkit-font-smoothing: antialiased; font-family: Roboto; font-size: 12px;" fill="#757575" dx="-13.4765625px">1980</text><text x="185.80434782608694" y="491.40911865234375" style="cursor: default; user-select: none; -webkit-font-smoothing: antialiased; font-family: Roboto; font-size: 12px;" fill="#757575" dx="-13.4765625px">1982</text><text x="221.2391304347826" y="491.40911865234375" style="cursor: default; user-select: none; -webkit-font-smoothing: antialiased; font-family: Roboto; font-size: 12px;" fill="#757575" dx="-13.4765625px">1984</text><text x="256.67391304347825" y="491.40911865234375" style="cursor: default; user-select: none; -webkit-font-smoothing: antialiased; font-family: Roboto; font-size: 12px;" fill="#757575" dx="-13.4765625px">1986</text><text x="292.1086956521739" y="491.40911865234375" style="cursor: default; user-select: none; -webkit-font-smoothing: antialiased; font-family: Roboto; font-size: 12px;" fill="#757575" dx="-13.4765625px">1988</text><text x="327.5434782608696" y="491.40911865234375" style="cursor: default; user-select: none; -webkit-font-smoothing: antialiased; font-family: Roboto; font-size: 12px;" fill="#757575" dx="-13.4765625px">1990</text><text x="362.9782608695652" y="491.40911865234375" style="cursor: default; user-select: none; -webkit-font-smoothing: antialiased; font-family: Roboto; font-size: 12px;" fill="#757575" dx="-13.4765625px">1992</text><text x="398.4130434782609" y="491.40911865234375" style="cursor: default; user-select: none; -webkit-font-smoothing: antialiased; font-family: Roboto; font-size: 12px;" fill="#757575" dx="-13.4765625px">1994</text><text x="433.8478260869565" y="491.40911865234375" style="cursor: default; user-select: none; -webkit-font-smoothing: antialiased; font-family: Roboto; font-size: 12px;" fill="#757575" dx="-13.4765625px">1996</text><text x="469.2826086956522" y="491.40911865234375" style="cursor: default; user-select: none; -webkit-font-smoothing: antialiased; font-family: Roboto; font-size: 12px;" fill="#757575" dx="-13.4765625px">1998</text><text x="504.7173913043478" y="491.40911865234375" style="cursor: default; user-select: none; -webkit-font-smoothing: antialiased; font-family: Roboto; font-size: 12px;" fill="#757575" dx="-13.4765625px">2000</text><text x="540.1521739130435" y="491.40911865234375" style="cursor: default; user-select: none; -webkit-font-smoothing: antialiased; font-family: Roboto; font-size: 12px;" fill="#757575" dx="-13.4765625px">2002</text><text x="575.5869565217392" y="491.40911865234375" style="cursor: default; user-select: none; -webkit-font-smoothing: antialiased; font-family: Roboto; font-size: 12px;" fill="#757575" dx="-13.4765625px">2004</text><text x="611.0217391304348" y="491.40911865234375" style="cursor: default; user-select: none; -webkit-font-smoothing: antialiased; font-family: Roboto; font-size: 12px;" fill="#757575" dx="-13.4765625px">2006</text><text x="646.4565217391304" y="491.40911865234375" style="cursor: default; user-select: none; -webkit-font-smoothing: antialiased; font-family: Roboto; font-size: 12px;" fill="#757575" dx="-13.4765625px">2008</text><text x="681.891304347826" y="491.40911865234375" style="cursor: default; user-select: none; -webkit-font-smoothing: antialiased; font-family: Roboto; font-size: 12px;" fill="#757575" dx="-13.4765625px">2010</text><text x="717.3260869565217" y="491.40911865234375" style="cursor: default; user-select: none; -webkit-font-smoothing: antialiased; font-family: Roboto; font-size: 12px;" fill="#757575" dx="-13.4765625px">2012</text><text x="752.7608695652174" y="491.40911865234375" style="cursor: default; user-select: none; -webkit-font-smoothing: antialiased; font-family: Roboto; font-size: 12px;" fill="#757575" dx="-13.4765625px">2014</text><text x="788.195652173913" y="491.40911865234375" style="cursor: default; user-select: none; -webkit-font-smoothing: antialiased; font-family: Roboto; font-size: 12px;" fill="#757575" dx="-13.4765625px">2016</text><text x="823.6304347826086" y="491.40911865234375" style="cursor: default; user-select: none; -webkit-font-smoothing: antialiased; font-family: Roboto; font-size: 12px;" fill="#757575" dx="-13.4765625px">2018</text><text x="859.0652173913044" y="491.40911865234375" style="cursor: default; user-select: none; -webkit-font-smoothing: antialiased; font-family: Roboto; font-size: 12px;" fill="#757575" dx="-13.4765625px">2020</text><text x="894.5" y="491.40911865234375" style="cursor: default; user-select: none; -webkit-font-smoothing: antialiased; font-family: Roboto; font-size: 12px;" fill="#757575" dx="-13.4765625px">2022</text><text x="487" y="523.0454921722412" style="cursor: default; user-select: none; -webkit-font-smoothing: antialiased; font-family: Roboto; font-size: 12px;" fill="#424242" dx="-11.889204025268555px">Year</text><text x="61.5" y="478.59090662002563" style="cursor: default; user-select: none; -webkit-font-smoothing: antialiased; font-family: Roboto; font-size: 12px;" fill="#757575" dx="-6.74005651473999px">0</text><text x="61.5" y="413.424229780833" style="cursor: default; user-select: none; -webkit-font-smoothing: antialiased; font-family: Roboto; font-size: 12px;" fill="#757575" dx="-20.220169067382812px">500</text><text x="61.5" y="348.25758345921827" style="cursor: default; user-select: none; -webkit-font-smoothing: antialiased; font-family: Roboto; font-size: 12px;" fill="#757575" dx="-29.311079025268555px">1,000</text><text x="61.5" y="283.09093713760376" style="cursor: default; user-select: none; -webkit-font-smoothing: antialiased; font-family: Roboto; font-size: 12px;" fill="#757575" dx="-29.311079025268555px">1,500</text><text x="61.5" y="217.924260298411" style="cursor: default; user-select: none; -webkit-font-smoothing: antialiased; font-family: Roboto; font-size: 12px;" fill="#757575" dx="-29.311079025268555px">2,000</text><text x="61.5" y="152.75756820042926" style="cursor: default; user-select: none; -webkit-font-smoothing: antialiased; font-family: Roboto; font-size: 12px;" fill="#757575" dx="-29.311079025268555px">2,500</text><text x="61.5" y="87.59091424942017" style="cursor: default; user-select: none; -webkit-font-smoothing: antialiased; font-family: Roboto; font-size: 12px;" fill="#757575" dx="-29.311079025268555px">3,000</text><text x="14.188920974731445" y="276.27275562286377" style="cursor: default; user-select: none; -webkit-font-smoothing: antialiased; font-family: Roboto; font-size: 12px;" fill="#424242" dx="-51.00497055053711px" transform="rotate(-90 14.188920974731445 279)">results per 100,000</text></g><g/><g/><g/></svg>