<svg xmlns="http://www.w3.org/2000/svg" width="1053" height="526.5"><defs><clipPath id="rablfilter10"><rect x="67.5" y="83.5" width="793" height="391"/></clipPath></defs><g><rect x="0" y="0" width="1053" height="526.5" fill="#ffffff" fill-opacity="1" stroke="#ffffff" stroke-opacity="0" stroke-width="0"/><text x="0" y="14.999999046325684" style="cursor: default; user-select: none; -webkit-font-smoothing: antialiased; font-family: Roboto; font-size: 16px;" fill="#757575" dx="0px">Results per 100,000 citations in PubMed</text><text x="0" y="36.27272605895996" style="cursor: default; user-select: none; -webkit-font-smoothing: antialiased; font-family: Roboto; font-size: 14px;" fill="#BDBDBD" dx="0px">proportion for each search by year, 1960 to 2022</text><rect x="901.1747131347656" y="83.5" width="12" height="12" rx="2" ry="2" fill="#4285f4"/><text x="921.1747131347656" y="96.68182373046875" style="cursor: default; user-select: none; -webkit-font-smoothing: antialiased; font-family: Roboto;" fill="#757575" dx="0px">single cell</text><rect x="901.1747131347656" y="116.31818199157715" width="12" height="12" rx="2" ry="2" fill="#db4437"/><text x="921.1747131347656" y="129.49999618530273" style="cursor: default; user-select: none; -webkit-font-smoothing: antialiased; font-family: Roboto;" fill="#757575" dx="0px">climate change</text><rect x="901.1747131347656" y="149.1363639831543" width="12" height="12" rx="2" ry="2" fill="#f4b400"/><text x="921.1747131347656" y="162.31818389892578" style="cursor: default; user-select: none; -webkit-font-smoothing: antialiased; font-family: Roboto;" fill="#757575" dx="0px">RT PCR</text><rect x="901.1747131347656" y="181.95454597473145" width="12" height="12" rx="2" ry="2" fill="#0f9d58"/><text x="921.1747131347656" y="195.13635635375977" style="cursor: default; user-select: none; -webkit-font-smoothing: antialiased; font-family: Roboto;" fill="#757575" dx="0px">Immunotherapy</text><rect x="901.1747131347656" y="214.7727279663086" width="12" height="12" rx="2" ry="2" fill="#ab47bc"/><text x="921.1747131347656" y="227.9545440673828" style="cursor: default; user-select: none; -webkit-font-smoothing: antialiased; font-family: Roboto;" fill="#757575" dx="0px">Sanger sequencing</text><rect x="901.1747131347656" y="247.59090995788574" width="12" height="12" rx="2" ry="2" fill="#00acc1"/><text x="921.1747131347656" y="260.77273178100586" style="cursor: default; user-select: none; -webkit-font-smoothing: antialiased; font-family: Roboto;" fill="#757575" dx="0px">species conservation</text><rect x="901.1747131347656" y="280.4090919494629" width="12" height="12" rx="2" ry="2" fill="#ff7043"/><text x="921.1747131347656" y="293.5909194946289" style="cursor: default; user-select: none; -webkit-font-smoothing: antialiased; font-family: Roboto;" fill="#757575" dx="0px">Stem Cell</text><rect x="901.1747131347656" y="313.22727394104004" width="12" height="12" rx="2" ry="2" fill="#9e9d24"/><text x="921.1747131347656" y="326.40910720825195" style="cursor: default; user-select: none; -webkit-font-smoothing: antialiased; font-family: Roboto;" fill="#757575" dx="0px">Restriction enzyme</text><rect x="67.5" y="83.5" width="793" height="391" fill="#ffffff" fill-opacity="1" stroke="#ffffff" stroke-opacity="0" stroke-width="1"/></g><g><line x1="67.5" x2="860.5" y1="474.5" y2="474.5" stroke="#9E9E9E" stroke-width="1"/><line x1="67.5" x2="860.5" y1="409.33333333333337" y2="409.33333333333337" stroke="#E0E0E0" stroke-width="1"/><line x1="67.5" x2="860.5" y1="344.16666666666663" y2="344.16666666666663" stroke="#E0E0E0" stroke-width="1"/><line x1="67.5" x2="860.5" y1="279" y2="279" stroke="#E0E0E0" stroke-width="1"/><line x1="67.5" x2="860.5" y1="213.83333333333331" y2="213.83333333333331" stroke="#E0E0E0" stroke-width="1"/><line x1="67.5" x2="860.5" y1="148.66666666666666" y2="148.66666666666666" stroke="#E0E0E0" stroke-width="1"/><line x1="67.5" x2="860.5" y1="83.5" y2="83.5" stroke="#E0E0E0" stroke-width="1"/></g><g><path d="M 79.5 464.39592058598134 L 91.90322580645162 462.679120208576 L 104.30645161290323 462.8865184749085 L 116.70967741935485 463.2658760718483 L 129.11290322580646 460.02834495095925 L 141.51612903225805 460.7098296715835 L 153.9193548387097 455.04240549065315 L 166.32258064516128 454.2789740759638 L 178.7258064516129 452.8984127289149 L 191.1290322580645 447.44821253616027 L 203.53225806451613 447.8899659414411 L 215.93548387096774 445.1301585456366 L 228.33870967741936 436.1345469088846 L 240.74193548387098 433.00244492607544 L 253.14516129032256 433.427174060969 L 265.5483870967742 351.2480333705127 L 277.9516129032258 354.71011824706284 L 290.35483870967744 368.089821813088 L 302.758064516129 365.58968033581675 L 315.1612903225806 362.4016939542136 L 327.56451612903226 341.14624117517826 L 339.96774193548384 325.09765309683354 L 352.3709677419355 315.145352479594 L 364.7741935483871 287.28773177084173 L 377.1774193548387 269.6942782045039 L 389.5806451612903 273.3511640894623 L 401.98387096774195 264.44238908994583 L 414.38709677419354 260.15611667033454 L 426.7903225806451 254.40751863189575 L 439.19354838709677 237.38502857180677 L 451.5967741935484 227.5133733040042 L 464 216.5656275053515 L 476.4032258064516 199.90042063101032 L 488.80645161290323 196.7327438125255 L 501.2096774193548 186.2818651854181 L 513.6129032258066 187.52746971076198 L 526.016129032258 183.95377296530722 L 538.4193548387098 177.33221778141598 L 550.8225806451612 187.94571505203078 L 563.2258064516129 195.82853376200146 L 575.6290322580645 203.77002818054322 L 588.0322580645161 205.56292322909536 L 600.4354838709677 212.57117012283763 L 612.8387096774194 207.84213500531462 L 625.241935483871 198.43902780230923 L 637.6451612903226 207.18106268812983 L 650.0483870967741 211.33407367116916 L 662.4516129032259 206.37179845690392 L 674.8548387096774 211.80023171926135 L 687.258064516129 207.3955609362389 L 699.6612903225806 201.93695671249316 L 712.0645161290323 202.49438084077045 L 724.4677419354839 205.08611049440594 L 736.8709677419355 205.8730076606697 L 749.2741935483871 207.51843783633893 L 761.6774193548387 210.5473177642762 L 774.0806451612902 216.46721515598637 L 786.483870967742 216.21715971037275 L 798.8870967741935 214.8415359772569 L 811.2903225806452 211.08591188934196 L 823.6935483870968 219.2301758574587 L 836.0967741935484 214.96657953351024 L 848.5 218.0773821111146" fill="none" stroke="#4285f4" stroke-width="2" clip-path="url(#rablfilter10)"/><circle cx="79.5" cy="464.39592058598134" r="4" fill="#4285f4" fill-opacity="0" clip-path="url(#rablfilter10)"/><circle cx="91.90322580645162" cy="462.679120208576" r="4" fill="#4285f4" fill-opacity="0" clip-path="url(#rablfilter10)"/><circle cx="104.30645161290323" cy="462.8865184749085" r="4" fill="#4285f4" fill-opacity="0" clip-path="url(#rablfilter10)"/><circle cx="116.70967741935485" cy="463.2658760718483" r="4" fill="#4285f4" fill-opacity="0" clip-path="url(#rablfilter10)"/><circle cx="129.11290322580646" cy="460.02834495095925" r="4" fill="#4285f4" fill-opacity="0" clip-path="url(#rablfilter10)"/><circle cx="141.51612903225805" cy="460.7098296715835" r="4" fill="#4285f4" fill-opacity="0" clip-path="url(#rablfilter10)"/><circle cx="153.9193548387097" cy="455.04240549065315" r="4" fill="#4285f4" fill-opacity="0" clip-path="url(#rablfilter10)"/><circle cx="166.32258064516128" cy="454.2789740759638" r="4" fill="#4285f4" fill-opacity="0" clip-path="url(#rablfilter10)"/><circle cx="178.7258064516129" cy="452.8984127289149" r="4" fill="#4285f4" fill-opacity="0" clip-path="url(#rablfilter10)"/><circle cx="191.1290322580645" cy="447.44821253616027" r="4" fill="#4285f4" fill-opacity="0" clip-path="url(#rablfilter10)"/><circle cx="203.53225806451613" cy="447.8899659414411" r="4" fill="#4285f4" fill-opacity="0" clip-path="url(#rablfilter10)"/><circle cx="215.93548387096774" cy="445.1301585456366" r="4" fill="#4285f4" fill-opacity="0" clip-path="url(#rablfilter10)"/><circle cx="228.33870967741936" cy="436.1345469088846" r="4" fill="#4285f4" fill-opacity="0" clip-path="url(#rablfilter10)"/><circle cx="240.74193548387098" cy="433.00244492607544" r="4" fill="#4285f4" fill-opacity="0" clip-path="url(#rablfilter10)"/><circle cx="253.14516129032256" cy="433.427174060969" r="4" fill="#4285f4" fill-opacity="0" clip-path="url(#rablfilter10)"/><circle cx="265.5483870967742" cy="351.2480333705127" r="4" fill="#4285f4" fill-opacity="0" clip-path="url(#rablfilter10)"/><circle cx="277.9516129032258" cy="354.71011824706284" r="4" fill="#4285f4" fill-opacity="0" clip-path="url(#rablfilter10)"/><circle cx="290.35483870967744" cy="368.089821813088" r="4" fill="#4285f4" fill-opacity="0" clip-path="url(#rablfilter10)"/><circle cx="302.758064516129" cy="365.58968033581675" r="4" fill="#4285f4" fill-opacity="0" clip-path="url(#rablfilter10)"/><circle cx="315.1612903225806" cy="362.4016939542136" r="4" fill="#4285f4" fill-opacity="0" clip-path="url(#rablfilter10)"/><circle cx="327.56451612903226" cy="341.14624117517826" r="4" fill="#4285f4" fill-opacity="0" clip-path="url(#rablfilter10)"/><circle cx="339.96774193548384" cy="325.09765309683354" r="4" fill="#4285f4" fill-opacity="0" clip-path="url(#rablfilter10)"/><circle cx="352.3709677419355" cy="315.145352479594" r="4" fill="#4285f4" fill-opacity="0" clip-path="url(#rablfilter10)"/><circle cx="364.7741935483871" cy="287.28773177084173" r="4" fill="#4285f4" fill-opacity="0" clip-path="url(#rablfilter10)"/><circle cx="377.1774193548387" cy="269.6942782045039" r="4" fill="#4285f4" fill-opacity="0" clip-path="url(#rablfilter10)"/><circle cx="389.5806451612903" cy="273.3511640894623" r="4" fill="#4285f4" fill-opacity="0" clip-path="url(#rablfilter10)"/><circle cx="401.98387096774195" cy="264.44238908994583" r="4" fill="#4285f4" fill-opacity="0" clip-path="url(#rablfilter10)"/><circle cx="414.38709677419354" cy="260.15611667033454" r="4" fill="#4285f4" fill-opacity="0" clip-path="url(#rablfilter10)"/><circle cx="426.7903225806451" cy="254.40751863189575" r="4" fill="#4285f4" fill-opacity="0" clip-path="url(#rablfilter10)"/><circle cx="439.19354838709677" cy="237.38502857180677" r="4" fill="#4285f4" fill-opacity="0" clip-path="url(#rablfilter10)"/><circle cx="451.5967741935484" cy="227.5133733040042" r="4" fill="#4285f4" fill-opacity="0" clip-path="url(#rablfilter10)"/><circle cx="464" cy="216.5656275053515" r="4" fill="#4285f4" fill-opacity="0" clip-path="url(#rablfilter10)"/><circle cx="476.4032258064516" cy="199.90042063101032" r="4" fill="#4285f4" fill-opacity="0" clip-path="url(#rablfilter10)"/><circle cx="488.80645161290323" cy="196.7327438125255" r="4" fill="#4285f4" fill-opacity="0" clip-path="url(#rablfilter10)"/><circle cx="501.2096774193548" cy="186.2818651854181" r="4" fill="#4285f4" fill-opacity="0" clip-path="url(#rablfilter10)"/><circle cx="513.6129032258066" cy="187.52746971076198" r="4" fill="#4285f4" fill-opacity="0" clip-path="url(#rablfilter10)"/><circle cx="526.016129032258" cy="183.95377296530722" r="4" fill="#4285f4" fill-opacity="0" clip-path="url(#rablfilter10)"/><circle cx="538.4193548387098" cy="177.33221778141598" r="4" fill="#4285f4" fill-opacity="0" clip-path="url(#rablfilter10)"/><circle cx="550.8225806451612" cy="187.94571505203078" r="4" fill="#4285f4" fill-opacity="0" clip-path="url(#rablfilter10)"/><circle cx="563.2258064516129" cy="195.82853376200146" r="4" fill="#4285f4" fill-opacity="0" clip-path="url(#rablfilter10)"/><circle cx="575.6290322580645" cy="203.77002818054322" r="4" fill="#4285f4" fill-opacity="0" clip-path="url(#rablfilter10)"/><circle cx="588.0322580645161" cy="205.56292322909536" r="4" fill="#4285f4" fill-opacity="0" clip-path="url(#rablfilter10)"/><circle cx="600.4354838709677" cy="212.57117012283763" r="4" fill="#4285f4" fill-opacity="0" clip-path="url(#rablfilter10)"/><circle cx="612.8387096774194" cy="207.84213500531462" r="4" fill="#4285f4" fill-opacity="0" clip-path="url(#rablfilter10)"/><circle cx="625.241935483871" cy="198.43902780230923" r="4" fill="#4285f4" fill-opacity="0" clip-path="url(#rablfilter10)"/><circle cx="637.6451612903226" cy="207.18106268812983" r="4" fill="#4285f4" fill-opacity="0" clip-path="url(#rablfilter10)"/><circle cx="650.0483870967741" cy="211.33407367116916" r="4" fill="#4285f4" fill-opacity="0" clip-path="url(#rablfilter10)"/><circle cx="662.4516129032259" cy="206.37179845690392" r="4" fill="#4285f4" fill-opacity="0" clip-path="url(#rablfilter10)"/><circle cx="674.8548387096774" cy="211.80023171926135" r="4" fill="#4285f4" fill-opacity="0" clip-path="url(#rablfilter10)"/><circle cx="687.258064516129" cy="207.3955609362389" r="4" fill="#4285f4" fill-opacity="0" clip-path="url(#rablfilter10)"/><circle cx="699.6612903225806" cy="201.93695671249316" r="4" fill="#4285f4" fill-opacity="0" clip-path="url(#rablfilter10)"/><circle cx="712.0645161290323" cy="202.49438084077045" r="4" fill="#4285f4" fill-opacity="0" clip-path="url(#rablfilter10)"/><circle cx="724.4677419354839" cy="205.08611049440594" r="4" fill="#4285f4" fill-opacity="0" clip-path="url(#rablfilter10)"/><circle cx="736.8709677419355" cy="205.8730076606697" r="4" fill="#4285f4" fill-opacity="0" clip-path="url(#rablfilter10)"/><circle cx="749.2741935483871" cy="207.51843783633893" r="4" fill="#4285f4" fill-opacity="0" clip-path="url(#rablfilter10)"/><circle cx="761.6774193548387" cy="210.5473177642762" r="4" fill="#4285f4" fill-opacity="0" clip-path="url(#rablfilter10)"/><circle cx="774.0806451612902" cy="216.46721515598637" r="4" fill="#4285f4" fill-opacity="0" clip-path="url(#rablfilter10)"/><circle cx="786.483870967742" cy="216.21715971037275" r="4" fill="#4285f4" fill-opacity="0" clip-path="url(#rablfilter10)"/><circle cx="798.8870967741935" cy="214.8415359772569" r="4" fill="#4285f4" fill-opacity="0" clip-path="url(#rablfilter10)"/><circle cx="811.2903225806452" cy="211.08591188934196" r="4" fill="#4285f4" fill-opacity="0" clip-path="url(#rablfilter10)"/><circle cx="823.6935483870968" cy="219.2301758574587" r="4" fill="#4285f4" fill-opacity="0" clip-path="url(#rablfilter10)"/><circle cx="836.0967741935484" cy="214.96657953351024" r="4" fill="#4285f4" fill-opacity="0" clip-path="url(#rablfilter10)"/><circle cx="848.5" cy="218.0773821111146" r="4" fill="#4285f4" fill-opacity="0" clip-path="url(#rablfilter10)"/><path d="M 79.5 474.26772231232144 L 91.90322580645162 474.2831031230931 L 104.30645161290323 474.39630820066884 L 116.70967741935485 474.22375105094704 L 129.11290322580646 474.17840766557686 L 141.51612903225805 474.4262557736448 L 153.9193548387097 474.2830008047285 L 166.32258064516128 474.160721041543 L 178.7258064516129 473.99909362849655 L 191.1290322580645 474.25792583924976 L 203.53225806451613 474.2030130127393 L 215.93548387096774 474.1503590303052 L 228.33870967741936 474.0997642747574 L 240.74193548387098 474.2744698093809 L 253.14516129032256 474.1674265106151 L 265.5483870967742 473.71562176519205 L 277.9516129032258 473.78453142297735 L 290.35483870967744 473.9532872676058 L 302.758064516129 473.8784749097303 L 315.1612903225806 473.7609918019231 L 327.56451612903226 473.84994685809625 L 339.96774193548384 473.9946415080151 L 352.3709677419355 474.0594286770241 L 364.7741935483871 473.9106202484353 L 377.1774193548387 474.09055233547485 L 389.5806451612903 473.6452048696095 L 401.98387096774195 473.60582074107106 L 414.38709677419354 473.75636518256687 L 426.7903225806451 473.59094431743324 L 439.19354838709677 473.36780027285306 L 451.5967741935484 472.69231667672426 L 464 472.67090187007096 L 476.4032258064516 472.6608156223441 L 488.80645161290323 472.45826591721766 L 501.2096774193548 471.6196003423641 L 513.6129032258066 472.0923663182041 L 526.016129032258 471.8013402846797 L 538.4193548387098 472.274878850624 L 550.8225806451612 471.6174362981858 L 563.2258064516129 471.2544181093387 L 575.6290322580645 468.8230880818769 L 588.0322580645161 467.9788708818382 L 600.4354838709677 467.3317611675645 L 612.8387096774194 467.48557198534326 L 625.241935483871 466.4938039942667 L 637.6451612903226 465.5124567227041 L 650.0483870967741 463.67520321518145 L 662.4516129032259 459.6564492689148 L 674.8548387096774 456.893277752562 L 687.258064516129 450.53099273607745 L 699.6612903225806 444.6456173274571 L 712.0645161290323 445.59964241713993 L 724.4677419354839 441.7020992848462 L 736.8709677419355 435.62768072716943 L 749.2741935483871 430.2661125445906 L 761.6774193548387 426.0055724546309 L 774.0806451612902 416.62519377673186 L 786.483870967742 412.7404059382529 L 798.8870967741935 407.4182689960183 L 811.2903225806452 402.78016310865917 L 823.6935483870968 398.1226831790888 L 836.0967741935484 389.48824974405335 L 848.5 377.5068284003525" fill="none" stroke="#db4437" stroke-width="2" clip-path="url(#rablfilter10)"/><circle cx="79.5" cy="474.26772231232144" r="4" fill="#db4437" fill-opacity="0" clip-path="url(#rablfilter10)"/><circle cx="91.90322580645162" cy="474.2831031230931" r="4" fill="#db4437" fill-opacity="0" clip-path="url(#rablfilter10)"/><circle cx="104.30645161290323" cy="474.39630820066884" r="4" fill="#db4437" fill-opacity="0" clip-path="url(#rablfilter10)"/><circle cx="116.70967741935485" cy="474.22375105094704" r="4" fill="#db4437" fill-opacity="0" clip-path="url(#rablfilter10)"/><circle cx="129.11290322580646" cy="474.17840766557686" r="4" fill="#db4437" fill-opacity="0" clip-path="url(#rablfilter10)"/><circle cx="141.51612903225805" cy="474.4262557736448" r="4" fill="#db4437" fill-opacity="0" clip-path="url(#rablfilter10)"/><circle cx="153.9193548387097" cy="474.2830008047285" r="4" fill="#db4437" fill-opacity="0" clip-path="url(#rablfilter10)"/><circle cx="166.32258064516128" cy="474.160721041543" r="4" fill="#db4437" fill-opacity="0" clip-path="url(#rablfilter10)"/><circle cx="178.7258064516129" cy="473.99909362849655" r="4" fill="#db4437" fill-opacity="0" clip-path="url(#rablfilter10)"/><circle cx="191.1290322580645" cy="474.25792583924976" r="4" fill="#db4437" fill-opacity="0" clip-path="url(#rablfilter10)"/><circle cx="203.53225806451613" cy="474.2030130127393" r="4" fill="#db4437" fill-opacity="0" clip-path="url(#rablfilter10)"/><circle cx="215.93548387096774" cy="474.1503590303052" r="4" fill="#db4437" fill-opacity="0" clip-path="url(#rablfilter10)"/><circle cx="228.33870967741936" cy="474.0997642747574" r="4" fill="#db4437" fill-opacity="0" clip-path="url(#rablfilter10)"/><circle cx="240.74193548387098" cy="474.2744698093809" r="4" fill="#db4437" fill-opacity="0" clip-path="url(#rablfilter10)"/><circle cx="253.14516129032256" cy="474.1674265106151" r="4" fill="#db4437" fill-opacity="0" clip-path="url(#rablfilter10)"/><circle cx="265.5483870967742" cy="473.71562176519205" r="4" fill="#db4437" fill-opacity="0" clip-path="url(#rablfilter10)"/><circle cx="277.9516129032258" cy="473.78453142297735" r="4" fill="#db4437" fill-opacity="0" clip-path="url(#rablfilter10)"/><circle cx="290.35483870967744" cy="473.9532872676058" r="4" fill="#db4437" fill-opacity="0" clip-path="url(#rablfilter10)"/><circle cx="302.758064516129" cy="473.8784749097303" r="4" fill="#db4437" fill-opacity="0" clip-path="url(#rablfilter10)"/><circle cx="315.1612903225806" cy="473.7609918019231" r="4" fill="#db4437" fill-opacity="0" clip-path="url(#rablfilter10)"/><circle cx="327.56451612903226" cy="473.84994685809625" r="4" fill="#db4437" fill-opacity="0" clip-path="url(#rablfilter10)"/><circle cx="339.96774193548384" cy="473.9946415080151" r="4" fill="#db4437" fill-opacity="0" clip-path="url(#rablfilter10)"/><circle cx="352.3709677419355" cy="474.0594286770241" r="4" fill="#db4437" fill-opacity="0" clip-path="url(#rablfilter10)"/><circle cx="364.7741935483871" cy="473.9106202484353" r="4" fill="#db4437" fill-opacity="0" clip-path="url(#rablfilter10)"/><circle cx="377.1774193548387" cy="474.09055233547485" r="4" fill="#db4437" fill-opacity="0" clip-path="url(#rablfilter10)"/><circle cx="389.5806451612903" cy="473.6452048696095" r="4" fill="#db4437" fill-opacity="0" clip-path="url(#rablfilter10)"/><circle cx="401.98387096774195" cy="473.60582074107106" r="4" fill="#db4437" fill-opacity="0" clip-path="url(#rablfilter10)"/><circle cx="414.38709677419354" cy="473.75636518256687" r="4" fill="#db4437" fill-opacity="0" clip-path="url(#rablfilter10)"/><circle cx="426.7903225806451" cy="473.59094431743324" r="4" fill="#db4437" fill-opacity="0" clip-path="url(#rablfilter10)"/><circle cx="439.19354838709677" cy="473.36780027285306" r="4" fill="#db4437" fill-opacity="0" clip-path="url(#rablfilter10)"/><circle cx="451.5967741935484" cy="472.69231667672426" r="4" fill="#db4437" fill-opacity="0" clip-path="url(#rablfilter10)"/><circle cx="464" cy="472.67090187007096" r="4" fill="#db4437" fill-opacity="0" clip-path="url(#rablfilter10)"/><circle cx="476.4032258064516" cy="472.6608156223441" r="4" fill="#db4437" fill-opacity="0" clip-path="url(#rablfilter10)"/><circle cx="488.80645161290323" cy="472.45826591721766" r="4" fill="#db4437" fill-opacity="0" clip-path="url(#rablfilter10)"/><circle cx="501.2096774193548" cy="471.6196003423641" r="4" fill="#db4437" fill-opacity="0" clip-path="url(#rablfilter10)"/><circle cx="513.6129032258066" cy="472.0923663182041" r="4" fill="#db4437" fill-opacity="0" clip-path="url(#rablfilter10)"/><circle cx="526.016129032258" cy="471.8013402846797" r="4" fill="#db4437" fill-opacity="0" clip-path="url(#rablfilter10)"/><circle cx="538.4193548387098" cy="472.274878850624" r="4" fill="#db4437" fill-opacity="0" clip-path="url(#rablfilter10)"/><circle cx="550.8225806451612" cy="471.6174362981858" r="4" fill="#db4437" fill-opacity="0" clip-path="url(#rablfilter10)"/><circle cx="563.2258064516129" cy="471.2544181093387" r="4" fill="#db4437" fill-opacity="0" clip-path="url(#rablfilter10)"/><circle cx="575.6290322580645" cy="468.8230880818769" r="4" fill="#db4437" fill-opacity="0" clip-path="url(#rablfilter10)"/><circle cx="588.0322580645161" cy="467.9788708818382" r="4" fill="#db4437" fill-opacity="0" clip-path="url(#rablfilter10)"/><circle cx="600.4354838709677" cy="467.3317611675645" r="4" fill="#db4437" fill-opacity="0" clip-path="url(#rablfilter10)"/><circle cx="612.8387096774194" cy="467.48557198534326" r="4" fill="#db4437" fill-opacity="0" clip-path="url(#rablfilter10)"/><circle cx="625.241935483871" cy="466.4938039942667" r="4" fill="#db4437" fill-opacity="0" clip-path="url(#rablfilter10)"/><circle cx="637.6451612903226" cy="465.5124567227041" r="4" fill="#db4437" fill-opacity="0" clip-path="url(#rablfilter10)"/><circle cx="650.0483870967741" cy="463.67520321518145" r="4" fill="#db4437" fill-opacity="0" clip-path="url(#rablfilter10)"/><circle cx="662.4516129032259" cy="459.6564492689148" r="4" fill="#db4437" fill-opacity="0" clip-path="url(#rablfilter10)"/><circle cx="674.8548387096774" cy="456.893277752562" r="4" fill="#db4437" fill-opacity="0" clip-path="url(#rablfilter10)"/><circle cx="687.258064516129" cy="450.53099273607745" r="4" fill="#db4437" fill-opacity="0" clip-path="url(#rablfilter10)"/><circle cx="699.6612903225806" cy="444.6456173274571" r="4" fill="#db4437" fill-opacity="0" clip-path="url(#rablfilter10)"/><circle cx="712.0645161290323" cy="445.59964241713993" r="4" fill="#db4437" fill-opacity="0" clip-path="url(#rablfilter10)"/><circle cx="724.4677419354839" cy="441.7020992848462" r="4" fill="#db4437" fill-opacity="0" clip-path="url(#rablfilter10)"/><circle cx="736.8709677419355" cy="435.62768072716943" r="4" fill="#db4437" fill-opacity="0" clip-path="url(#rablfilter10)"/><circle cx="749.2741935483871" cy="430.2661125445906" r="4" fill="#db4437" fill-opacity="0" clip-path="url(#rablfilter10)"/><circle cx="761.6774193548387" cy="426.0055724546309" r="4" fill="#db4437" fill-opacity="0" clip-path="url(#rablfilter10)"/><circle cx="774.0806451612902" cy="416.62519377673186" r="4" fill="#db4437" fill-opacity="0" clip-path="url(#rablfilter10)"/><circle cx="786.483870967742" cy="412.7404059382529" r="4" fill="#db4437" fill-opacity="0" clip-path="url(#rablfilter10)"/><circle cx="798.8870967741935" cy="407.4182689960183" r="4" fill="#db4437" fill-opacity="0" clip-path="url(#rablfilter10)"/><circle cx="811.2903225806452" cy="402.78016310865917" r="4" fill="#db4437" fill-opacity="0" clip-path="url(#rablfilter10)"/><circle cx="823.6935483870968" cy="398.1226831790888" r="4" fill="#db4437" fill-opacity="0" clip-path="url(#rablfilter10)"/><circle cx="836.0967741935484" cy="389.48824974405335" r="4" fill="#db4437" fill-opacity="0" clip-path="url(#rablfilter10)"/><circle cx="848.5" cy="377.5068284003525" r="4" fill="#db4437" fill-opacity="0" clip-path="url(#rablfilter10)"/><path d="M 79.5 474.5 L 91.90322580645162 474.5 L 104.30645161290323 474.5 L 116.70967741935485 474.5 L 129.11290322580646 474.5 L 141.51612903225805 474.5 L 153.9193548387097 474.5 L 166.32258064516128 474.5 L 178.7258064516129 474.5 L 191.1290322580645 474.5 L 203.53225806451613 474.5 L 215.93548387096774 474.5 L 228.33870967741936 474.5 L 240.74193548387098 474.5 L 253.14516129032256 474.5 L 265.5483870967742 474.44770811767944 L 277.9516129032258 474.44889510164126 L 290.35483870967744 474.5 L 302.758064516129 474.4521903776715 L 315.1612903225806 474.4538119876202 L 327.56451612903226 474.5 L 339.96774193548384 474.5 L 352.3709677419355 474.4559428677024 L 364.7741935483871 474.5 L 377.1774193548387 474.4590552335475 L 389.5806451612903 474.4611456758913 L 401.98387096774195 474.46274253087796 L 414.38709677419354 474.35835527286986 L 426.7903225806451 474.3316563550802 L 439.19354838709677 473.88537729097743 L 451.5967741935484 472.9777403593467 L 464 470.179544072409 L 476.4032258064516 463.4648937340649 L 488.80645161290323 453.44271266861824 L 501.2096774193548 438.4207671749725 L 513.6129032258066 419.21144822285584 L 526.016129032258 399.22159741475014 L 538.4193548387098 380.36025906486253 L 550.8225806451612 347.4750262067203 L 563.2258064516129 290.8475613089224 L 575.6290322580645 274.6824882612361 L 588.0322580645161 256.97036445256026 L 600.4354838709677 249.49566725969206 L 612.8387096774194 213.01527566612398 L 625.241935483871 191.89961579762632 L 637.6451612903226 182.37693186279762 L 650.0483870967741 194.28892817212102 L 662.4516129032259 202.23018273952522 L 674.8548387096774 206.10256563388356 L 687.258064516129 206.23720742534306 L 699.6612903225806 193.2766955665192 L 712.0645161290323 243.38653505213497 L 724.4677419354839 294.3566634434901 L 736.8709677419355 301.21785373714886 L 749.2741935483871 322.4270946425466 L 761.6774193548387 344.7463201446342 L 774.0806451612902 371.9157395474703 L 786.483870967742 389.19199946317985 L 798.8870967741935 403.65775798673945 L 811.2903225806452 409.11541536739423 L 823.6935483870968 395.2591303718062 L 836.0967741935484 391.92384406868814 L 848.5 406.33488455856144" fill="none" stroke="#f4b400" stroke-width="2" clip-path="url(#rablfilter10)"/><circle cx="79.5" cy="474.5" r="4" fill="#f4b400" fill-opacity="0" clip-path="url(#rablfilter10)"/><circle cx="91.90322580645162" cy="474.5" r="4" fill="#f4b400" fill-opacity="0" clip-path="url(#rablfilter10)"/><circle cx="104.30645161290323" cy="474.5" r="4" fill="#f4b400" fill-opacity="0" clip-path="url(#rablfilter10)"/><circle cx="116.70967741935485" cy="474.5" r="4" fill="#f4b400" fill-opacity="0" clip-path="url(#rablfilter10)"/><circle cx="129.11290322580646" cy="474.5" r="4" fill="#f4b400" fill-opacity="0" clip-path="url(#rablfilter10)"/><circle cx="141.51612903225805" cy="474.5" r="4" fill="#f4b400" fill-opacity="0" clip-path="url(#rablfilter10)"/><circle cx="153.9193548387097" cy="474.5" r="4" fill="#f4b400" fill-opacity="0" clip-path="url(#rablfilter10)"/><circle cx="166.32258064516128" cy="474.5" r="4" fill="#f4b400" fill-opacity="0" clip-path="url(#rablfilter10)"/><circle cx="178.7258064516129" cy="474.5" r="4" fill="#f4b400" fill-opacity="0" clip-path="url(#rablfilter10)"/><circle cx="191.1290322580645" cy="474.5" r="4" fill="#f4b400" fill-opacity="0" clip-path="url(#rablfilter10)"/><circle cx="203.53225806451613" cy="474.5" r="4" fill="#f4b400" fill-opacity="0" clip-path="url(#rablfilter10)"/><circle cx="215.93548387096774" cy="474.5" r="4" fill="#f4b400" fill-opacity="0" clip-path="url(#rablfilter10)"/><circle cx="228.33870967741936" cy="474.5" r="4" fill="#f4b400" fill-opacity="0" clip-path="url(#rablfilter10)"/><circle cx="240.74193548387098" cy="474.5" r="4" fill="#f4b400" fill-opacity="0" clip-path="url(#rablfilter10)"/><circle cx="253.14516129032256" cy="474.5" r="4" fill="#f4b400" fill-opacity="0" clip-path="url(#rablfilter10)"/><circle cx="265.5483870967742" cy="474.44770811767944" r="4" fill="#f4b400" fill-opacity="0" clip-path="url(#rablfilter10)"/><circle cx="277.9516129032258" cy="474.44889510164126" r="4" fill="#f4b400" fill-opacity="0" clip-path="url(#rablfilter10)"/><circle cx="290.35483870967744" cy="474.5" r="4" fill="#f4b400" fill-opacity="0" clip-path="url(#rablfilter10)"/><circle cx="302.758064516129" cy="474.4521903776715" r="4" fill="#f4b400" fill-opacity="0" clip-path="url(#rablfilter10)"/><circle cx="315.1612903225806" cy="474.4538119876202" r="4" fill="#f4b400" fill-opacity="0" clip-path="url(#rablfilter10)"/><circle cx="327.56451612903226" cy="474.5" r="4" fill="#f4b400" fill-opacity="0" clip-path="url(#rablfilter10)"/><circle cx="339.96774193548384" cy="474.5" r="4" fill="#f4b400" fill-opacity="0" clip-path="url(#rablfilter10)"/><circle cx="352.3709677419355" cy="474.4559428677024" r="4" fill="#f4b400" fill-opacity="0" clip-path="url(#rablfilter10)"/><circle cx="364.7741935483871" cy="474.5" r="4" fill="#f4b400" fill-opacity="0" clip-path="url(#rablfilter10)"/><circle cx="377.1774193548387" cy="474.4590552335475" r="4" fill="#f4b400" fill-opacity="0" clip-path="url(#rablfilter10)"/><circle cx="389.5806451612903" cy="474.4611456758913" r="4" fill="#f4b400" fill-opacity="0" clip-path="url(#rablfilter10)"/><circle cx="401.98387096774195" cy="474.46274253087796" r="4" fill="#f4b400" fill-opacity="0" clip-path="url(#rablfilter10)"/><circle cx="414.38709677419354" cy="474.35835527286986" r="4" fill="#f4b400" fill-opacity="0" clip-path="url(#rablfilter10)"/><circle cx="426.7903225806451" cy="474.3316563550802" r="4" fill="#f4b400" fill-opacity="0" clip-path="url(#rablfilter10)"/><circle cx="439.19354838709677" cy="473.88537729097743" r="4" fill="#f4b400" fill-opacity="0" clip-path="url(#rablfilter10)"/><circle cx="451.5967741935484" cy="472.9777403593467" r="4" fill="#f4b400" fill-opacity="0" clip-path="url(#rablfilter10)"/><circle cx="464" cy="470.179544072409" r="4" fill="#f4b400" fill-opacity="0" clip-path="url(#rablfilter10)"/><circle cx="476.4032258064516" cy="463.4648937340649" r="4" fill="#f4b400" fill-opacity="0" clip-path="url(#rablfilter10)"/><circle cx="488.80645161290323" cy="453.44271266861824" r="4" fill="#f4b400" fill-opacity="0" clip-path="url(#rablfilter10)"/><circle cx="501.2096774193548" cy="438.4207671749725" r="4" fill="#f4b400" fill-opacity="0" clip-path="url(#rablfilter10)"/><circle cx="513.6129032258066" cy="419.21144822285584" r="4" fill="#f4b400" fill-opacity="0" clip-path="url(#rablfilter10)"/><circle cx="526.016129032258" cy="399.22159741475014" r="4" fill="#f4b400" fill-opacity="0" clip-path="url(#rablfilter10)"/><circle cx="538.4193548387098" cy="380.36025906486253" r="4" fill="#f4b400" fill-opacity="0" clip-path="url(#rablfilter10)"/><circle cx="550.8225806451612" cy="347.4750262067203" r="4" fill="#f4b400" fill-opacity="0" clip-path="url(#rablfilter10)"/><circle cx="563.2258064516129" cy="290.8475613089224" r="4" fill="#f4b400" fill-opacity="0" clip-path="url(#rablfilter10)"/><circle cx="575.6290322580645" cy="274.6824882612361" r="4" fill="#f4b400" fill-opacity="0" clip-path="url(#rablfilter10)"/><circle cx="588.0322580645161" cy="256.97036445256026" r="4" fill="#f4b400" fill-opacity="0" clip-path="url(#rablfilter10)"/><circle cx="600.4354838709677" cy="249.49566725969206" r="4" fill="#f4b400" fill-opacity="0" clip-path="url(#rablfilter10)"/><circle cx="612.8387096774194" cy="213.01527566612398" r="4" fill="#f4b400" fill-opacity="0" clip-path="url(#rablfilter10)"/><circle cx="625.241935483871" cy="191.89961579762632" r="4" fill="#f4b400" fill-opacity="0" clip-path="url(#rablfilter10)"/><circle cx="637.6451612903226" cy="182.37693186279762" r="4" fill="#f4b400" fill-opacity="0" clip-path="url(#rablfilter10)"/><circle cx="650.0483870967741" cy="194.28892817212102" r="4" fill="#f4b400" fill-opacity="0" clip-path="url(#rablfilter10)"/><circle cx="662.4516129032259" cy="202.23018273952522" r="4" fill="#f4b400" fill-opacity="0" clip-path="url(#rablfilter10)"/><circle cx="674.8548387096774" cy="206.10256563388356" r="4" fill="#f4b400" fill-opacity="0" clip-path="url(#rablfilter10)"/><circle cx="687.258064516129" cy="206.23720742534306" r="4" fill="#f4b400" fill-opacity="0" clip-path="url(#rablfilter10)"/><circle cx="699.6612903225806" cy="193.2766955665192" r="4" fill="#f4b400" fill-opacity="0" clip-path="url(#rablfilter10)"/><circle cx="712.0645161290323" cy="243.38653505213497" r="4" fill="#f4b400" fill-opacity="0" clip-path="url(#rablfilter10)"/><circle cx="724.4677419354839" cy="294.3566634434901" r="4" fill="#f4b400" fill-opacity="0" clip-path="url(#rablfilter10)"/><circle cx="736.8709677419355" cy="301.21785373714886" r="4" fill="#f4b400" fill-opacity="0" clip-path="url(#rablfilter10)"/><circle cx="749.2741935483871" cy="322.4270946425466" r="4" fill="#f4b400" fill-opacity="0" clip-path="url(#rablfilter10)"/><circle cx="761.6774193548387" cy="344.7463201446342" r="4" fill="#f4b400" fill-opacity="0" clip-path="url(#rablfilter10)"/><circle cx="774.0806451612902" cy="371.9157395474703" r="4" fill="#f4b400" fill-opacity="0" clip-path="url(#rablfilter10)"/><circle cx="786.483870967742" cy="389.19199946317985" r="4" fill="#f4b400" fill-opacity="0" clip-path="url(#rablfilter10)"/><circle cx="798.8870967741935" cy="403.65775798673945" r="4" fill="#f4b400" fill-opacity="0" clip-path="url(#rablfilter10)"/><circle cx="811.2903225806452" cy="409.11541536739423" r="4" fill="#f4b400" fill-opacity="0" clip-path="url(#rablfilter10)"/><circle cx="823.6935483870968" cy="395.2591303718062" r="4" fill="#f4b400" fill-opacity="0" clip-path="url(#rablfilter10)"/><circle cx="836.0967741935484" cy="391.92384406868814" r="4" fill="#f4b400" fill-opacity="0" clip-path="url(#rablfilter10)"/><circle cx="848.5" cy="406.33488455856144" r="4" fill="#f4b400" fill-opacity="0" clip-path="url(#rablfilter10)"/><path d="M 79.5 392.8543927809758 L 91.90322580645162 392.9467742830199 L 104.30645161290323 389.47272454843676 L 116.70967741935485 374.8662123749167 L 129.11290322580646 347.7926202372874 L 141.51612903225805 383.64711313043296 L 153.9193548387097 396.9589542229745 L 166.32258064516128 390.90166463619926 L 178.7258064516129 387.27967806196637 L 191.1290322580645 366.8375170063289 L 203.53225806451613 362.8922901874284 L 215.93548387096774 320.77452032418546 L 228.33870967741936 303.9424045144601 L 240.74193548387098 289.84715643056654 L 253.14516129032256 288.81313509344943 L 265.5483870967742 301.2047019897663 L 277.9516129032258 310.40217137001645 L 290.35483870967744 324.8001136389637 L 302.758064516129 325.42959757992827 L 315.1612903225806 322.68000330758144 L 327.56451612903226 341.93559141891853 L 339.96774193548384 353.7193204156136 L 352.3709677419355 348.27631596738644 L 364.7741935483871 336.79563090227646 L 377.1774193548387 332.7901633078345 L 389.5806451612903 335.32381104277647 L 401.98387096774195 345.6264143068682 L 414.38709677419354 329.9515559637049 L 426.7903225806451 344.8753934117789 L 439.19354838709677 339.9946724149485 L 451.5967741935484 337.6234873112586 L 464 334.1955589645811 L 476.4032258064516 330.38899359486436 L 488.80645161290323 328.5617235456045 L 501.2096774193548 332.7368250973816 L 513.6129032258066 335.2923609766448 L 526.016129032258 337.18083090675543 L 538.4193548387098 328.8972006869874 L 550.8225806451612 333.39164354928516 L 563.2258064516129 325.7309699223714 L 575.6290322580645 332.23462977600127 L 588.0322580645161 325.8944152780948 L 600.4354838709677 326.9864034482718 L 612.8387096774194 324.23779987352503 L 625.241935483871 328.84019989569117 L 637.6451612903226 334.1045258236071 L 650.0483870967741 340.2933701991358 L 662.4516129032259 341.93516411814306 L 674.8548387096774 345.7109521193155 L 687.258064516129 348.4176755447942 L 699.6612903225806 348.80170483655024 L 712.0645161290323 344.8506715946994 L 724.4677419354839 350.63800455403657 L 736.8709677419355 346.9126616986803 L 749.2741935483871 342.4469283589245 L 761.6774193548387 337.73120744202413 L 774.0806451612902 328.56542026982436 L 786.483870967742 313.50926014685865 L 798.8870967741935 299.549457045243 L 811.2903225806452 287.30203086271683 L 823.6935483870968 272.81043060705855 L 836.0967741935484 234.50253281008546 L 848.5 214.1797112529894" fill="none" stroke="#0f9d58" stroke-width="2" clip-path="url(#rablfilter10)"/><circle cx="79.5" cy="392.8543927809758" r="4" fill="#0f9d58" fill-opacity="0" clip-path="url(#rablfilter10)"/><circle cx="91.90322580645162" cy="392.9467742830199" r="4" fill="#0f9d58" fill-opacity="0" clip-path="url(#rablfilter10)"/><circle cx="104.30645161290323" cy="389.47272454843676" r="4" fill="#0f9d58" fill-opacity="0" clip-path="url(#rablfilter10)"/><circle cx="116.70967741935485" cy="374.8662123749167" r="4" fill="#0f9d58" fill-opacity="0" clip-path="url(#rablfilter10)"/><circle cx="129.11290322580646" cy="347.7926202372874" r="4" fill="#0f9d58" fill-opacity="0" clip-path="url(#rablfilter10)"/><circle cx="141.51612903225805" cy="383.64711313043296" r="4" fill="#0f9d58" fill-opacity="0" clip-path="url(#rablfilter10)"/><circle cx="153.9193548387097" cy="396.9589542229745" r="4" fill="#0f9d58" fill-opacity="0" clip-path="url(#rablfilter10)"/><circle cx="166.32258064516128" cy="390.90166463619926" r="4" fill="#0f9d58" fill-opacity="0" clip-path="url(#rablfilter10)"/><circle cx="178.7258064516129" cy="387.27967806196637" r="4" fill="#0f9d58" fill-opacity="0" clip-path="url(#rablfilter10)"/><circle cx="191.1290322580645" cy="366.8375170063289" r="4" fill="#0f9d58" fill-opacity="0" clip-path="url(#rablfilter10)"/><circle cx="203.53225806451613" cy="362.8922901874284" r="4" fill="#0f9d58" fill-opacity="0" clip-path="url(#rablfilter10)"/><circle cx="215.93548387096774" cy="320.77452032418546" r="4" fill="#0f9d58" fill-opacity="0" clip-path="url(#rablfilter10)"/><circle cx="228.33870967741936" cy="303.9424045144601" r="4" fill="#0f9d58" fill-opacity="0" clip-path="url(#rablfilter10)"/><circle cx="240.74193548387098" cy="289.84715643056654" r="4" fill="#0f9d58" fill-opacity="0" clip-path="url(#rablfilter10)"/><circle cx="253.14516129032256" cy="288.81313509344943" r="4" fill="#0f9d58" fill-opacity="0" clip-path="url(#rablfilter10)"/><circle cx="265.5483870967742" cy="301.2047019897663" r="4" fill="#0f9d58" fill-opacity="0" clip-path="url(#rablfilter10)"/><circle cx="277.9516129032258" cy="310.40217137001645" r="4" fill="#0f9d58" fill-opacity="0" clip-path="url(#rablfilter10)"/><circle cx="290.35483870967744" cy="324.8001136389637" r="4" fill="#0f9d58" fill-opacity="0" clip-path="url(#rablfilter10)"/><circle cx="302.758064516129" cy="325.42959757992827" r="4" fill="#0f9d58" fill-opacity="0" clip-path="url(#rablfilter10)"/><circle cx="315.1612903225806" cy="322.68000330758144" r="4" fill="#0f9d58" fill-opacity="0" clip-path="url(#rablfilter10)"/><circle cx="327.56451612903226" cy="341.93559141891853" r="4" fill="#0f9d58" fill-opacity="0" clip-path="url(#rablfilter10)"/><circle cx="339.96774193548384" cy="353.7193204156136" r="4" fill="#0f9d58" fill-opacity="0" clip-path="url(#rablfilter10)"/><circle cx="352.3709677419355" cy="348.27631596738644" r="4" fill="#0f9d58" fill-opacity="0" clip-path="url(#rablfilter10)"/><circle cx="364.7741935483871" cy="336.79563090227646" r="4" fill="#0f9d58" fill-opacity="0" clip-path="url(#rablfilter10)"/><circle cx="377.1774193548387" cy="332.7901633078345" r="4" fill="#0f9d58" fill-opacity="0" clip-path="url(#rablfilter10)"/><circle cx="389.5806451612903" cy="335.32381104277647" r="4" fill="#0f9d58" fill-opacity="0" clip-path="url(#rablfilter10)"/><circle cx="401.98387096774195" cy="345.6264143068682" r="4" fill="#0f9d58" fill-opacity="0" clip-path="url(#rablfilter10)"/><circle cx="414.38709677419354" cy="329.9515559637049" r="4" fill="#0f9d58" fill-opacity="0" clip-path="url(#rablfilter10)"/><circle cx="426.7903225806451" cy="344.8753934117789" r="4" fill="#0f9d58" fill-opacity="0" clip-path="url(#rablfilter10)"/><circle cx="439.19354838709677" cy="339.9946724149485" r="4" fill="#0f9d58" fill-opacity="0" clip-path="url(#rablfilter10)"/><circle cx="451.5967741935484" cy="337.6234873112586" r="4" fill="#0f9d58" fill-opacity="0" clip-path="url(#rablfilter10)"/><circle cx="464" cy="334.1955589645811" r="4" fill="#0f9d58" fill-opacity="0" clip-path="url(#rablfilter10)"/><circle cx="476.4032258064516" cy="330.38899359486436" r="4" fill="#0f9d58" fill-opacity="0" clip-path="url(#rablfilter10)"/><circle cx="488.80645161290323" cy="328.5617235456045" r="4" fill="#0f9d58" fill-opacity="0" clip-path="url(#rablfilter10)"/><circle cx="501.2096774193548" cy="332.7368250973816" r="4" fill="#0f9d58" fill-opacity="0" clip-path="url(#rablfilter10)"/><circle cx="513.6129032258066" cy="335.2923609766448" r="4" fill="#0f9d58" fill-opacity="0" clip-path="url(#rablfilter10)"/><circle cx="526.016129032258" cy="337.18083090675543" r="4" fill="#0f9d58" fill-opacity="0" clip-path="url(#rablfilter10)"/><circle cx="538.4193548387098" cy="328.8972006869874" r="4" fill="#0f9d58" fill-opacity="0" clip-path="url(#rablfilter10)"/><circle cx="550.8225806451612" cy="333.39164354928516" r="4" fill="#0f9d58" fill-opacity="0" clip-path="url(#rablfilter10)"/><circle cx="563.2258064516129" cy="325.7309699223714" r="4" fill="#0f9d58" fill-opacity="0" clip-path="url(#rablfilter10)"/><circle cx="575.6290322580645" cy="332.23462977600127" r="4" fill="#0f9d58" fill-opacity="0" clip-path="url(#rablfilter10)"/><circle cx="588.0322580645161" cy="325.8944152780948" r="4" fill="#0f9d58" fill-opacity="0" clip-path="url(#rablfilter10)"/><circle cx="600.4354838709677" cy="326.9864034482718" r="4" fill="#0f9d58" fill-opacity="0" clip-path="url(#rablfilter10)"/><circle cx="612.8387096774194" cy="324.23779987352503" r="4" fill="#0f9d58" fill-opacity="0" clip-path="url(#rablfilter10)"/><circle cx="625.241935483871" cy="328.84019989569117" r="4" fill="#0f9d58" fill-opacity="0" clip-path="url(#rablfilter10)"/><circle cx="637.6451612903226" cy="334.1045258236071" r="4" fill="#0f9d58" fill-opacity="0" clip-path="url(#rablfilter10)"/><circle cx="650.0483870967741" cy="340.2933701991358" r="4" fill="#0f9d58" fill-opacity="0" clip-path="url(#rablfilter10)"/><circle cx="662.4516129032259" cy="341.93516411814306" r="4" fill="#0f9d58" fill-opacity="0" clip-path="url(#rablfilter10)"/><circle cx="674.8548387096774" cy="345.7109521193155" r="4" fill="#0f9d58" fill-opacity="0" clip-path="url(#rablfilter10)"/><circle cx="687.258064516129" cy="348.4176755447942" r="4" fill="#0f9d58" fill-opacity="0" clip-path="url(#rablfilter10)"/><circle cx="699.6612903225806" cy="348.80170483655024" r="4" fill="#0f9d58" fill-opacity="0" clip-path="url(#rablfilter10)"/><circle cx="712.0645161290323" cy="344.8506715946994" r="4" fill="#0f9d58" fill-opacity="0" clip-path="url(#rablfilter10)"/><circle cx="724.4677419354839" cy="350.63800455403657" r="4" fill="#0f9d58" fill-opacity="0" clip-path="url(#rablfilter10)"/><circle cx="736.8709677419355" cy="346.9126616986803" r="4" fill="#0f9d58" fill-opacity="0" clip-path="url(#rablfilter10)"/><circle cx="749.2741935483871" cy="342.4469283589245" r="4" fill="#0f9d58" fill-opacity="0" clip-path="url(#rablfilter10)"/><circle cx="761.6774193548387" cy="337.73120744202413" r="4" fill="#0f9d58" fill-opacity="0" clip-path="url(#rablfilter10)"/><circle cx="774.0806451612902" cy="328.56542026982436" r="4" fill="#0f9d58" fill-opacity="0" clip-path="url(#rablfilter10)"/><circle cx="786.483870967742" cy="313.50926014685865" r="4" fill="#0f9d58" fill-opacity="0" clip-path="url(#rablfilter10)"/><circle cx="798.8870967741935" cy="299.549457045243" r="4" fill="#0f9d58" fill-opacity="0" clip-path="url(#rablfilter10)"/><circle cx="811.2903225806452" cy="287.30203086271683" r="4" fill="#0f9d58" fill-opacity="0" clip-path="url(#rablfilter10)"/><circle cx="823.6935483870968" cy="272.81043060705855" r="4" fill="#0f9d58" fill-opacity="0" clip-path="url(#rablfilter10)"/><circle cx="836.0967741935484" cy="234.50253281008546" r="4" fill="#0f9d58" fill-opacity="0" clip-path="url(#rablfilter10)"/><circle cx="848.5" cy="214.1797112529894" r="4" fill="#0f9d58" fill-opacity="0" clip-path="url(#rablfilter10)"/><path d="M 79.5 474.1515834684821 L 91.90322580645162 474.3915515615466 L 104.30645161290323 474.5 L 116.70967741935485 474.5 L 129.11290322580646 474.5 L 141.51612903225805 474.4262557736448 L 153.9193548387097 474.5 L 166.32258064516128 474.3642884166172 L 178.7258064516129 474.37477340712417 L 191.1290322580645 474.3184443794373 L 203.53225806451613 474.44060260254787 L 215.93548387096774 474.38345301010173 L 228.33870967741936 474.38564693564496 L 240.74193548387098 474.4436174523452 L 253.14516129032256 474.4445710851025 L 265.5483870967742 474.13395682375625 L 277.9516129032258 474.2955804065649 L 290.35483870967744 474.2017930550577 L 302.758064516129 474.0697133990441 L 315.1612903225806 474.31524795048074 L 327.56451612903226 474.22140579632696 L 339.96774193548384 473.90275814583606 L 352.3709677419355 474.19160007391685 L 364.7741935483871 474.2895072315841 L 377.1774193548387 474.3362209341899 L 389.5806451612903 473.8394764901528 L 401.98387096774195 474.0529103705355 L 414.38709677419354 474.2875329093048 L 426.7903225806451 473.8939628782888 L 439.19354838709677 473.9177258546102 L 451.5967741935484 473.9925801197822 L 464 473.83774033226706 L 476.4032258064516 474.1259286011547 L 488.80645161290323 474.042895354601 L 501.2096774193548 473.84671347971147 L 513.6129032258066 473.71679386254834 L 526.016129032258 473.5057569469873 L 538.4193548387098 473.4730210079803 L 550.8225806451612 473.2097095810927 L 563.2258064516129 473.338978835861 L 575.6290322580645 473.1052414683922 L 588.0322580645161 473.1434147454919 L 600.4354838709677 473.2323050296336 L 612.8387096774194 473.0094340468854 L 625.241935483871 472.40168399849733 L 637.6451612903226 472.86251799502685 L 650.0483870967741 472.58871966881213 L 662.4516129032259 472.41262567844115 L 674.8548387096774 472.19602573596745 L 687.258064516129 471.2031476997579 L 699.6612903225806 470.40505223768645 L 712.0645161290323 469.1490279155023 L 724.4677419354839 467.3617037087325 L 736.8709677419355 463.8922767232159 L 749.2741935483871 459.06354074136743 L 761.6774193548387 456.36639995632567 L 774.0806451612902 454.5795444405014 L 786.483870967742 452.86065364238834 L 798.8870967741935 451.88872226472085 L 811.2903225806452 450.2807627728472 L 823.6935483870968 451.3609024544854 L 836.0967741935484 452.221260321809 L 848.5 451.30518134617574" fill="none" stroke="#ab47bc" stroke-width="2" clip-path="url(#rablfilter10)"/><circle cx="79.5" cy="474.1515834684821" r="4" fill="#ab47bc" fill-opacity="0" clip-path="url(#rablfilter10)"/><circle cx="91.90322580645162" cy="474.3915515615466" r="4" fill="#ab47bc" fill-opacity="0" clip-path="url(#rablfilter10)"/><circle cx="104.30645161290323" cy="474.5" r="4" fill="#ab47bc" fill-opacity="0" clip-path="url(#rablfilter10)"/><circle cx="116.70967741935485" cy="474.5" r="4" fill="#ab47bc" fill-opacity="0" clip-path="url(#rablfilter10)"/><circle cx="129.11290322580646" cy="474.5" r="4" fill="#ab47bc" fill-opacity="0" clip-path="url(#rablfilter10)"/><circle cx="141.51612903225805" cy="474.4262557736448" r="4" fill="#ab47bc" fill-opacity="0" clip-path="url(#rablfilter10)"/><circle cx="153.9193548387097" cy="474.5" r="4" fill="#ab47bc" fill-opacity="0" clip-path="url(#rablfilter10)"/><circle cx="166.32258064516128" cy="474.3642884166172" r="4" fill="#ab47bc" fill-opacity="0" clip-path="url(#rablfilter10)"/><circle cx="178.7258064516129" cy="474.37477340712417" r="4" fill="#ab47bc" fill-opacity="0" clip-path="url(#rablfilter10)"/><circle cx="191.1290322580645" cy="474.3184443794373" r="4" fill="#ab47bc" fill-opacity="0" clip-path="url(#rablfilter10)"/><circle cx="203.53225806451613" cy="474.44060260254787" r="4" fill="#ab47bc" fill-opacity="0" clip-path="url(#rablfilter10)"/><circle cx="215.93548387096774" cy="474.38345301010173" r="4" fill="#ab47bc" fill-opacity="0" clip-path="url(#rablfilter10)"/><circle cx="228.33870967741936" cy="474.38564693564496" r="4" fill="#ab47bc" fill-opacity="0" clip-path="url(#rablfilter10)"/><circle cx="240.74193548387098" cy="474.4436174523452" r="4" fill="#ab47bc" fill-opacity="0" clip-path="url(#rablfilter10)"/><circle cx="253.14516129032256" cy="474.4445710851025" r="4" fill="#ab47bc" fill-opacity="0" clip-path="url(#rablfilter10)"/><circle cx="265.5483870967742" cy="474.13395682375625" r="4" fill="#ab47bc" fill-opacity="0" clip-path="url(#rablfilter10)"/><circle cx="277.9516129032258" cy="474.2955804065649" r="4" fill="#ab47bc" fill-opacity="0" clip-path="url(#rablfilter10)"/><circle cx="290.35483870967744" cy="474.2017930550577" r="4" fill="#ab47bc" fill-opacity="0" clip-path="url(#rablfilter10)"/><circle cx="302.758064516129" cy="474.0697133990441" r="4" fill="#ab47bc" fill-opacity="0" clip-path="url(#rablfilter10)"/><circle cx="315.1612903225806" cy="474.31524795048074" r="4" fill="#ab47bc" fill-opacity="0" clip-path="url(#rablfilter10)"/><circle cx="327.56451612903226" cy="474.22140579632696" r="4" fill="#ab47bc" fill-opacity="0" clip-path="url(#rablfilter10)"/><circle cx="339.96774193548384" cy="473.90275814583606" r="4" fill="#ab47bc" fill-opacity="0" clip-path="url(#rablfilter10)"/><circle cx="352.3709677419355" cy="474.19160007391685" r="4" fill="#ab47bc" fill-opacity="0" clip-path="url(#rablfilter10)"/><circle cx="364.7741935483871" cy="474.2895072315841" r="4" fill="#ab47bc" fill-opacity="0" clip-path="url(#rablfilter10)"/><circle cx="377.1774193548387" cy="474.3362209341899" r="4" fill="#ab47bc" fill-opacity="0" clip-path="url(#rablfilter10)"/><circle cx="389.5806451612903" cy="473.8394764901528" r="4" fill="#ab47bc" fill-opacity="0" clip-path="url(#rablfilter10)"/><circle cx="401.98387096774195" cy="474.0529103705355" r="4" fill="#ab47bc" fill-opacity="0" clip-path="url(#rablfilter10)"/><circle cx="414.38709677419354" cy="474.2875329093048" r="4" fill="#ab47bc" fill-opacity="0" clip-path="url(#rablfilter10)"/><circle cx="426.7903225806451" cy="473.8939628782888" r="4" fill="#ab47bc" fill-opacity="0" clip-path="url(#rablfilter10)"/><circle cx="439.19354838709677" cy="473.9177258546102" r="4" fill="#ab47bc" fill-opacity="0" clip-path="url(#rablfilter10)"/><circle cx="451.5967741935484" cy="473.9925801197822" r="4" fill="#ab47bc" fill-opacity="0" clip-path="url(#rablfilter10)"/><circle cx="464" cy="473.83774033226706" r="4" fill="#ab47bc" fill-opacity="0" clip-path="url(#rablfilter10)"/><circle cx="476.4032258064516" cy="474.1259286011547" r="4" fill="#ab47bc" fill-opacity="0" clip-path="url(#rablfilter10)"/><circle cx="488.80645161290323" cy="474.042895354601" r="4" fill="#ab47bc" fill-opacity="0" clip-path="url(#rablfilter10)"/><circle cx="501.2096774193548" cy="473.84671347971147" r="4" fill="#ab47bc" fill-opacity="0" clip-path="url(#rablfilter10)"/><circle cx="513.6129032258066" cy="473.71679386254834" r="4" fill="#ab47bc" fill-opacity="0" clip-path="url(#rablfilter10)"/><circle cx="526.016129032258" cy="473.5057569469873" r="4" fill="#ab47bc" fill-opacity="0" clip-path="url(#rablfilter10)"/><circle cx="538.4193548387098" cy="473.4730210079803" r="4" fill="#ab47bc" fill-opacity="0" clip-path="url(#rablfilter10)"/><circle cx="550.8225806451612" cy="473.2097095810927" r="4" fill="#ab47bc" fill-opacity="0" clip-path="url(#rablfilter10)"/><circle cx="563.2258064516129" cy="473.338978835861" r="4" fill="#ab47bc" fill-opacity="0" clip-path="url(#rablfilter10)"/><circle cx="575.6290322580645" cy="473.1052414683922" r="4" fill="#ab47bc" fill-opacity="0" clip-path="url(#rablfilter10)"/><circle cx="588.0322580645161" cy="473.1434147454919" r="4" fill="#ab47bc" fill-opacity="0" clip-path="url(#rablfilter10)"/><circle cx="600.4354838709677" cy="473.2323050296336" r="4" fill="#ab47bc" fill-opacity="0" clip-path="url(#rablfilter10)"/><circle cx="612.8387096774194" cy="473.0094340468854" r="4" fill="#ab47bc" fill-opacity="0" clip-path="url(#rablfilter10)"/><circle cx="625.241935483871" cy="472.40168399849733" r="4" fill="#ab47bc" fill-opacity="0" clip-path="url(#rablfilter10)"/><circle cx="637.6451612903226" cy="472.86251799502685" r="4" fill="#ab47bc" fill-opacity="0" clip-path="url(#rablfilter10)"/><circle cx="650.0483870967741" cy="472.58871966881213" r="4" fill="#ab47bc" fill-opacity="0" clip-path="url(#rablfilter10)"/><circle cx="662.4516129032259" cy="472.41262567844115" r="4" fill="#ab47bc" fill-opacity="0" clip-path="url(#rablfilter10)"/><circle cx="674.8548387096774" cy="472.19602573596745" r="4" fill="#ab47bc" fill-opacity="0" clip-path="url(#rablfilter10)"/><circle cx="687.258064516129" cy="471.2031476997579" r="4" fill="#ab47bc" fill-opacity="0" clip-path="url(#rablfilter10)"/><circle cx="699.6612903225806" cy="470.40505223768645" r="4" fill="#ab47bc" fill-opacity="0" clip-path="url(#rablfilter10)"/><circle cx="712.0645161290323" cy="469.1490279155023" r="4" fill="#ab47bc" fill-opacity="0" clip-path="url(#rablfilter10)"/><circle cx="724.4677419354839" cy="467.3617037087325" r="4" fill="#ab47bc" fill-opacity="0" clip-path="url(#rablfilter10)"/><circle cx="736.8709677419355" cy="463.8922767232159" r="4" fill="#ab47bc" fill-opacity="0" clip-path="url(#rablfilter10)"/><circle cx="749.2741935483871" cy="459.06354074136743" r="4" fill="#ab47bc" fill-opacity="0" clip-path="url(#rablfilter10)"/><circle cx="761.6774193548387" cy="456.36639995632567" r="4" fill="#ab47bc" fill-opacity="0" clip-path="url(#rablfilter10)"/><circle cx="774.0806451612902" cy="454.5795444405014" r="4" fill="#ab47bc" fill-opacity="0" clip-path="url(#rablfilter10)"/><circle cx="786.483870967742" cy="452.86065364238834" r="4" fill="#ab47bc" fill-opacity="0" clip-path="url(#rablfilter10)"/><circle cx="798.8870967741935" cy="451.88872226472085" r="4" fill="#ab47bc" fill-opacity="0" clip-path="url(#rablfilter10)"/><circle cx="811.2903225806452" cy="450.2807627728472" r="4" fill="#ab47bc" fill-opacity="0" clip-path="url(#rablfilter10)"/><circle cx="823.6935483870968" cy="451.3609024544854" r="4" fill="#ab47bc" fill-opacity="0" clip-path="url(#rablfilter10)"/><circle cx="836.0967741935484" cy="452.221260321809" r="4" fill="#ab47bc" fill-opacity="0" clip-path="url(#rablfilter10)"/><circle cx="848.5" cy="451.30518134617574" r="4" fill="#ab47bc" fill-opacity="0" clip-path="url(#rablfilter10)"/><path d="M 79.5 474.5 L 91.90322580645162 474.5 L 104.30645161290323 474.5 L 116.70967741935485 474.31583403396473 L 129.11290322580646 474.5 L 141.51612903225805 474.2787673209345 L 153.9193548387097 474.42766693490944 L 166.32258064516128 474.2285768332344 L 178.7258064516129 474.3121601106862 L 191.1290322580645 474.1974072990622 L 203.53225806451613 474.14361561528716 L 215.93548387096774 473.9755385454578 L 228.33870967741936 474.15694080693487 L 240.74193548387098 473.9925570711069 L 253.14516129032256 473.7794241063328 L 265.5483870967742 471.6239464723709 L 277.9516129032258 471.53591589519186 L 290.35483870967744 472.4125513854039 L 302.758064516129 472.3485669952202 L 315.1612903225806 470.8511470219955 L 327.56451612903226 469.9031956393951 L 339.96774193548384 468.8491732259873 L 352.3709677419355 467.75925875846775 L 364.7741935483871 464.31215000866734 L 377.1774193548387 462.58507296231716 L 389.5806451612903 461.4838014235986 L 401.98387096774195 461.6834306220187 L 414.38709677419354 460.51258319589994 L 426.7903225806451 458.0696602558307 L 439.19354838709677 456.64359287471177 L 451.5967741935484 454.29834601883033 L 464 453.9384141256253 L 476.4032258064516 449.0631448785225 L 488.80645161290323 444.8796189781431 L 501.2096774193548 441.9841481947283 L 513.6129032258066 441.08320480206186 L 526.016129032258 442.42855980424633 L 538.4193548387098 439.92504060200406 L 550.8225806451612 437.32865474041483 L 563.2258064516129 441.88586002555 L 575.6290322580645 438.35862541781114 L 588.0322580645161 437.56280149128816 L 600.4354838709677 433.8185159509687 L 612.8387096774194 431.88734981096025 L 625.241935483871 430.25201596831346 L 637.6451612903226 427.1060606060606 L 650.0483870967741 421.2100293113347 L 662.4516129032259 418.6047542782573 L 674.8548387096774 417.2431260600559 L 687.258064516129 418.12679580306695 L 699.6612903225806 415.77346874655024 L 712.0645161290323 414.33668379458516 L 724.4677419354839 414.3685225313495 L 736.8709677419355 409.9696833995635 L 749.2741935483871 406.12772772349354 L 761.6774193548387 404.9187861181296 L 774.0806451612902 400.7922858702261 L 786.483870967742 400.0966308147523 L 798.8870967741935 396.73456079529785 L 811.2903225806452 396.1138962181178 L 823.6935483870968 400.42147973826854 L 836.0967741935484 397.57764110455213 L 848.5 396.5245205496199" fill="none" stroke="#00acc1" stroke-width="2" clip-path="url(#rablfilter10)"/><circle cx="79.5" cy="474.5" r="4" fill="#00acc1" fill-opacity="0" clip-path="url(#rablfilter10)"/><circle cx="91.90322580645162" cy="474.5" r="4" fill="#00acc1" fill-opacity="0" clip-path="url(#rablfilter10)"/><circle cx="104.30645161290323" cy="474.5" r="4" fill="#00acc1" fill-opacity="0" clip-path="url(#rablfilter10)"/><circle cx="116.70967741935485" cy="474.31583403396473" r="4" fill="#00acc1" fill-opacity="0" clip-path="url(#rablfilter10)"/><circle cx="129.11290322580646" cy="474.5" r="4" fill="#00acc1" fill-opacity="0" clip-path="url(#rablfilter10)"/><circle cx="141.51612903225805" cy="474.2787673209345" r="4" fill="#00acc1" fill-opacity="0" clip-path="url(#rablfilter10)"/><circle cx="153.9193548387097" cy="474.42766693490944" r="4" fill="#00acc1" fill-opacity="0" clip-path="url(#rablfilter10)"/><circle cx="166.32258064516128" cy="474.2285768332344" r="4" fill="#00acc1" fill-opacity="0" clip-path="url(#rablfilter10)"/><circle cx="178.7258064516129" cy="474.3121601106862" r="4" fill="#00acc1" fill-opacity="0" clip-path="url(#rablfilter10)"/><circle cx="191.1290322580645" cy="474.1974072990622" r="4" fill="#00acc1" fill-opacity="0" clip-path="url(#rablfilter10)"/><circle cx="203.53225806451613" cy="474.14361561528716" r="4" fill="#00acc1" fill-opacity="0" clip-path="url(#rablfilter10)"/><circle cx="215.93548387096774" cy="473.9755385454578" r="4" fill="#00acc1" fill-opacity="0" clip-path="url(#rablfilter10)"/><circle cx="228.33870967741936" cy="474.15694080693487" r="4" fill="#00acc1" fill-opacity="0" clip-path="url(#rablfilter10)"/><circle cx="240.74193548387098" cy="473.9925570711069" r="4" fill="#00acc1" fill-opacity="0" clip-path="url(#rablfilter10)"/><circle cx="253.14516129032256" cy="473.7794241063328" r="4" fill="#00acc1" fill-opacity="0" clip-path="url(#rablfilter10)"/><circle cx="265.5483870967742" cy="471.6239464723709" r="4" fill="#00acc1" fill-opacity="0" clip-path="url(#rablfilter10)"/><circle cx="277.9516129032258" cy="471.53591589519186" r="4" fill="#00acc1" fill-opacity="0" clip-path="url(#rablfilter10)"/><circle cx="290.35483870967744" cy="472.4125513854039" r="4" fill="#00acc1" fill-opacity="0" clip-path="url(#rablfilter10)"/><circle cx="302.758064516129" cy="472.3485669952202" r="4" fill="#00acc1" fill-opacity="0" clip-path="url(#rablfilter10)"/><circle cx="315.1612903225806" cy="470.8511470219955" r="4" fill="#00acc1" fill-opacity="0" clip-path="url(#rablfilter10)"/><circle cx="327.56451612903226" cy="469.9031956393951" r="4" fill="#00acc1" fill-opacity="0" clip-path="url(#rablfilter10)"/><circle cx="339.96774193548384" cy="468.8491732259873" r="4" fill="#00acc1" fill-opacity="0" clip-path="url(#rablfilter10)"/><circle cx="352.3709677419355" cy="467.75925875846775" r="4" fill="#00acc1" fill-opacity="0" clip-path="url(#rablfilter10)"/><circle cx="364.7741935483871" cy="464.31215000866734" r="4" fill="#00acc1" fill-opacity="0" clip-path="url(#rablfilter10)"/><circle cx="377.1774193548387" cy="462.58507296231716" r="4" fill="#00acc1" fill-opacity="0" clip-path="url(#rablfilter10)"/><circle cx="389.5806451612903" cy="461.4838014235986" r="4" fill="#00acc1" fill-opacity="0" clip-path="url(#rablfilter10)"/><circle cx="401.98387096774195" cy="461.6834306220187" r="4" fill="#00acc1" fill-opacity="0" clip-path="url(#rablfilter10)"/><circle cx="414.38709677419354" cy="460.51258319589994" r="4" fill="#00acc1" fill-opacity="0" clip-path="url(#rablfilter10)"/><circle cx="426.7903225806451" cy="458.0696602558307" r="4" fill="#00acc1" fill-opacity="0" clip-path="url(#rablfilter10)"/><circle cx="439.19354838709677" cy="456.64359287471177" r="4" fill="#00acc1" fill-opacity="0" clip-path="url(#rablfilter10)"/><circle cx="451.5967741935484" cy="454.29834601883033" r="4" fill="#00acc1" fill-opacity="0" clip-path="url(#rablfilter10)"/><circle cx="464" cy="453.9384141256253" r="4" fill="#00acc1" fill-opacity="0" clip-path="url(#rablfilter10)"/><circle cx="476.4032258064516" cy="449.0631448785225" r="4" fill="#00acc1" fill-opacity="0" clip-path="url(#rablfilter10)"/><circle cx="488.80645161290323" cy="444.8796189781431" r="4" fill="#00acc1" fill-opacity="0" clip-path="url(#rablfilter10)"/><circle cx="501.2096774193548" cy="441.9841481947283" r="4" fill="#00acc1" fill-opacity="0" clip-path="url(#rablfilter10)"/><circle cx="513.6129032258066" cy="441.08320480206186" r="4" fill="#00acc1" fill-opacity="0" clip-path="url(#rablfilter10)"/><circle cx="526.016129032258" cy="442.42855980424633" r="4" fill="#00acc1" fill-opacity="0" clip-path="url(#rablfilter10)"/><circle cx="538.4193548387098" cy="439.92504060200406" r="4" fill="#00acc1" fill-opacity="0" clip-path="url(#rablfilter10)"/><circle cx="550.8225806451612" cy="437.32865474041483" r="4" fill="#00acc1" fill-opacity="0" clip-path="url(#rablfilter10)"/><circle cx="563.2258064516129" cy="441.88586002555" r="4" fill="#00acc1" fill-opacity="0" clip-path="url(#rablfilter10)"/><circle cx="575.6290322580645" cy="438.35862541781114" r="4" fill="#00acc1" fill-opacity="0" clip-path="url(#rablfilter10)"/><circle cx="588.0322580645161" cy="437.56280149128816" r="4" fill="#00acc1" fill-opacity="0" clip-path="url(#rablfilter10)"/><circle cx="600.4354838709677" cy="433.8185159509687" r="4" fill="#00acc1" fill-opacity="0" clip-path="url(#rablfilter10)"/><circle cx="612.8387096774194" cy="431.88734981096025" r="4" fill="#00acc1" fill-opacity="0" clip-path="url(#rablfilter10)"/><circle cx="625.241935483871" cy="430.25201596831346" r="4" fill="#00acc1" fill-opacity="0" clip-path="url(#rablfilter10)"/><circle cx="637.6451612903226" cy="427.1060606060606" r="4" fill="#00acc1" fill-opacity="0" clip-path="url(#rablfilter10)"/><circle cx="650.0483870967741" cy="421.2100293113347" r="4" fill="#00acc1" fill-opacity="0" clip-path="url(#rablfilter10)"/><circle cx="662.4516129032259" cy="418.6047542782573" r="4" fill="#00acc1" fill-opacity="0" clip-path="url(#rablfilter10)"/><circle cx="674.8548387096774" cy="417.2431260600559" r="4" fill="#00acc1" fill-opacity="0" clip-path="url(#rablfilter10)"/><circle cx="687.258064516129" cy="418.12679580306695" r="4" fill="#00acc1" fill-opacity="0" clip-path="url(#rablfilter10)"/><circle cx="699.6612903225806" cy="415.77346874655024" r="4" fill="#00acc1" fill-opacity="0" clip-path="url(#rablfilter10)"/><circle cx="712.0645161290323" cy="414.33668379458516" r="4" fill="#00acc1" fill-opacity="0" clip-path="url(#rablfilter10)"/><circle cx="724.4677419354839" cy="414.3685225313495" r="4" fill="#00acc1" fill-opacity="0" clip-path="url(#rablfilter10)"/><circle cx="736.8709677419355" cy="409.9696833995635" r="4" fill="#00acc1" fill-opacity="0" clip-path="url(#rablfilter10)"/><circle cx="749.2741935483871" cy="406.12772772349354" r="4" fill="#00acc1" fill-opacity="0" clip-path="url(#rablfilter10)"/><circle cx="761.6774193548387" cy="404.9187861181296" r="4" fill="#00acc1" fill-opacity="0" clip-path="url(#rablfilter10)"/><circle cx="774.0806451612902" cy="400.7922858702261" r="4" fill="#00acc1" fill-opacity="0" clip-path="url(#rablfilter10)"/><circle cx="786.483870967742" cy="400.0966308147523" r="4" fill="#00acc1" fill-opacity="0" clip-path="url(#rablfilter10)"/><circle cx="798.8870967741935" cy="396.73456079529785" r="4" fill="#00acc1" fill-opacity="0" clip-path="url(#rablfilter10)"/><circle cx="811.2903225806452" cy="396.1138962181178" r="4" fill="#00acc1" fill-opacity="0" clip-path="url(#rablfilter10)"/><circle cx="823.6935483870968" cy="400.42147973826854" r="4" fill="#00acc1" fill-opacity="0" clip-path="url(#rablfilter10)"/><circle cx="836.0967741935484" cy="397.57764110455213" r="4" fill="#00acc1" fill-opacity="0" clip-path="url(#rablfilter10)"/><circle cx="848.5" cy="396.5245205496199" r="4" fill="#00acc1" fill-opacity="0" clip-path="url(#rablfilter10)"/><path d="M 79.5 470.0867239341068 L 91.90322580645162 470.0536140234093 L 104.30645161290323 469.0043346354478 L 116.70967741935485 469.3433529510123 L 129.11290322580646 468.952532231201 L 141.51612903225805 471.18150981401743 L 153.9193548387097 471.8236765916512 L 166.32258064516128 469.885806164985 L 178.7258064516129 469.303096395652 L 191.1290322580645 469.47696116443245 L 203.53225806451613 467.84749148536025 L 215.93548387096774 462.08774557583456 L 228.33870967741936 458.14751179722947 L 240.74193548387098 455.89375927391967 L 253.14516129032256 455.4878821901651 L 265.5483870967742 449.29531272150496 L 277.9516129032258 449.40749490584807 L 290.35483870967744 449.64942125480803 L 302.758064516129 444.23650906609834 L 315.1612903225806 439.02760649230987 L 327.56451612903226 432.0608163071424 L 339.96774193548384 429.47715253225607 L 352.3709677419355 420.6181272000397 L 364.7741935483871 418.84571203081913 L 377.1774193548387 405.1395656294342 L 389.5806451612903 398.8506309604372 L 401.98387096774195 406.9522084817438 L 414.38709677419354 409.98082679222694 L 426.7903225806451 409.8223716218252 L 439.19354838709677 401.4569433172087 L 451.5967741935484 398.3870179673357 L 464 393.7673928858907 L 476.4032258064516 388.058334250175 L 488.80645161290323 375.9787120949967 L 501.2096774193548 371.8746266310328 L 513.6129032258066 359.45572069876494 L 526.016129032258 349.7367003190877 L 538.4193548387098 346.12762599753984 L 550.8225806451612 341.57263386491024 L 563.2258064516129 333.77895753742575 L 575.6290322580645 327.7322513581795 L 588.0322580645161 314.66093738111545 L 600.4354838709677 296.9996551492408 L 612.8387096774194 286.7982903452946 L 625.241935483871 275.71002385764405 L 637.6451612903226 262.31582610557876 L 650.0483870967741 251.19295621430516 L 662.4516129032259 233.1100695283007 L 674.8548387096774 220.48683739041113 L 687.258064516129 212.9051654560129 L 699.6612903225806 189.25091921910956 L 712.0645161290323 184.05332191472098 L 724.4677419354839 171.1403430389478 L 736.8709677419355 159.03356289256223 L 749.2741935483871 158.0309655071933 L 761.6774193548387 147.07971761141596 L 774.0806451612902 140.84251217654588 L 786.483870967742 135.69680208592956 L 798.8870967741935 146.13989253850897 L 811.2903225806452 146.0139521867754 L 823.6935483870968 163.7329315896502 L 836.0967741935484 170.37252969177345 L 848.5 197.1549791085369" fill="none" stroke="#ff7043" stroke-width="2" clip-path="url(#rablfilter10)"/><circle cx="79.5" cy="470.0867239341068" r="4" fill="#ff7043" fill-opacity="0" clip-path="url(#rablfilter10)"/><circle cx="91.90322580645162" cy="470.0536140234093" r="4" fill="#ff7043" fill-opacity="0" clip-path="url(#rablfilter10)"/><circle cx="104.30645161290323" cy="469.0043346354478" r="4" fill="#ff7043" fill-opacity="0" clip-path="url(#rablfilter10)"/><circle cx="116.70967741935485" cy="469.3433529510123" r="4" fill="#ff7043" fill-opacity="0" clip-path="url(#rablfilter10)"/><circle cx="129.11290322580646" cy="468.952532231201" r="4" fill="#ff7043" fill-opacity="0" clip-path="url(#rablfilter10)"/><circle cx="141.51612903225805" cy="471.18150981401743" r="4" fill="#ff7043" fill-opacity="0" clip-path="url(#rablfilter10)"/><circle cx="153.9193548387097" cy="471.8236765916512" r="4" fill="#ff7043" fill-opacity="0" clip-path="url(#rablfilter10)"/><circle cx="166.32258064516128" cy="469.885806164985" r="4" fill="#ff7043" fill-opacity="0" clip-path="url(#rablfilter10)"/><circle cx="178.7258064516129" cy="469.303096395652" r="4" fill="#ff7043" fill-opacity="0" clip-path="url(#rablfilter10)"/><circle cx="191.1290322580645" cy="469.47696116443245" r="4" fill="#ff7043" fill-opacity="0" clip-path="url(#rablfilter10)"/><circle cx="203.53225806451613" cy="467.84749148536025" r="4" fill="#ff7043" fill-opacity="0" clip-path="url(#rablfilter10)"/><circle cx="215.93548387096774" cy="462.08774557583456" r="4" fill="#ff7043" fill-opacity="0" clip-path="url(#rablfilter10)"/><circle cx="228.33870967741936" cy="458.14751179722947" r="4" fill="#ff7043" fill-opacity="0" clip-path="url(#rablfilter10)"/><circle cx="240.74193548387098" cy="455.89375927391967" r="4" fill="#ff7043" fill-opacity="0" clip-path="url(#rablfilter10)"/><circle cx="253.14516129032256" cy="455.4878821901651" r="4" fill="#ff7043" fill-opacity="0" clip-path="url(#rablfilter10)"/><circle cx="265.5483870967742" cy="449.29531272150496" r="4" fill="#ff7043" fill-opacity="0" clip-path="url(#rablfilter10)"/><circle cx="277.9516129032258" cy="449.40749490584807" r="4" fill="#ff7043" fill-opacity="0" clip-path="url(#rablfilter10)"/><circle cx="290.35483870967744" cy="449.64942125480803" r="4" fill="#ff7043" fill-opacity="0" clip-path="url(#rablfilter10)"/><circle cx="302.758064516129" cy="444.23650906609834" r="4" fill="#ff7043" fill-opacity="0" clip-path="url(#rablfilter10)"/><circle cx="315.1612903225806" cy="439.02760649230987" r="4" fill="#ff7043" fill-opacity="0" clip-path="url(#rablfilter10)"/><circle cx="327.56451612903226" cy="432.0608163071424" r="4" fill="#ff7043" fill-opacity="0" clip-path="url(#rablfilter10)"/><circle cx="339.96774193548384" cy="429.47715253225607" r="4" fill="#ff7043" fill-opacity="0" clip-path="url(#rablfilter10)"/><circle cx="352.3709677419355" cy="420.6181272000397" r="4" fill="#ff7043" fill-opacity="0" clip-path="url(#rablfilter10)"/><circle cx="364.7741935483871" cy="418.84571203081913" r="4" fill="#ff7043" fill-opacity="0" clip-path="url(#rablfilter10)"/><circle cx="377.1774193548387" cy="405.1395656294342" r="4" fill="#ff7043" fill-opacity="0" clip-path="url(#rablfilter10)"/><circle cx="389.5806451612903" cy="398.8506309604372" r="4" fill="#ff7043" fill-opacity="0" clip-path="url(#rablfilter10)"/><circle cx="401.98387096774195" cy="406.9522084817438" r="4" fill="#ff7043" fill-opacity="0" clip-path="url(#rablfilter10)"/><circle cx="414.38709677419354" cy="409.98082679222694" r="4" fill="#ff7043" fill-opacity="0" clip-path="url(#rablfilter10)"/><circle cx="426.7903225806451" cy="409.8223716218252" r="4" fill="#ff7043" fill-opacity="0" clip-path="url(#rablfilter10)"/><circle cx="439.19354838709677" cy="401.4569433172087" r="4" fill="#ff7043" fill-opacity="0" clip-path="url(#rablfilter10)"/><circle cx="451.5967741935484" cy="398.3870179673357" r="4" fill="#ff7043" fill-opacity="0" clip-path="url(#rablfilter10)"/><circle cx="464" cy="393.7673928858907" r="4" fill="#ff7043" fill-opacity="0" clip-path="url(#rablfilter10)"/><circle cx="476.4032258064516" cy="388.058334250175" r="4" fill="#ff7043" fill-opacity="0" clip-path="url(#rablfilter10)"/><circle cx="488.80645161290323" cy="375.9787120949967" r="4" fill="#ff7043" fill-opacity="0" clip-path="url(#rablfilter10)"/><circle cx="501.2096774193548" cy="371.8746266310328" r="4" fill="#ff7043" fill-opacity="0" clip-path="url(#rablfilter10)"/><circle cx="513.6129032258066" cy="359.45572069876494" r="4" fill="#ff7043" fill-opacity="0" clip-path="url(#rablfilter10)"/><circle cx="526.016129032258" cy="349.7367003190877" r="4" fill="#ff7043" fill-opacity="0" clip-path="url(#rablfilter10)"/><circle cx="538.4193548387098" cy="346.12762599753984" r="4" fill="#ff7043" fill-opacity="0" clip-path="url(#rablfilter10)"/><circle cx="550.8225806451612" cy="341.57263386491024" r="4" fill="#ff7043" fill-opacity="0" clip-path="url(#rablfilter10)"/><circle cx="563.2258064516129" cy="333.77895753742575" r="4" fill="#ff7043" fill-opacity="0" clip-path="url(#rablfilter10)"/><circle cx="575.6290322580645" cy="327.7322513581795" r="4" fill="#ff7043" fill-opacity="0" clip-path="url(#rablfilter10)"/><circle cx="588.0322580645161" cy="314.66093738111545" r="4" fill="#ff7043" fill-opacity="0" clip-path="url(#rablfilter10)"/><circle cx="600.4354838709677" cy="296.9996551492408" r="4" fill="#ff7043" fill-opacity="0" clip-path="url(#rablfilter10)"/><circle cx="612.8387096774194" cy="286.7982903452946" r="4" fill="#ff7043" fill-opacity="0" clip-path="url(#rablfilter10)"/><circle cx="625.241935483871" cy="275.71002385764405" r="4" fill="#ff7043" fill-opacity="0" clip-path="url(#rablfilter10)"/><circle cx="637.6451612903226" cy="262.31582610557876" r="4" fill="#ff7043" fill-opacity="0" clip-path="url(#rablfilter10)"/><circle cx="650.0483870967741" cy="251.19295621430516" r="4" fill="#ff7043" fill-opacity="0" clip-path="url(#rablfilter10)"/><circle cx="662.4516129032259" cy="233.1100695283007" r="4" fill="#ff7043" fill-opacity="0" clip-path="url(#rablfilter10)"/><circle cx="674.8548387096774" cy="220.48683739041113" r="4" fill="#ff7043" fill-opacity="0" clip-path="url(#rablfilter10)"/><circle cx="687.258064516129" cy="212.9051654560129" r="4" fill="#ff7043" fill-opacity="0" clip-path="url(#rablfilter10)"/><circle cx="699.6612903225806" cy="189.25091921910956" r="4" fill="#ff7043" fill-opacity="0" clip-path="url(#rablfilter10)"/><circle cx="712.0645161290323" cy="184.05332191472098" r="4" fill="#ff7043" fill-opacity="0" clip-path="url(#rablfilter10)"/><circle cx="724.4677419354839" cy="171.1403430389478" r="4" fill="#ff7043" fill-opacity="0" clip-path="url(#rablfilter10)"/><circle cx="736.8709677419355" cy="159.03356289256223" r="4" fill="#ff7043" fill-opacity="0" clip-path="url(#rablfilter10)"/><circle cx="749.2741935483871" cy="158.0309655071933" r="4" fill="#ff7043" fill-opacity="0" clip-path="url(#rablfilter10)"/><circle cx="761.6774193548387" cy="147.07971761141596" r="4" fill="#ff7043" fill-opacity="0" clip-path="url(#rablfilter10)"/><circle cx="774.0806451612902" cy="140.84251217654588" r="4" fill="#ff7043" fill-opacity="0" clip-path="url(#rablfilter10)"/><circle cx="786.483870967742" cy="135.69680208592956" r="4" fill="#ff7043" fill-opacity="0" clip-path="url(#rablfilter10)"/><circle cx="798.8870967741935" cy="146.13989253850897" r="4" fill="#ff7043" fill-opacity="0" clip-path="url(#rablfilter10)"/><circle cx="811.2903225806452" cy="146.0139521867754" r="4" fill="#ff7043" fill-opacity="0" clip-path="url(#rablfilter10)"/><circle cx="823.6935483870968" cy="163.7329315896502" r="4" fill="#ff7043" fill-opacity="0" clip-path="url(#rablfilter10)"/><circle cx="836.0967741935484" cy="170.37252969177345" r="4" fill="#ff7043" fill-opacity="0" clip-path="url(#rablfilter10)"/><circle cx="848.5" cy="197.1549791085369" r="4" fill="#ff7043" fill-opacity="0" clip-path="url(#rablfilter10)"/><path d="M 79.5 474.5 L 91.90322580645162 474.5 L 104.30645161290323 474.39630820066884 L 116.70967741935485 474.5 L 129.11290322580646 474.41960191639424 L 141.51612903225805 474.5 L 153.9193548387097 474.5 L 166.32258064516128 474.4321442083086 L 178.7258064516129 474.4373867035621 L 191.1290322580645 474.0158516784995 L 203.53225806451613 474.14361561528716 L 215.93548387096774 474.32517951515257 L 228.33870967741936 473.4136458886271 L 240.74193548387098 473.31596649924944 L 253.14516129032256 473.225134957358 L 265.5483870967742 464.4076667121379 L 277.9516129032258 461.1616215283632 L 290.35483870967744 454.4207323738849 L 302.758064516129 449.973663745511 L 315.1612903225806 439.1661705294493 L 327.56451612903226 428.9498476994603 L 339.96774193548384 416.2459483784702 L 352.3709677419355 406.65201626170165 L 364.7741935483871 399.1856874607681 L 377.1774193548387 369.8451769473634 L 389.5806451612903 381.44389375975703 L 401.98387096774195 380.87198009631675 L 414.38709677419354 384.6972429994992 L 426.7903225806451 392.51664492407315 L 439.19354838709677 412.6818948977794 L 451.5967741935484 409.1696904219631 L 464 406.9179777165874 L 476.4032258064516 414.9603023504631 L 488.80645161290323 414.43644959456805 L 501.2096774193548 420.6038620761935 L 513.6129032258066 426.9274790584908 L 526.016129032258 429.5034001150808 L 538.4193548387098 430.99602881027744 L 550.8225806451612 432.88127074333 L 563.2258064516129 437.71673857250545 L 575.6290322580645 441.3683675123333 L 588.0322580645161 445.0597200030435 L 600.4354838709677 447.2330336373915 L 612.8387096774194 449.1822988845983 L 625.241935483871 450.2165759826103 L 637.6451612903226 452.09626893195804 L 650.0483870967741 453.99717462907563 L 662.4516129032259 455.2663366084934 L 674.8548387096774 458.48115190750343 L 687.258064516129 459.26319612590794 L 699.6612903225806 459.93250002122903 L 712.0645161290323 459.9923525346315 L 724.4677419354839 461.29953248650025 L 736.8709677419355 462.3963157482848 L 749.2741935483871 463.64691519911264 L 761.6774193548387 464.29337368970334 L 774.0806451612902 466.0409063459155 L 786.483870967742 467.18360206292294 L 798.8870967741935 467.7985765347467 L 811.2903225806452 468.58771088190616 L 823.6935483870968 469.5842343474981 L 836.0967741935484 470.2066250193375 L 848.5 471.05092899535714" fill="none" stroke="#9e9d24" stroke-width="2" clip-path="url(#rablfilter10)"/><circle cx="79.5" cy="474.5" r="4" fill="#9e9d24" fill-opacity="0" clip-path="url(#rablfilter10)"/><circle cx="91.90322580645162" cy="474.5" r="4" fill="#9e9d24" fill-opacity="0" clip-path="url(#rablfilter10)"/><circle cx="104.30645161290323" cy="474.39630820066884" r="4" fill="#9e9d24" fill-opacity="0" clip-path="url(#rablfilter10)"/><circle cx="116.70967741935485" cy="474.5" r="4" fill="#9e9d24" fill-opacity="0" clip-path="url(#rablfilter10)"/><circle cx="129.11290322580646" cy="474.41960191639424" r="4" fill="#9e9d24" fill-opacity="0" clip-path="url(#rablfilter10)"/><circle cx="141.51612903225805" cy="474.5" r="4" fill="#9e9d24" fill-opacity="0" clip-path="url(#rablfilter10)"/><circle cx="153.9193548387097" cy="474.5" r="4" fill="#9e9d24" fill-opacity="0" clip-path="url(#rablfilter10)"/><circle cx="166.32258064516128" cy="474.4321442083086" r="4" fill="#9e9d24" fill-opacity="0" clip-path="url(#rablfilter10)"/><circle cx="178.7258064516129" cy="474.4373867035621" r="4" fill="#9e9d24" fill-opacity="0" clip-path="url(#rablfilter10)"/><circle cx="191.1290322580645" cy="474.0158516784995" r="4" fill="#9e9d24" fill-opacity="0" clip-path="url(#rablfilter10)"/><circle cx="203.53225806451613" cy="474.14361561528716" r="4" fill="#9e9d24" fill-opacity="0" clip-path="url(#rablfilter10)"/><circle cx="215.93548387096774" cy="474.32517951515257" r="4" fill="#9e9d24" fill-opacity="0" clip-path="url(#rablfilter10)"/><circle cx="228.33870967741936" cy="473.4136458886271" r="4" fill="#9e9d24" fill-opacity="0" clip-path="url(#rablfilter10)"/><circle cx="240.74193548387098" cy="473.31596649924944" r="4" fill="#9e9d24" fill-opacity="0" clip-path="url(#rablfilter10)"/><circle cx="253.14516129032256" cy="473.225134957358" r="4" fill="#9e9d24" fill-opacity="0" clip-path="url(#rablfilter10)"/><circle cx="265.5483870967742" cy="464.4076667121379" r="4" fill="#9e9d24" fill-opacity="0" clip-path="url(#rablfilter10)"/><circle cx="277.9516129032258" cy="461.1616215283632" r="4" fill="#9e9d24" fill-opacity="0" clip-path="url(#rablfilter10)"/><circle cx="290.35483870967744" cy="454.4207323738849" r="4" fill="#9e9d24" fill-opacity="0" clip-path="url(#rablfilter10)"/><circle cx="302.758064516129" cy="449.973663745511" r="4" fill="#9e9d24" fill-opacity="0" clip-path="url(#rablfilter10)"/><circle cx="315.1612903225806" cy="439.1661705294493" r="4" fill="#9e9d24" fill-opacity="0" clip-path="url(#rablfilter10)"/><circle cx="327.56451612903226" cy="428.9498476994603" r="4" fill="#9e9d24" fill-opacity="0" clip-path="url(#rablfilter10)"/><circle cx="339.96774193548384" cy="416.2459483784702" r="4" fill="#9e9d24" fill-opacity="0" clip-path="url(#rablfilter10)"/><circle cx="352.3709677419355" cy="406.65201626170165" r="4" fill="#9e9d24" fill-opacity="0" clip-path="url(#rablfilter10)"/><circle cx="364.7741935483871" cy="399.1856874607681" r="4" fill="#9e9d24" fill-opacity="0" clip-path="url(#rablfilter10)"/><circle cx="377.1774193548387" cy="369.8451769473634" r="4" fill="#9e9d24" fill-opacity="0" clip-path="url(#rablfilter10)"/><circle cx="389.5806451612903" cy="381.44389375975703" r="4" fill="#9e9d24" fill-opacity="0" clip-path="url(#rablfilter10)"/><circle cx="401.98387096774195" cy="380.87198009631675" r="4" fill="#9e9d24" fill-opacity="0" clip-path="url(#rablfilter10)"/><circle cx="414.38709677419354" cy="384.6972429994992" r="4" fill="#9e9d24" fill-opacity="0" clip-path="url(#rablfilter10)"/><circle cx="426.7903225806451" cy="392.51664492407315" r="4" fill="#9e9d24" fill-opacity="0" clip-path="url(#rablfilter10)"/><circle cx="439.19354838709677" cy="412.6818948977794" r="4" fill="#9e9d24" fill-opacity="0" clip-path="url(#rablfilter10)"/><circle cx="451.5967741935484" cy="409.1696904219631" r="4" fill="#9e9d24" fill-opacity="0" clip-path="url(#rablfilter10)"/><circle cx="464" cy="406.9179777165874" r="4" fill="#9e9d24" fill-opacity="0" clip-path="url(#rablfilter10)"/><circle cx="476.4032258064516" cy="414.9603023504631" r="4" fill="#9e9d24" fill-opacity="0" clip-path="url(#rablfilter10)"/><circle cx="488.80645161290323" cy="414.43644959456805" r="4" fill="#9e9d24" fill-opacity="0" clip-path="url(#rablfilter10)"/><circle cx="501.2096774193548" cy="420.6038620761935" r="4" fill="#9e9d24" fill-opacity="0" clip-path="url(#rablfilter10)"/><circle cx="513.6129032258066" cy="426.9274790584908" r="4" fill="#9e9d24" fill-opacity="0" clip-path="url(#rablfilter10)"/><circle cx="526.016129032258" cy="429.5034001150808" r="4" fill="#9e9d24" fill-opacity="0" clip-path="url(#rablfilter10)"/><circle cx="538.4193548387098" cy="430.99602881027744" r="4" fill="#9e9d24" fill-opacity="0" clip-path="url(#rablfilter10)"/><circle cx="550.8225806451612" cy="432.88127074333" r="4" fill="#9e9d24" fill-opacity="0" clip-path="url(#rablfilter10)"/><circle cx="563.2258064516129" cy="437.71673857250545" r="4" fill="#9e9d24" fill-opacity="0" clip-path="url(#rablfilter10)"/><circle cx="575.6290322580645" cy="441.3683675123333" r="4" fill="#9e9d24" fill-opacity="0" clip-path="url(#rablfilter10)"/><circle cx="588.0322580645161" cy="445.0597200030435" r="4" fill="#9e9d24" fill-opacity="0" clip-path="url(#rablfilter10)"/><circle cx="600.4354838709677" cy="447.2330336373915" r="4" fill="#9e9d24" fill-opacity="0" clip-path="url(#rablfilter10)"/><circle cx="612.8387096774194" cy="449.1822988845983" r="4" fill="#9e9d24" fill-opacity="0" clip-path="url(#rablfilter10)"/><circle cx="625.241935483871" cy="450.2165759826103" r="4" fill="#9e9d24" fill-opacity="0" clip-path="url(#rablfilter10)"/><circle cx="637.6451612903226" cy="452.09626893195804" r="4" fill="#9e9d24" fill-opacity="0" clip-path="url(#rablfilter10)"/><circle cx="650.0483870967741" cy="453.99717462907563" r="4" fill="#9e9d24" fill-opacity="0" clip-path="url(#rablfilter10)"/><circle cx="662.4516129032259" cy="455.2663366084934" r="4" fill="#9e9d24" fill-opacity="0" clip-path="url(#rablfilter10)"/><circle cx="674.8548387096774" cy="458.48115190750343" r="4" fill="#9e9d24" fill-opacity="0" clip-path="url(#rablfilter10)"/><circle cx="687.258064516129" cy="459.26319612590794" r="4" fill="#9e9d24" fill-opacity="0" clip-path="url(#rablfilter10)"/><circle cx="699.6612903225806" cy="459.93250002122903" r="4" fill="#9e9d24" fill-opacity="0" clip-path="url(#rablfilter10)"/><circle cx="712.0645161290323" cy="459.9923525346315" r="4" fill="#9e9d24" fill-opacity="0" clip-path="url(#rablfilter10)"/><circle cx="724.4677419354839" cy="461.29953248650025" r="4" fill="#9e9d24" fill-opacity="0" clip-path="url(#rablfilter10)"/><circle cx="736.8709677419355" cy="462.3963157482848" r="4" fill="#9e9d24" fill-opacity="0" clip-path="url(#rablfilter10)"/><circle cx="749.2741935483871" cy="463.64691519911264" r="4" fill="#9e9d24" fill-opacity="0" clip-path="url(#rablfilter10)"/><circle cx="761.6774193548387" cy="464.29337368970334" r="4" fill="#9e9d24" fill-opacity="0" clip-path="url(#rablfilter10)"/><circle cx="774.0806451612902" cy="466.0409063459155" r="4" fill="#9e9d24" fill-opacity="0" clip-path="url(#rablfilter10)"/><circle cx="786.483870967742" cy="467.18360206292294" r="4" fill="#9e9d24" fill-opacity="0" clip-path="url(#rablfilter10)"/><circle cx="798.8870967741935" cy="467.7985765347467" r="4" fill="#9e9d24" fill-opacity="0" clip-path="url(#rablfilter10)"/><circle cx="811.2903225806452" cy="468.58771088190616" r="4" fill="#9e9d24" fill-opacity="0" clip-path="url(#rablfilter10)"/><circle cx="823.6935483870968" cy="469.5842343474981" r="4" fill="#9e9d24" fill-opacity="0" clip-path="url(#rablfilter10)"/><circle cx="836.0967741935484" cy="470.2066250193375" r="4" fill="#9e9d24" fill-opacity="0" clip-path="url(#rablfilter10)"/><circle cx="848.5" cy="471.05092899535714" r="4" fill="#9e9d24" fill-opacity="0" clip-path="url(#rablfilter10)"/></g><g/><g><text x="79.5" y="491.40911865234375" style="cursor: default; user-select: none; -webkit-font-smoothing: antialiased; font-family: Roboto; font-size: 12px;" fill="#757575" dx="-13.4765625px">1960</text><text x="116.70967741935485" y="491.40911865234375" style="cursor: default; user-select: none; -webkit-font-smoothing: antialiased; font-family: Roboto; font-size: 12px;" fill="#757575" dx="-13.4765625px">1963</text><text x="153.9193548387097" y="491.40911865234375" style="cursor: default; user-select: none; -webkit-font-smoothing: antialiased; font-family: Roboto; font-size: 12px;" fill="#757575" dx="-13.4765625px">1966</text><text x="191.1290322580645" y="491.40911865234375" style="cursor: default; user-select: none; -webkit-font-smoothing: antialiased; font-family: Roboto; font-size: 12px;" fill="#757575" dx="-13.4765625px">1969</text><text x="228.33870967741936" y="491.40911865234375" style="cursor: default; user-select: none; -webkit-font-smoothing: antialiased; font-family: Roboto; font-size: 12px;" fill="#757575" dx="-13.4765625px">1972</text><text x="265.5483870967742" y="491.40911865234375" style="cursor: default; user-select: none; -webkit-font-smoothing: antialiased; font-family: Roboto; font-size: 12px;" fill="#757575" dx="-13.4765625px">1975</text><text x="302.758064516129" y="491.40911865234375" style="cursor: default; user-select: none; -webkit-font-smoothing: antialiased; font-family: Roboto; font-size: 12px;" fill="#757575" dx="-13.4765625px">1978</text><text x="339.96774193548384" y="491.40911865234375" style="cursor: default; user-select: none; -webkit-font-smoothing: antialiased; font-family: Roboto; font-size: 12px;" fill="#757575" dx="-13.4765625px">1981</text><text x="377.1774193548387" y="491.40911865234375" style="cursor: default; user-select: none; -webkit-font-smoothing: antialiased; font-family: Roboto; font-size: 12px;" fill="#757575" dx="-13.4765625px">1984</text><text x="414.38709677419354" y="491.40911865234375" style="cursor: default; user-select: none; -webkit-font-smoothing: antialiased; font-family: Roboto; font-size: 12px;" fill="#757575" dx="-13.4765625px">1987</text><text x="451.5967741935484" y="491.40911865234375" style="cursor: default; user-select: none; -webkit-font-smoothing: antialiased; font-family: Roboto; font-size: 12px;" fill="#757575" dx="-13.4765625px">1990</text><text x="488.80645161290323" y="491.40911865234375" style="cursor: default; user-select: none; -webkit-font-smoothing: antialiased; font-family: Roboto; font-size: 12px;" fill="#757575" dx="-13.4765625px">1993</text><text x="526.016129032258" y="491.40911865234375" style="cursor: default; user-select: none; -webkit-font-smoothing: antialiased; font-family: Roboto; font-size: 12px;" fill="#757575" dx="-13.4765625px">1996</text><text x="563.2258064516129" y="491.40911865234375" style="cursor: default; user-select: none; -webkit-font-smoothing: antialiased; font-family: Roboto; font-size: 12px;" fill="#757575" dx="-13.4765625px">1999</text><text x="600.4354838709677" y="491.40911865234375" style="cursor: default; user-select: none; -webkit-font-smoothing: antialiased; font-family: Roboto; font-size: 12px;" fill="#757575" dx="-13.4765625px">2002</text><text x="637.6451612903226" y="491.40911865234375" style="cursor: default; user-select: none; -webkit-font-smoothing: antialiased; font-family: Roboto; font-size: 12px;" fill="#757575" dx="-13.4765625px">2005</text><text x="674.8548387096774" y="491.40911865234375" style="cursor: default; user-select: none; -webkit-font-smoothing: antialiased; font-family: Roboto; font-size: 12px;" fill="#757575" dx="-13.4765625px">2008</text><text x="712.0645161290323" y="491.40911865234375" style="cursor: default; user-select: none; -webkit-font-smoothing: antialiased; font-family: Roboto; font-size: 12px;" fill="#757575" dx="-13.4765625px">2011</text><text x="749.2741935483871" y="491.40911865234375" style="cursor: default; user-select: none; -webkit-font-smoothing: antialiased; font-family: Roboto; font-size: 12px;" fill="#757575" dx="-13.4765625px">2014</text><text x="786.483870967742" y="491.40911865234375" style="cursor: default; user-select: none; -webkit-font-smoothing: antialiased; font-family: Roboto; font-size: 12px;" fill="#757575" dx="-13.4765625px">2017</text><text x="823.6935483870968" y="491.40911865234375" style="cursor: default; user-select: none; -webkit-font-smoothing: antialiased; font-family: Roboto; font-size: 12px;" fill="#757575" dx="-13.4765625px">2020</text><text x="457.26171922683716" y="523.0454921722412" style="cursor: default; user-select: none; -webkit-font-smoothing: antialiased; font-family: Roboto; font-size: 12px;" fill="#424242" dx="-11.889204025268555px">Year</text><text x="61.5" y="478.59090662002563" style="cursor: default; user-select: none; -webkit-font-smoothing: antialiased; font-family: Roboto; font-size: 12px;" fill="#757575" dx="-6.74005651473999px">0</text><text x="61.5" y="413.424229780833" style="cursor: default; user-select: none; -webkit-font-smoothing: antialiased; font-family: Roboto; font-size: 12px;" fill="#757575" dx="-20.220169067382812px">500</text><text x="61.5" y="348.25758345921827" style="cursor: default; user-select: none; -webkit-font-smoothing: antialiased; font-family: Roboto; font-size: 12px;" fill="#757575" dx="-29.311079025268555px">1,000</text><text x="61.5" y="283.09093713760376" style="cursor: default; user-select: none; -webkit-font-smoothing: antialiased; font-family: Roboto; font-size: 12px;" fill="#757575" dx="-29.311079025268555px">1,500</text><text x="61.5" y="217.924260298411" style="cursor: default; user-select: none; -webkit-font-smoothing: antialiased; font-family: Roboto; font-size: 12px;" fill="#757575" dx="-29.311079025268555px">2,000</text><text x="61.5" y="152.75756820042926" style="cursor: default; user-select: none; -webkit-font-smoothing: antialiased; font-family: Roboto; font-size: 12px;" fill="#757575" dx="-29.311079025268555px">2,500</text><text x="61.5" y="87.59091424942017" style="cursor: default; user-select: none; -webkit-font-smoothing: antialiased; font-family: Roboto; font-size: 12px;" fill="#757575" dx="-29.311079025268555px">3,000</text><text x="14.188920974731445" y="276.27275562286377" style="cursor: default; user-select: none; -webkit-font-smoothing: antialiased; font-family: Roboto; font-size: 12px;" fill="#424242" dx="-51.00497055053711px" transform="rotate(-90 14.188920974731445 279)">results per 100,000</text></g><g/><g/><g/></svg>